<svg height="183" viewBox="0 0 443 183" width="443" xmlns="http://www.w3.org/2000/svg"><g fill="none" fill-rule="evenodd"><rect fill="#94d8ff" height="142" rx="40" width="142" x="20" y="23"/><path d="m47 122.01785c12.5673986 8.029767 27.2715001 12.04465 44.1123047 12.04465 16.8408043 0 31.5449063-4.354167 44.1123043-13.0625" stroke="#000" stroke-linecap="round" stroke-width="12"/><path d="m209.91 127v-77.99h15.4v77.99zm45.75 0h-14.63v-54.12h14.19v6.71c1.686675-2.7866806 3.978319-4.8399934 6.875-6.16s5.811652-1.98 8.745-1.98c3.37335 0 6.288321.5683277 8.745 1.705s4.491659 2.6583238 6.105 4.565 2.804996 4.1799868 3.575 6.82 1.155 5.426652 1.155 8.36v34.1h-14.63v-31.57c0-3.0800154-.788325-5.6466564-2.365-7.7s-4.124982-3.08-7.645-3.08c-3.226683 0-5.719991 1.0816559-7.48 3.245-1.760009 2.1633442-2.64 4.8216509-2.64 7.975zm66.65-54.12h10.89v12.98h-10.89v22.66c0 2.346678.531661 3.978329 1.595 4.895s2.658323 1.375 4.785 1.375c.880004 0 1.759996-.036666 2.64-.11s1.503331-.183333 1.87-.33v12.1c-.660003.293335-1.668327.586665-3.025.88s-3.098323.44-5.225.44c-5.280026 0-9.459985-1.466652-12.54-4.4s-4.62-7.039974-4.62-12.32v-25.19h-9.79v-12.98h2.75c2.860014 0 4.968327-.8249917 6.325-2.475s2.035-3.6849879 2.035-6.105v-7.59h13.2zm54.55 14.52c-1.466674-.2933348-2.933326-.44-4.4-.44-1.906676 0-3.703325.2566641-5.39.77s-3.153327 1.3566608-4.4 2.53-2.254996 2.7316569-3.025 4.675-1.155 4.381652-1.155 7.315v24.75h-14.63v-54.12h14.19v8.03c.806671-1.7600088 1.85166-3.2083277 3.135-4.345s2.639993-1.9983304 4.07-2.585 2.859993-.9899989 4.29-1.21 2.731661-.33 3.905-.33c.58667 0 1.154997.0183331 1.705.055.550003.0366668 1.11833.0916663 1.705.165zm33.32 27.94c1.760009 0 3.483325-.329997 5.17-.99s3.153327-1.63166 4.4-2.915 2.254996-2.878324 3.025-4.785 1.155-4.14332 1.155-6.71c0-2.5666795-.384996-4.8033238-1.155-6.71s-1.778327-3.5016602-3.025-4.785c-1.246673-1.2833397-2.713325-2.2549967-4.4-2.915s-3.409991-.99-5.17-.99-3.483325.3299967-5.17.99-3.153327 1.6316603-4.4 2.915c-1.246673 1.2833398-2.254996 2.8783238-3.025 4.785s-1.155 4.1433205-1.155 6.71c0 2.56668.384996 4.803324 1.155 6.71s1.778327 3.50166 3.025 4.785 2.713325 2.254997 4.4 2.915 3.409991.99 5.17.99zm0-44.11c4.033354 0 7.791649.7149929 11.275 2.145s6.489987 3.4099873 9.02 5.94 4.509993 5.5549824 5.94 9.075 2.145 7.3699791 2.145 11.55c0 4.180021-.714993 8.011649-2.145 11.495s-3.409987 6.508321-5.94 9.075c-2.530013 2.56668-5.536649 4.564993-9.02 5.995s-7.241646 2.145-11.275 2.145c-4.033353 0-7.791649-.714993-11.275-2.145s-6.489987-3.42832-9.02-5.995c-2.530013-2.566679-4.509993-5.591649-5.94-9.075s-2.145-7.314979-2.145-11.495c0-4.1800209.714993-8.0299824 2.145-11.55s3.409987-6.5449873 5.94-9.075 5.536649-4.5099929 9.02-5.94 7.241647-2.145 11.275-2.145z" fill="#000"/><circle cx="148" cy="38" fill="#0c5df4" r="22"/></g></svg>