<?xml version="1.0" encoding="UTF-8"?><svg id="Layer_1" xmlns="http://www.w3.org/2000/svg" viewBox="0 0 1301.3 290.2"><defs><style>.cls-1{fill:#0070ad;}.cls-1,.cls-2{fill-rule:evenodd;}.cls-2{fill:#12abdb;}</style></defs><path class="cls-2" d="M1250.4,173.7c28.5,0,50.6-23.2,50.8-50.8-2-12-6.2-34.3-37.4-34.3s-45.5,47.7-73.3,78.5c-2.3,17.5-18.8,33.2-39.5,35.8,5.1,5.3,16.3,8.2,29.8,8.2,24.6,0,54.5-7.4,70.1-22.8-20.8.3-34.2-13.1-35.5-31.6,10.2,12.3,21.6,17.1,35.1,17.1"/><path class="cls-1" d="M1031.3,97.7c0-15.2-.9-25.3-10.8-25.3s-6.7.9-10.7,2.2c3.5,51.3-8.1,96.4-22.2,96.4s-9.3-109.9-48.6-109.9-41.4,87.7-45.5,87.7-3.2-23-3.1-40.6c1.5-8.4,2.3-16,2.3-21.7,0-8.2-3.3-22.3-21.9-15.2.7,62.7-11.9,100.6-26,100.6-20.7,0-21-56.9-21-72.5s1.1-35.8-21.6-28.5c-3.4,54.7-17.7,96-26.8,96-13.5,0-10.8-94.5-39.9-94.5s-34.3,89.5-39.8,89.5c-9.8,0,3.1-100.8-34.8-100.8s-27.7,33.7-35.5,71.3c-1.5,7.3-3.1,7.5-3.4-.7-.2-7-.3-14.1-.2-21.1,9.6-37.8-2.1-51.8-19.6-41.7,5.6,69.8-26.4,104-51,104s-15.9-3.8-21.1-9.8c29.5-18.1,42.6-38.9,42.6-59.1s-12.6-34.6-33.6-34.6-45.6,30.1-45.6,55.7,2.6,25.5,6.8,35.1c-10.1,4.8-19.5,8.9-28.4,13-.8-26.4-3.7-54-6-79.5-15.6-4.3-20.1,3.2-21.3,17.1-2.8,31.6-14.5,51.3-24.8,51.3s-12.6-9.5-13.1-19.6c-2.9-50.7,38.3-64.8,59.8-57.5,4.5-11.2-.4-19.2-19.9-19.2s-41.2,14.3-54.1,32.7c-8.6,12.2-18.6,20.9-31.8,31.4.3-3,.5-6,.5-9,0-35.8-19.4-51.5-37.9-51.5s-24.9,9.2-30.5,23.3c-1.4-14.1-4.2-20.2-12.4-20.2s-8.4,1-13.6,3.5c2.4,7.9,3.3,25.4,3.3,36.9,0,43-12.3,62.3-24.2,62.3s-15.7-51-16.8-70.8c-2.1-.8-4.4-1.2-6.6-1.2-12.2,0-13.8,16.5-16.9,31.6-3.4,16.8-13,37.9-27.3,37.9s-14-8.3-14.7-23.3c-1.4-30.4,23.9-66.4,63.5-55.2,5.2-12.1-3-21.3-19.4-21.3-28.9,0-52.8,21.7-63.3,47.3-10.6,23.5-29.1,58-66.8,58s-47-23.2-47-71.9S57.2,24,85.4,24s24.3,19.4,22.6,37.7c10.2,8.2,27,.6,27-20S123.6,3.6,86.5,3.6,0,49.4,0,109.6s29.6,92.7,71.4,92.7,51.3-15.1,68.5-42.9c4.3,24.3,20.9,34.6,33.3,34.6,20.1,0,33.3-13,40.4-30.7,4.5,17.7,13.9,30.7,29.6,30.7s19.7-5.6,26.2-14.6c-2.6,61.4-5.8,100.5,30.4,92.8-5.6-17.4-7.4-49.2-7.4-77.7,0-78.1,12.9-103.7,29-103.7s15.5,14.9,15.5,30.8-.8,18.3-3,27.1c-19.8,12.5-35.7,22.4-35.7,34.9s7.4,10.8,13.7,10.8c15.2,0,33.5-14.9,43.7-43.1,8.9-5.4,17.7-11.5,26.2-19.9-.3,2.9-.5,5.7-.5,8.7,0,28,12.3,44.9,31.8,44.9s26.8-10.9,34.9-27.1c.5,9.4.8,18,1,26-31.1,14.4-65.5,29-65.5,69.5s15.1,36.8,34.9,36.8c43.3,0,53.2-45.7,53.6-98.8,14.1-6.1,24.6-10.8,36.7-16.8,10.4,13,24.4,19.5,37.4,19.5,24.4,0,42.8-13,57.5-39.2,2.6,20,7.8,39.2,18.4,39.2,19.4,0,23.3-101.3,37.7-101.3s2,109.6,31.1,109.6,29.6-96.5,41.8-96.5,9.3,88.2,36.4,88.2,27.8-16.1,35.1-49.7c3.4,22.4,14.7,49.7,36.8,49.7s23.9-13,32.5-30.4c2.4,17.8,7.4,30.4,17.2,30.4,25.4,0,24.5-101.1,44.6-101.1s10.8,101.1,48.1,101.1,26.2-15.1,31.2-34.1c6.9,27.9,18,34.1,27.1,34.1s10.1-2,15.9-8.9c-28.8-12.5-26.4-58.1-26.4-87.5M420.5,271.3c-9,0-13.7-8.5-13.7-18.1,0-25.9,19-39.7,42.5-51.5-1.1,56.7-14.2,69.6-28.8,69.6M537,87.6c8.7,0,13.7,8,12.9,19.5-1,13.5-10.9,29-28,41.2-9-25.4-2.3-60.7,15.1-60.7M813.4,49.3c8.3-.3,14.1-7.4,14.2-15.9s-5.7-15.2-14-14.9c-8.3.3-15.1,7.4-15.1,15.9,0,8.5,6.7,15.1,15,14.9M1020.2,53.6c7.6-.3,13.7-7.1,13.8-15.1,0-8.1-6.1-14.4-13.7-14.2-7.6.3-13.7,7.1-13.8,15.2,0,8.1,6.1,14.4,13.7,14.2M1301.2,120.8c-.6-32-15.9-59.1-39.4-80.6-17.8-16.3-39-28.7-61.3-38-1.8-.8-3.6-1.5-5.4-2.2h0c-27.4,32.8-122.1,57.3-122.1,126s17,52,41.9,62.1c14.4,5.5,28.9,5.8,43.4.9,12.9-4.2,23.4-12.2,32.2-21.9,27.8-30.8,39.2-78.5,73.3-78.5s35.5,22.2,37.5,34.3c0,0,0-.9,0-2"/></svg>