<svg width="156" height="28" viewBox="0 0 156 28" fill="none" xmlns="http://www.w3.org/2000/svg">
<path d="M17.1415 15.0275C17.0379 14.822 16.8823 14.5138 16.649 14.2055C16.4935 14.0257 16.2861 13.8973 16.027 13.8973C15.6122 13.8973 15.3529 14.1798 15.3529 14.5908C15.3529 14.7192 15.4048 14.8477 15.4567 14.9762C15.4826 15.0275 15.5604 15.156 15.5863 15.2331C15.6122 15.2844 15.6122 15.3101 15.5604 15.3358C15.5085 15.3615 15.4826 15.3358 15.4567 15.3101C15.4307 15.2587 15.3011 15.0789 15.3011 15.0789C15.1715 14.8734 14.9382 14.7193 14.679 14.7193C14.2643 14.7193 13.9533 15.0532 13.9533 15.4642C13.9533 15.5927 13.9792 15.6954 14.031 15.7981C14.0569 15.8496 14.0828 15.9266 14.1088 15.9523C14.1347 16.0037 14.1347 16.0294 14.0829 16.055C14.0569 16.0807 14.0051 16.055 13.9792 16.0294C13.9533 15.9779 13.9013 15.9009 13.8754 15.8496C13.7458 15.6698 13.5644 15.5669 13.3311 15.5669C12.9683 15.5669 12.6572 15.8496 12.6572 16.2606C12.6572 16.389 12.709 16.5431 12.7868 16.6973C13.0978 17.3652 13.2274 17.9817 13.2274 18.9835C13.2274 21.2954 11.387 23.1963 9.18372 23.1963C6.25461 23.1963 5.16592 20.9615 4.95855 20.2936C4.93263 20.2165 4.85487 20.1652 4.77711 20.1908L0.422336 21.5266C0.344572 21.5523 0.292732 21.6294 0.318653 21.7064C1.27774 24.789 4.36236 28 9.15781 28C13.1497 28 16.4417 25.3541 17.66 21.7835C18.3857 19.5486 18.1525 17.0569 17.1415 15.0275ZM9.02822 14.411C8.79488 14.411 8.61347 14.2312 8.61347 14C8.61347 13.7688 8.79488 13.589 9.02822 13.589C9.26147 13.589 9.44289 13.7688 9.44289 14C9.46889 14.2312 9.26147 14.411 9.02822 14.411ZM9.02822 10.8146C8.79488 10.8146 8.61347 10.6348 8.61347 10.4037C8.61347 10.1725 8.79488 9.99268 9.02822 9.99268C9.26147 9.99268 9.44289 10.1725 9.44289 10.4037C9.46889 10.6348 9.26147 10.8146 9.02822 10.8146ZM9.02822 12.6129C8.79488 12.6129 8.61347 12.4331 8.61347 12.2019C8.61347 11.9706 8.79488 11.7908 9.02822 11.7908C9.26147 11.7908 9.44289 11.9706 9.44289 12.2019C9.46889 12.4331 9.26147 12.6129 9.02822 12.6129ZM12.372 14.6422C12.2942 14.5394 12.1647 14.4623 12.061 14.3853C11.8017 14.2055 11.5944 14.0771 11.3092 13.9486C11.1278 13.8716 11.0501 13.8202 10.8427 13.7688C10.6872 13.7175 10.5317 13.6917 10.3761 13.7688C10.1428 13.8715 10.0132 14.1027 10.091 14.3596C10.1428 14.5652 10.2983 14.6422 10.4798 14.7193C10.7649 14.8477 10.8945 14.9248 11.1278 15.0789C11.3092 15.1817 11.4648 15.2844 11.6462 15.4385C11.8795 15.5927 12.1387 15.6183 12.3461 15.4385C12.5794 15.2073 12.5794 14.8734 12.372 14.6422ZM13.8754 13.589C13.5903 13.3064 13.2793 13.0496 12.9683 12.8954C12.8645 12.844 12.7868 12.7927 12.6572 12.767C12.4497 12.7156 12.2424 12.7927 12.1128 12.9468C11.9832 13.1266 11.9572 13.3578 12.061 13.5376C12.1647 13.6917 12.2683 13.7688 12.4238 13.8715C12.6313 14.0257 12.7868 14.1541 12.9942 14.3083C13.1238 14.411 13.2274 14.5394 13.4348 14.5652C13.6681 14.5908 13.9013 14.4623 14.0051 14.2569C14.1347 14.0514 14.0569 13.7688 13.8754 13.589ZM11.2315 12.0734C11.1019 12.022 10.9982 11.9706 10.8167 11.9192C10.6872 11.8936 10.5317 11.8679 10.3761 11.8936C10.0651 11.9706 9.90948 12.356 10.091 12.6129C10.1687 12.7156 10.2724 12.7669 10.402 12.8183C10.5057 12.844 10.5835 12.8954 10.7131 12.9211C10.8167 12.9468 10.9204 12.9981 10.9982 13.0239C11.1537 13.0496 11.3092 12.9981 11.4388 12.8954C11.724 12.6385 11.6203 12.2275 11.2315 12.0734ZM10.7908 10.1468C10.7131 10.1211 10.6353 10.1211 10.5576 10.0954C10.4538 10.0954 10.3242 10.0954 10.2206 10.1725C10.0391 10.3009 9.96131 10.5578 10.0651 10.7633C10.1169 10.866 10.2206 10.9431 10.3242 10.9688C10.4279 10.9945 10.5317 11.0459 10.6353 11.0459C10.8686 11.0716 11.076 10.9175 11.1537 10.7119C11.2056 10.4808 11.0501 10.2239 10.7908 10.1468ZM13.0719 10.9175C12.9423 10.8404 12.8386 10.789 12.709 10.7376C12.5535 10.6862 12.4238 10.6348 12.2683 10.6348C11.9313 10.6092 11.6462 10.9175 11.724 11.2514C11.7499 11.4055 11.8536 11.5596 12.0092 11.6367C12.1128 11.6881 12.2165 11.7394 12.3461 11.7908C12.4758 11.8422 12.6053 11.9193 12.7349 11.9706C12.8904 12.0221 13.0719 11.9706 13.2015 11.8679C13.4867 11.611 13.4088 11.1229 13.0719 10.9175ZM15.4567 12.6642C15.327 12.51 15.1974 12.3817 15.0679 12.2532C14.9123 12.1248 14.8345 12.0477 14.6531 11.945C14.4976 11.8422 14.342 11.8165 14.1606 11.8422C13.9792 11.8679 13.8236 11.9963 13.7458 12.1761C13.6681 12.356 13.7199 12.5871 13.8495 12.7413C13.9533 12.844 14.0569 12.9211 14.1606 13.0239C14.3161 13.1523 14.4457 13.2807 14.5754 13.4092C14.7049 13.5376 14.8345 13.6146 15.016 13.6404C15.2234 13.6404 15.4307 13.5377 15.5344 13.3321C15.6381 13.1009 15.6381 12.8698 15.4567 12.6642ZM0.940757 12.9725C1.04444 13.1779 1.19998 13.4862 1.43326 13.7945C1.58879 13.9743 1.79617 14.1027 2.05538 14.1027C2.47011 14.1027 2.72932 13.8202 2.72932 13.4092C2.72932 13.2807 2.67748 13.1523 2.62564 13.0239C2.59972 12.9725 2.52195 12.844 2.49604 12.767C2.47011 12.7156 2.47011 12.6899 2.52195 12.6642C2.5738 12.6385 2.59972 12.6642 2.62564 12.6899C2.65156 12.7413 2.78117 12.9211 2.78117 12.9211C2.91077 13.1266 3.14407 13.2808 3.40328 13.2808C3.81802 13.2808 4.12908 12.9468 4.12908 12.5358C4.12908 12.4073 4.10315 12.3046 4.05131 12.2019C4.02538 12.1504 3.99947 12.0734 3.97354 12.0477C3.94763 11.9963 3.94763 11.9706 3.99947 11.945C4.02538 11.9192 4.07723 11.945 4.10315 11.9706C4.12907 12.0221 4.18092 12.0991 4.20684 12.1504C4.33645 12.3302 4.51789 12.4331 4.75118 12.4331C5.11408 12.4331 5.42514 12.1504 5.42514 11.7394C5.42514 11.611 5.3733 11.4569 5.29553 11.3027C4.98448 10.6348 4.85487 10.0183 4.85487 9.01653C4.85487 6.70459 6.69527 4.80367 8.89855 4.80367C11.8277 4.80367 12.9163 7.03853 13.1238 7.70642C13.1497 7.78348 13.2274 7.83486 13.3052 7.80917L17.66 6.47339C17.7377 6.44771 17.7895 6.37064 17.7636 6.29358C16.8045 3.211 13.7199 0 8.92447 0C4.93263 0 1.64063 2.64587 0.422336 6.21652C-0.303458 8.45137 -0.0701672 10.9175 0.940757 12.9725ZM9.02822 17.1596C9.26147 17.1596 9.44289 17.3394 9.44289 17.5706C9.44289 17.8019 9.26147 17.9817 9.02822 17.9817C8.79488 17.9817 8.61347 17.8019 8.61347 17.5706C8.61347 17.3652 8.79488 17.1596 9.02822 17.1596ZM9.02822 15.3615C9.26147 15.3615 9.44289 15.5413 9.44289 15.7725C9.44289 16.0037 9.26147 16.1835 9.02822 16.1835C8.79488 16.1835 8.61347 16.0037 8.61347 15.7725C8.61347 15.5669 8.79488 15.3615 9.02822 15.3615ZM5.71027 13.3578C5.78803 13.4606 5.91763 13.5377 6.02133 13.6146C6.28054 13.7945 6.48791 13.9229 6.77304 14.0514C6.95449 14.1285 7.03225 14.1798 7.23962 14.2312C7.39515 14.2825 7.55067 14.3083 7.7062 14.2312C7.93949 14.1285 8.0691 13.8973 7.99134 13.6404C7.93949 13.4348 7.78397 13.3578 7.60252 13.2808C7.31738 13.1523 7.18778 13.0752 6.95449 12.9211C6.77304 12.8183 6.61751 12.7156 6.43606 12.5615C6.20277 12.4073 5.94356 12.3817 5.73619 12.5615C5.5029 12.7669 5.47698 13.1266 5.71027 13.3578ZM4.18092 14.3853C4.46605 14.6679 4.77711 14.9248 5.08816 15.0789C5.19184 15.1302 5.2696 15.1817 5.39921 15.2073C5.60658 15.2587 5.81395 15.1817 5.94356 15.0275C6.07317 14.8477 6.09909 14.6165 5.9954 14.4367C5.89172 14.2825 5.78803 14.2055 5.63251 14.1027C5.42514 13.9486 5.2696 13.8202 5.06224 13.6661C4.93263 13.5633 4.82894 13.4348 4.62157 13.4092C4.38829 13.3835 4.15499 13.5119 4.05131 13.7175C3.94763 13.9229 3.99947 14.2055 4.18092 14.3853ZM6.8508 15.9266C6.98041 15.9779 7.0841 16.0294 7.26555 16.0807C7.39515 16.1064 7.55067 16.1321 7.7062 16.1064C8.01726 16.0294 8.17279 15.644 7.99134 15.3871C7.91358 15.2844 7.80989 15.2331 7.68028 15.1817C7.5766 15.156 7.49883 15.1046 7.36923 15.0789C7.26555 15.0532 7.16185 15.0018 7.0841 14.9762C6.92857 14.9504 6.77304 15.0018 6.64343 15.1046C6.3583 15.3358 6.46198 15.7468 6.8508 15.9266ZM7.29146 17.8275C7.36923 17.8532 7.44699 17.8532 7.52476 17.8789C7.62844 17.8789 7.75804 17.8789 7.86173 17.8018C8.04318 17.6734 8.12095 17.4165 8.01726 17.211C7.96542 17.1083 7.86174 17.0312 7.75805 17.0055C7.65436 16.9798 7.55067 16.9284 7.44699 16.9284C7.2137 16.9027 7.00633 17.0569 6.92857 17.2624C6.8508 17.5192 7.03225 17.7761 7.29146 17.8275ZM5.01039 17.0825C5.14 17.1596 5.24369 17.211 5.37329 17.2624C5.52882 17.3138 5.65842 17.3652 5.81395 17.3652C6.15093 17.3908 6.43606 17.0825 6.3583 16.7486C6.33238 16.5945 6.2287 16.4404 6.07317 16.3633C5.96949 16.3119 5.86579 16.2606 5.73619 16.2092C5.60658 16.1578 5.47698 16.0807 5.34737 16.0294C5.19184 15.9779 5.01039 16.0294 4.88079 16.1321C4.59566 16.389 4.67342 16.8514 5.01039 17.0825ZM2.62564 15.3358C2.75525 15.49 2.88485 15.6183 3.01446 15.7468C3.16999 15.8752 3.24775 15.9523 3.4292 16.055C3.58473 16.1578 3.74026 16.1835 3.9217 16.1578C4.10315 16.1321 4.25868 16.0037 4.33645 15.8239C4.4142 15.644 4.36236 15.4129 4.23276 15.2587C4.12907 15.156 4.02538 15.0789 3.9217 14.9762C3.76617 14.8477 3.63657 14.7192 3.50696 14.5908C3.37735 14.4623 3.24775 14.3853 3.0663 14.3596C2.85893 14.3596 2.65156 14.4623 2.54788 14.6679C2.4442 14.8734 2.4442 15.1302 2.62564 15.3358ZM50.0615 9.60733C48.3767 9.60733 46.4585 10.1725 45.318 11.5083V2.02935C45.318 1.95229 45.2401 1.87523 45.1624 1.87523H40.7557C40.678 1.87523 40.6002 1.95229 40.6002 2.02935V27.255C40.6002 27.3321 40.678 27.4092 40.7557 27.4092H45.1883C45.266 27.4092 45.3439 27.3321 45.3439 27.255V17.211C45.318 15.2844 46.4585 13.7431 48.6099 13.7431C50.891 13.7431 51.8501 15.3358 51.8501 17.2624V27.2294C51.8501 27.3064 51.9278 27.3835 52.0056 27.3835H56.4381C56.5159 27.3835 56.5936 27.3064 56.5936 27.2294V16.4404C56.5677 12.6899 54.52 9.60733 50.0615 9.60733ZM63.0221 1.46422C61.415 1.46422 60.093 2.74863 60.093 4.39266C60.093 5.93394 61.415 7.24404 63.0221 7.24404C64.7848 7.24404 66.1326 5.72844 65.9253 4.03302C65.718 2.5945 64.4737 1.48991 63.0221 1.46422ZM65.2255 10.0698H60.7929C60.7152 10.0698 60.6373 10.1468 60.6373 10.2238V27.2808C60.6373 27.3578 60.7152 27.4348 60.7929 27.4348H65.2255C65.3032 27.4348 65.381 27.3578 65.381 27.2808V10.2238C65.381 10.1468 65.3291 10.0698 65.2255 10.0698ZM78.4193 23.6844C76.0346 23.6844 74.0127 21.8606 74.0127 18.7009C74.0127 15.5156 76.0346 13.7688 78.4193 13.7688C80.83 13.7688 82.7482 15.5413 82.7482 18.7009C82.7741 21.8862 80.8559 23.6844 78.4193 23.6844ZM79.4303 9.60733C76.8382 9.60733 74.92 10.7376 74.1165 11.9706V2.02935C74.1165 1.95229 74.0386 1.87523 73.9609 1.87523H69.6061C69.5283 1.87523 69.4506 1.95229 69.4506 2.02935V27.255C69.4506 27.3321 69.5283 27.4092 69.6061 27.4092H73.909C73.9868 27.4092 74.0645 27.3321 74.0645 27.255V25.3027C74.9977 26.7927 76.8382 27.8459 79.2488 27.8459C84.2257 27.8459 87.492 23.9413 87.492 18.6752C87.492 13.5376 84.5626 9.60733 79.4303 9.60733ZM115.849 23.4019C115.538 23.4532 115.02 23.5046 114.58 23.5046C113.231 23.5046 112.506 23.0165 112.506 21.5009V14.2312H115.876C115.953 14.2312 116.031 14.1541 116.031 14.0771V10.2238C116.031 10.1468 115.953 10.0698 115.876 10.0698H112.506V5.03486C112.506 4.9578 112.428 4.88073 112.35 4.88073H107.97C107.892 4.88073 107.814 4.9578 107.814 5.03486V10.0698H104.781C104.703 10.0698 104.626 10.1468 104.626 10.2238V14.0771C104.626 14.1541 104.703 14.2312 104.781 14.2312H107.788V22.2973C107.788 25.6367 109.914 27.6661 113.335 27.6661C114.632 27.6661 115.461 27.4606 115.901 27.2808C115.953 27.255 116.005 27.2037 116.005 27.1266V23.5302C116.031 23.4532 115.927 23.3762 115.849 23.4019ZM146.593 23.6844C144.104 23.6844 142.263 21.8092 142.263 18.7009C142.263 15.5927 144.182 13.7945 146.593 13.7945C149.003 13.7945 150.947 15.567 150.947 18.6496C150.947 21.8092 149.003 23.6844 146.593 23.6844ZM155.38 1.90092H150.973C150.895 1.90092 150.817 1.97798 150.817 2.05504V11.8165C150.325 10.8917 148.9 9.65869 145.866 9.65869C140.915 9.65869 137.468 13.6404 137.468 18.7266C137.468 23.9927 141.019 27.8716 145.996 27.8716C148.355 27.8716 150.117 26.8183 150.895 25.4312V27.2808C150.895 27.3578 150.973 27.4348 151.051 27.4348H155.328C155.405 27.4348 155.483 27.3578 155.483 27.2808V24.2752V2.02935C155.535 1.95229 155.457 1.90092 155.38 1.90092ZM122.77 16.7743C122.874 15.1817 124.223 13.3578 126.685 13.3578C129.38 13.3578 130.521 15.0532 130.599 16.7743H122.77ZM126.607 9.53024C122.123 9.53024 118.001 13.1266 118.001 18.6752C118.001 24.5321 122.226 27.9486 127.048 27.9486C130.624 27.9486 133.165 26.2019 134.409 23.8899C134.461 23.8129 134.409 23.7101 134.332 23.6844L130.78 22.1688C130.703 22.1431 130.624 22.1688 130.599 22.2202C129.925 23.2477 128.81 23.9156 127.073 23.9156C124.714 23.9156 122.77 22.2459 122.667 19.9596H135.057C135.135 19.9596 135.213 19.9083 135.213 19.8312C135.238 19.5743 135.265 19.0348 135.265 18.5211C135.265 12.9725 132.025 9.53024 126.607 9.53024ZM98.3269 16.8514L95.8381 16.3119C94.8796 16.1321 94.2312 15.644 94.2312 14.8221C94.2312 13.8459 95.216 13.1009 96.4609 13.1009C98.1714 13.1009 98.9489 14.0514 99.2345 14.9762C99.2599 15.0532 99.3636 15.1046 99.4418 15.0789L102.966 13.7175C103.045 13.6917 103.07 13.6146 103.045 13.5376C102.423 11.7394 100.556 9.55596 96.4091 9.55596C92.6244 9.55596 89.8509 12.1248 89.8509 15.2331C89.8509 17.6734 91.3804 19.7541 94.7495 20.4734L97.0566 21.0129C98.4042 21.2954 98.9489 21.8606 98.9489 22.6312C98.9489 23.556 98.1969 24.3523 96.6419 24.3523C94.6459 24.3523 93.6347 23.1706 93.4537 21.8606C93.4537 21.7835 93.3501 21.7064 93.2719 21.7321L89.5135 22.5541C89.4362 22.5798 89.3844 22.6312 89.3844 22.7083C89.669 24.6862 91.5095 27.9229 96.6683 27.9229C101.256 27.9229 103.459 25.0202 103.459 22.2202C103.537 19.7027 101.801 17.5706 98.3269 16.8514ZM37.8007 22.0404L33.9126 20.756C33.8348 20.7302 33.7311 20.7817 33.7052 20.8587C33.2645 22.1688 32.0722 23.633 29.7392 23.633C27.3285 23.633 25.2549 21.8606 25.2549 18.7266C25.2549 15.5927 27.2767 13.8715 29.7133 13.8715C31.7352 13.8715 32.8238 14.9504 33.3683 16.1835C33.3942 16.2606 33.4719 16.2862 33.5497 16.2606L37.5156 14.8991C37.5934 14.8734 37.6452 14.7963 37.6193 14.7193C36.6602 12.022 34.0163 9.53024 29.6097 9.53024C24.5291 9.53024 20.5372 13.3835 20.5372 18.7266C20.5372 24.044 24.5809 27.9229 29.7652 27.9229C34.3533 27.9229 37.075 25.0459 37.9045 22.2202C37.9304 22.1688 37.8786 22.066 37.8007 22.0404Z" fill="#31312F"/>
</svg>
