<svg width="1249" height="235" viewBox="0 0 1249 235" fill="none" xmlns="http://www.w3.org/2000/svg">
<path d="M345.84 168.42C343.31 184.05 336.53 197.4 324.56 207.95C314.23 217.06 302.28 223.23 289.18 227.25C279.23 230.3 269.14 232.77 258.71 233.51C256.37 234.43 253.8 233.23 251.46 234.28C242.02 234.28 232.57 234.27 223.13 234.26C220.75 233.28 218.17 234.39 215.78 233.51C214.52 233.43 213.26 233.36 212.01 233.28C210.37 232.33 208.45 233.32 206.79 232.51C187.48 230.41 168.76 225.74 150.42 219.46C119.05 208.73 89.91 193.94 63.52 173.62C45.66 159.86 30.02 144.15 17.68 125.4C10.17 113.99 4.70999 101.45 2.17999 87.7798C-0.590009 72.8098 0.390004 58.2298 7.13 44.5098C11.49 35.6298 18.68 28.7998 25.94 22.1898C28.27 20.0698 30.21 21.1597 32.3 22.7097C63.83 46.1597 95.38 69.5798 126.93 93.0098C164.59 120.98 202.25 148.95 239.92 176.92C240.99 177.71 242.09 178.45 244.22 178.5C205.78 119.46 167.33 60.4298 128.31 0.509766C135.26 1.33977 141.43 1.79974 147.49 2.85974C170.19 6.82974 192.33 12.7798 213.69 21.5698C251.37 37.0698 285.38 58.0497 312.9 88.4797C327.62 104.76 339.29 122.93 344.16 144.77C344.8 147.66 345.3 150.58 345.86 153.48C346.32 158.46 346.37 163.43 345.83 168.41L345.84 168.42Z" fill="#E60641"/>
<path d="M1006.37 166.98L1006.09 159.43C1005.3 156.99 1006.32 154.37 1005.36 151.95L1005.09 144.45C1004.29 142 1005.31 139.38 1004.35 136.94C1004.26 134.45 1004.18 131.96 1004.09 129.46C1003.22 126.74 1004.39 123.85 1003.36 121.14C1003.27 118.92 1003.18 116.7 1003.1 114.47C1002.22 111.74 1003.38 108.84 1002.37 106.12C1002.28 103.91 1002.19 101.7 1002.11 99.4897C1001.23 96.7497 1002.38 93.8297 1001.38 91.0997C1001.28 88.5697 1001.18 86.0397 1001.09 83.5097C1000.31 81.0897 1001.33 78.4897 1000.38 76.0797C1000.65 73.6397 1000.56 71.2197 999.69 67.8697C997.44 75.4097 997.25 82.3597 996.4 89.1397C993.71 110.52 990.74 131.83 986.5 152.97C983.02 170.35 980.33 187.89 977.29 205.35C975.97 212.94 974.53 220.52 973.34 228.13C973.01 230.26 972.06 230.98 970.1 230.97C960.11 230.95 950.12 230.82 940.13 231.04C936.32 231.12 936.79 227.75 936.55 226.3C933.51 207.83 929.45 189.57 925.56 171.28C922.12 155.14 919.14 138.91 915.63 122.78C913.53 113.13 913.28 103.1 911.58 93.3497C910.55 87.4397 909.76 81.5397 909.2 75.5897C908.19 74.3597 908.28 72.7597 907.45 70.3097C908.03 72.7897 908.69 74.2597 907.47 75.5797C907.4 80.3997 907.32 85.2197 907.25 90.0397C906.15 94.1397 907.43 98.3697 906.52 102.48C906.43 106.65 906.34 110.81 906.26 114.98C905.15 119.09 906.44 123.34 905.52 127.46C905.43 131.62 905.35 135.77 905.26 139.93C904.13 144.04 905.44 148.3 904.51 152.43C904.42 156.32 904.33 160.2 904.24 164.09C903.16 168.48 904.42 173 903.51 177.4C903.42 181.28 903.33 185.16 903.24 189.03C902.16 193.43 903.43 197.96 902.51 202.37L902.24 213.97C901.16 218.38 902.43 222.92 901.5 227.34C901.63 230.08 900.33 231.03 897.6 231.01C883.56 230.92 869.51 230.96 855.47 230.98C853.91 230.98 852.44 231.07 852.47 228.89C853.26 227.12 852.53 225.16 853.19 223.37C853.29 221.5 853.39 219.64 853.48 217.77C854.39 215.72 853.41 213.45 854.21 211.38C854.29 209.8 854.37 208.21 854.45 206.63C855.44 204.64 854.39 202.41 855.18 200.39C855.28 198.53 855.37 196.66 855.47 194.8C856.38 192.74 855.4 190.47 856.2 188.4L856.45 183.66C857.43 181.66 856.39 179.43 857.18 177.41C857.28 175.55 857.37 173.68 857.47 171.82C858.37 169.76 857.4 167.49 858.2 165.42C858.28 163.84 858.37 162.26 858.45 160.68C859.43 158.68 858.39 156.45 859.18 154.43C859.28 152.57 859.37 150.71 859.47 148.86C860.37 146.8 859.4 144.52 860.21 142.45C860.29 140.87 860.37 139.29 860.46 137.71C861.44 135.71 860.39 133.48 861.19 131.46C861.28 129.6 861.38 127.75 861.47 125.89C862.37 123.83 861.4 121.55 862.21 119.47C862.29 117.9 862.37 116.32 862.46 114.75C863.43 112.75 862.39 110.51 863.19 108.49C863.28 106.64 863.38 104.79 863.47 102.94C864.37 100.87 863.4 98.5897 864.21 96.5097C864.29 94.9397 864.37 93.3597 864.46 91.7897C865.43 89.7897 864.39 87.5497 865.19 85.5297C865.28 83.6797 865.38 81.8297 865.47 79.9697C866.37 77.8997 865.4 75.6197 866.21 73.5397C866.29 71.9697 866.38 70.3997 866.46 68.8297C867.42 66.8197 866.39 64.5797 867.19 62.5497C867.28 60.6997 867.38 58.8497 867.47 56.9997C868.37 54.9297 867.4 52.6497 868.21 50.5697C868.29 48.9997 868.38 47.4397 868.46 45.8697C869.41 43.8597 868.39 41.6097 869.19 39.5797C869.28 37.7297 869.38 35.8797 869.47 34.0297C870.37 31.9597 869.4 29.6697 870.21 27.5897C870.29 26.0197 870.38 24.4597 870.46 22.8897C871.41 20.8797 870.39 18.6297 871.19 16.5997C871.28 14.7497 871.38 12.8997 871.47 11.0497C872.36 8.97967 871.4 6.68967 872.21 4.60967C872.29 3.68967 872.37 2.76969 872.44 1.84969C873.15 0.859687 874.22 1.11968 875.18 1.11968C893.28 1.10968 911.37 1.10968 929.47 1.11968C930.44 1.11968 931.49 0.89967 932.27 1.76967C934.07 13.4397 935.8 25.1297 937.68 36.7897C940.5 54.3097 943.43 71.8097 946.31 89.3197C948.67 103.69 951.02 118.07 953.5 133.19C957.2 129.92 955.2 126.18 956.14 123.11C957.82 117.65 957.79 111.68 958.56 105.94C959.44 99.4297 960.04 92.8997 961.23 86.4197C962.39 80.0997 962.62 73.6197 963.39 67.2197C964.1 61.3197 964.96 55.4497 965.81 49.5697C966.7 43.3697 967.66 37.1897 968.56 30.9997C969.5 24.5297 969.76 17.9597 971.31 11.5597C972.06 8.44968 970.99 5.08968 972.41 2.02968C973.25 0.40968 974.76 1.15968 975.95 1.15968C993.8 1.10968 1011.66 1.20969 1029.51 1.03969C1032.68 1.00969 1034.08 1.99967 1034.14 5.04967L1034.43 9.61968C1035.17 11.3097 1034.26 13.2197 1035.16 14.8897C1035.24 16.1297 1035.32 17.3697 1035.4 18.6097C1036.15 20.3697 1035.34 22.3397 1036.15 24.0897C1036.24 25.5997 1036.33 27.0997 1036.42 28.6097C1037.17 30.3197 1036.29 32.2497 1037.15 33.9397C1037.25 35.4897 1037.35 37.0497 1037.45 38.5997C1038.18 40.2697 1037.25 42.1797 1038.18 43.8197C1038.26 45.0697 1038.34 46.3297 1038.42 47.5797C1039.16 49.3197 1038.34 51.2697 1039.15 52.9997C1039.25 54.5197 1039.34 56.0497 1039.44 57.5697C1040.18 59.2497 1039.27 61.1697 1040.17 62.8297C1040.25 64.0697 1040.33 65.3097 1040.41 66.5597C1041.16 68.3097 1040.35 70.2697 1041.15 72.0197C1041.24 73.5297 1041.34 75.0397 1041.43 76.5497C1042.17 78.2597 1041.3 80.1797 1042.16 81.8797C1042.26 83.4397 1042.36 84.9897 1042.46 86.5497C1043.19 88.2197 1042.26 90.1197 1043.19 91.7697C1043.27 93.0297 1043.35 94.2797 1043.43 95.5397C1044.17 97.2697 1043.34 99.2197 1044.16 100.94C1044.26 102.47 1044.35 104 1044.45 105.53C1045.19 107.21 1044.27 109.12 1045.18 110.78C1045.26 112.03 1045.34 113.27 1045.42 114.52C1046.16 116.27 1045.35 118.23 1046.16 119.96C1046.25 121.48 1046.35 122.99 1046.44 124.51C1047.18 126.21 1046.3 128.14 1047.17 129.82C1046.9 134.44 1047.58 138.97 1048.43 143.48C1049.17 145.21 1048.33 147.15 1049.16 148.87C1049.26 150.4 1049.36 151.94 1049.46 153.47C1050.19 155.15 1049.28 157.06 1050.19 158.72C1050.27 159.97 1050.35 161.21 1050.43 162.46C1051.17 164.21 1050.36 166.16 1051.17 167.9C1051.26 169.42 1051.36 170.93 1051.45 172.45C1052.19 174.15 1051.3 176.07 1052.18 177.75C1051.91 182.37 1052.59 186.91 1053.44 191.43C1054.18 193.15 1053.33 195.09 1054.17 196.8L1054.47 201.42C1055.2 203.1 1054.28 205 1055.2 206.66C1055.28 207.91 1055.36 209.16 1055.44 210.41C1056.18 212.16 1055.36 214.11 1056.17 215.85C1056.26 217.37 1056.36 218.89 1056.45 220.4C1057.19 222.1 1056.3 224.02 1057.18 225.69C1057.92 229.84 1056.57 231.26 1052.03 231.11C1039.77 230.73 1027.49 230.88 1015.22 231.04C1011.98 231.08 1009.95 230.87 1010.59 226.77C1010.91 224.7 1010.32 222.49 1010.14 220.35C1009.26 217.63 1010.43 214.73 1009.41 212.02C1009.32 209.8 1009.23 207.59 1009.15 205.37C1008.27 202.64 1009.43 199.73 1008.42 197.01C1008.33 194.8 1008.25 192.6 1008.16 190.39C1007.27 187.64 1008.43 184.72 1007.42 181.98C1007.32 179.46 1007.23 176.93 1007.13 174.41C1006.35 171.98 1007.36 169.39 1006.42 166.98H1006.37Z" fill="#221F1F"/>
<path d="M1183.13 1.72022C1205.04 77.9102 1226.95 154.09 1248.86 230.28C1247.64 231.48 1246.25 230.95 1245.02 230.96C1231.36 231.01 1217.7 230.93 1204.05 231.03C1201.26 231.05 1199.88 230.57 1199.12 227.35C1192.74 200.13 1186.52 172.85 1179.35 145.83C1175.01 129.47 1171.15 113.01 1167.48 96.5202C1166.78 93.3802 1165.66 89.9602 1166 86.5102C1165.62 85.8002 1165.67 84.9602 1165.32 84.2302C1165.06 83.6902 1164.46 83.1402 1165.08 82.4602C1164.28 82.9702 1165.03 84.0002 1164.37 84.5502C1161.71 95.9002 1161.12 107.59 1158.24 118.93C1149.06 155.09 1140.14 191.31 1131.08 227.5C1130.66 229.16 1130.48 231.03 1127.82 231.02C1112.74 230.93 1097.66 230.98 1082.62 230.98C1086.89 213.44 1091.9 196.57 1096.48 179.59C1101.4 161.35 1106.64 143.18 1111.55 124.93C1117.15 104.12 1123.01 83.3802 1128.75 62.6102C1134.29 42.5702 1139.8 22.5302 1145.35 2.4902C1145.46 2.0802 1145.91 1.77023 1146.21 1.42023C1158.52 1.16023 1170.84 0.570216 1183.14 1.72022H1183.13Z" fill="#221F1F"/>
<path d="M597.61 4.62014C594.25 16.2301 590.78 27.8101 587.56 39.4601C574.85 85.4701 562.2 131.51 549.55 177.54C545.18 193.45 540.75 209.35 536.56 225.31C535.51 229.3 534.11 231.36 529.38 231.13C519.91 230.67 510.4 230.97 500.91 231.01C498.36 231.02 497.32 230.6 496.46 227.43C491.22 208.01 485.26 188.79 479.73 169.45C473.03 146 466.63 122.46 459.88 99.0202C453.99 78.5802 447.7 58.2501 441.77 37.8301C438.47 26.4801 435.53 15.0301 432.42 3.62014C432 2.23014 432.42 1.21016 433.95 1.23016C449.49 1.47016 465.04 0.420144 480.57 1.75014C489.01 36.0801 497.35 70.4401 505.95 104.74C509.3 118.1 512.5 131.48 514.57 145.1C514.75 146.26 515.06 147.3 516.19 148.47C517.74 139.56 519.38 130.97 520.72 122.33C522.62 110.03 526.44 98.2001 529.43 86.1601C536.16 59.0801 543.07 32.0502 549.82 4.98016C550.08 3.94016 549.72 2.74015 550.63 1.85015C551.24 1.13015 552.08 1.17016 552.91 1.17016C566.87 1.17016 580.82 1.19014 594.78 1.15014C597.34 1.15014 598.71 1.82016 597.62 4.64016L597.61 4.62014Z" fill="#221F1F"/>
<path d="M766.22 189.44C766.22 186.76 766.22 184.09 766.22 181.41C765.49 179.74 766.43 177.84 765.49 176.21C761.96 157.25 753.52 140.35 744.37 123.56C735.98 108.16 727.86 92.4896 723.64 75.1996C722.3 69.6896 721.83 64.1396 721.28 58.5596C720.74 54.2396 720.78 49.9296 721.26 45.6096C721.68 32.2096 725.93 19.7796 731.11 7.6196C731.98 5.5796 733.35 3.7596 734.5 1.8396C735.41 0.789599 736.64 1.16961 737.75 1.15961C753.43 1.13961 769.11 1.1096 784.79 1.2196C785.85 1.2196 787.89 -0.0603982 788.09 2.5296C782.9 4.9096 780.17 9.68961 777.43 14.1896C772.18 22.7896 767.58 31.7396 767.3 42.1896C766.63 46.7896 766.64 51.3996 767.3 55.9996C767.23 63.3996 769.99 70.0996 772.87 76.6596C779 90.6196 787.28 103.46 794.57 116.81C806.58 138.8 814.62 161.65 813.28 187.1C812.37 188.77 813.33 190.7 812.51 192.38C810.09 205.48 805.64 217.92 800.29 230.07C799.27 231.38 797.83 230.81 796.59 230.81C781.17 230.85 765.75 230.86 750.34 230.79C748.89 230.79 746.9 231.76 746.17 229.38C756.55 219.97 763.33 208.57 765.48 194.59C766.45 192.97 765.48 191.07 766.22 189.42V189.44Z" fill="#221F1F"/>
<path d="M677.38 1.92943C677.34 19.2194 677.26 36.5194 677.26 53.8094C677.24 111.019 677.21 168.229 677.35 225.449C677.36 229.749 676.41 231.179 671.88 231.109C658.92 230.889 645.95 231.199 632.99 231.299C631.13 230.119 632.07 228.279 632.07 226.779C632.02 153.259 632.07 79.7394 631.93 6.21944C631.93 1.96944 633.19 0.969434 637.23 1.05943C649.04 1.31943 660.86 1.11944 672.68 1.18944C674.25 1.18944 676.02 0.479429 677.39 1.92943H677.38Z" fill="#221F1F"/>
</svg>
