<svg width="600" height="609" viewBox="0 0 600 609" fill="none" xmlns="http://www.w3.org/2000/svg">
<g clip-path="url(#clip0_121_389)">
<path d="M322 0.100078C326.13 13.9001 330.26 27.7001 334.63 42.3101C342.58 29.6801 350.2 17.5701 358.56 4.30008C359.03 13.9601 359.46 22.1901 359.83 30.4101C360.24 39.5601 360.65 48.7101 360.89 57.8701C360.92 59.0801 362.37 61.9201 359.46 61.3901C357.16 60.9701 352.97 63.0901 352.94 57.7401C352.89 49.2501 352.47 40.7601 352.2 32.2701C352.18 31.5101 352.06 30.7601 351.87 28.9001C345.06 39.7501 338.83 49.6601 332.16 60.2801C328.6 48.3301 325.24 37.0801 321.48 24.4701C318.35 34.3301 315.64 43.0301 312.78 51.6801C312.37 52.9101 312.68 55.1201 310.56 55.0401C308.45 54.9601 305.97 54.8901 304.37 53.7801C303.05 52.8601 304.71 50.7701 305.2 49.2901C309.99 34.7801 314.94 20.3101 319.74 5.80008C320.35 3.97008 321.59 2.21008 321.02 0.0800781C321.35 0.0800781 321.69 0.0800781 322.02 0.0800781L322 0.100078Z" fill="#010101"/>
<path d="M297 607.901C295.7 590.411 294.41 572.92 293.03 554.23C307.02 567.1 320.17 579.19 334.33 592.22C333.57 580.56 332.89 570.071 332.17 559.581C332.02 557.361 331.64 555.51 335.01 555.17C338.74 554.79 340.09 555.46 340.25 559.62C340.89 576.06 342.82 592.43 342.98 608.91H340.98C333.12 605.19 328 598.15 321.67 592.62C315.7 587.41 309.49 582.38 304.15 576.3C303.8 586.04 305.86 595.471 305.26 605.021C304.08 610.501 300.16 608.101 297 607.901Z" fill="#010101"/>
<path d="M0.0999963 287C1.93 283.69 3.35 280.06 6.75 277.94C7.94 277.2 9.5 275.06 10.56 277.8C11.25 279.57 14.68 281.2 11.47 283.59C8.32 285.94 7.21 289.04 8.04 292.8C8.62 295.41 10.15 297.37 12.85 297.98C15.66 298.62 17.75 297.29 19.08 294.91C21.02 291.43 22.72 287.82 24.66 284.34C28.8 276.88 35.15 274.15 43.1 276.31C50.31 278.27 55.09 284.82 55.12 292.78C55.15 300.67 50.31 307.04 42.79 308.9C40.95 309.35 38.58 310.32 38.44 307.01C38.35 304.79 35.96 301.93 40.66 300.92C46.21 299.73 48.56 295.58 47.45 290.6C46.45 286.13 42.45 283.35 37.79 283.82C34.85 284.11 32.88 285.81 31.5 288.21C29.77 291.23 28.23 294.37 26.6 297.45C23.76 302.8 19.8 306.52 13.27 306.19C6.98 305.87 3.41 302.03 1.12 296.59C0.879996 296.02 0.439996 295.53 0.0899963 295.01C0.0899963 292.34 0.0899963 289.68 0.0899963 287.01L0.0999963 287Z" fill="#010101"/>
<path d="M304.16 603.56C303.63 593.85 303.09 584.14 302.5 573.26C315.84 585.61 328.42 597.26 340.99 608.9H305C303.87 607.25 305.03 605.25 304.16 603.56Z" fill="#FEFEFE"/>
<path d="M574.68 287.85C583.06 286.74 591.5 287.26 599.91 287V295C599.56 294.93 599.22 294.87 598.87 294.8C597.31 289.98 593.72 289.37 589.18 289.37C584.36 289.37 579.23 290.94 574.69 287.85H574.68Z" fill="#2B2B2B"/>
<path d="M304.16 603.56C304.44 605.34 304.72 607.12 305 608.9H297V607.9C300.14 607.69 304.38 609.31 304.16 603.56Z" fill="#1E1E1E"/>
<path d="M245.51 202.56C243.29 200.78 241.4 199.26 238.84 197.21C247.49 196.75 254.95 194.6 262.55 193.14C266.46 192.39 270.23 192.44 272.93 196.09C274.12 197.7 275.94 198.06 277.72 198.49C280.23 199.09 282.39 200.21 283.88 202.4C284.94 203.97 285.92 205.87 285.16 207.52C284.43 209.11 282.47 207.68 281.07 207.87C280.42 207.96 279.74 207.85 279.08 207.91C275.28 208.3 272.25 210.1 271.15 213.77C269.75 218.42 273.67 220.04 276.74 221.95C272.67 227.16 266.71 227.35 263.51 221.85C261.25 217.96 258.83 218.43 255.67 219.76C246.26 223.73 241.38 235.25 244.64 245.81C246.99 253.43 251.88 259.18 257.99 264.04C266.77 271.02 276.67 276.12 286.6 281.16C298.76 287.33 310.98 293.39 321.66 302.05C339.32 316.36 345.17 334.94 340.91 356.86C338.74 368.01 332.01 376.33 322.94 382.94C320.75 384.53 320.08 383.85 319.07 381.74C317.34 378.12 316.71 375.64 320.23 371.96C335.81 355.63 332.82 327.66 314.4 313.69C303.91 305.73 292.34 299.46 280.92 292.98C272.68 288.31 264.4 283.7 256.18 279C250.23 275.6 244.81 271.51 239.9 266.7C222.27 249.41 217.42 217.73 245.5 202.56H245.51Z" fill="black"/>
<path d="M289.85 232.35C288.88 223.24 289.29 214.08 289.19 204.95C289.02 189.31 289.1 173.67 289.07 158.03C289.71 157.2 289.5 156.13 289.89 155.22C290.43 153.99 289.34 151.49 292.3 152.16C295.1 154.8 294.7 158.31 294.5 161.54C292.82 188.96 293.98 216.4 293.47 243.83C293.33 251.57 296.07 258.88 295.86 266.57C295.81 268.32 296.9 269.7 298.38 270.66C299.9 271.65 301.52 273.24 303.32 272.34C304.97 271.51 304.41 269.38 304.44 267.77C304.82 241.83 302.68 215.92 303.5 189.97C303.6 186.99 302.6 183.43 306.54 181.8C308.65 182.88 307.91 184.88 307.98 186.54C308.13 190.26 307.93 193.99 308.09 197.71C308.24 198.54 308.45 199.34 309 200.02C308.92 225.83 308.84 251.64 308.76 277.45C308.76 279.24 308.76 281.04 308.76 283.75C324.31 275.65 339.64 268.52 349.95 254.59C355.86 246.61 357.14 237.54 352.17 228.28C349.85 223.95 346.26 221.3 341.67 219.6C338.68 218.49 336.96 218.86 335.08 221.7C331.3 227.44 326.43 227.6 321.4 222.49C322.23 221.93 323.03 221.38 323.83 220.84C325.87 219.48 327.45 217.82 327.07 215.12C326.67 212.23 324.96 210.14 322.35 209.15C320.54 208.46 318.44 208.31 316.47 208.32C312.45 208.35 311.72 207.37 313.45 203.74C313.67 203.29 313.92 202.86 314.21 202.45C316.1 199.73 330.38 193.07 333.65 193.53C341.68 194.66 349.69 195.9 357.76 197.1C357.59 197.72 357.61 198.15 357.42 198.3C354.14 200.887 354.16 203.327 357.48 205.62C371.03 214.96 376.04 228.98 371.47 244.98C368.16 256.58 361.52 265.93 352.02 273.28C343.3 280.03 333.47 284.97 323.89 290.31C322.3 291.2 320.76 291.41 319.18 290.41C315.41 288.03 311.66 285.62 307.9 283.22C306.94 274.99 307.83 266.72 307.44 258.47C307.49 265.08 307.43 271.7 307.48 278.31C307.5 280.16 307.24 281.63 305 281.78C303.97 281.3 302.99 280.62 301.9 280.38C289.85 277.71 288.19 269.32 290.03 258.98C290.63 258.08 290.48 257.07 290.49 256.08C290.49 234.5 290.49 212.92 290.49 191.34C290.49 190.8 290.93 190.01 289.82 189.8C290.6 190.28 290.47 191 290.47 191.67C290.47 204.62 290.48 217.57 290.47 230.51C290.47 231.2 290.32 231.81 289.84 232.33L289.85 232.35Z" fill="black"/>
<path d="M300.96 122.9C286.98 122.55 273.57 119.94 260.98 113.52C257.6 111.79 256.92 110.13 258.44 106.54C271.53 75.4602 307.95 67.6302 330.66 91.1202C335.04 95.6502 337.75 101.06 340 106.87C341.43 110.56 340.63 112.54 337.07 114.37C325.71 120.23 313.59 122.53 300.96 122.9Z" fill="black"/>
<path d="M249.77 291.16C242.99 297.86 238.87 306.01 234.38 313.9C233.23 315.92 231.86 316.12 229.83 315.61C209.67 310.58 189.6 311.1 169.66 316.87C167.29 317.55 166.06 317.04 165.03 314.74C162.05 308.06 158.99 301.42 155.69 294.9C153.91 291.38 155.69 291.28 158.32 291.54C163.52 292.06 166.51 295.49 167.54 301.1C167.82 302.65 165.57 305.94 169.45 305.87C173.11 305.8 172.74 303.26 172.12 300.62C171.58 298.34 172.31 296.36 174.33 294.96C175.96 293.82 177.65 293.46 179.48 294.4C181.67 295.53 182.13 297.66 182.57 299.81C182.86 301.19 182.15 303.77 185.01 302.66C186.93 301.92 190.05 303.54 190.38 299.25C190.89 292.69 193.68 290.19 199.2 289.81C205.03 289.41 208.28 292.34 208.92 298.63C209.14 300.78 208.34 302.94 212.1 303.4C215.78 303.84 215.26 301.67 215.82 299.75C216.94 295.88 219.77 294.32 223.47 295.15C227.39 296.02 227.62 299.42 226.57 302.36C225.07 306.54 228.17 306.21 230.31 306.79C233.62 307.67 232.72 304.89 232.91 303.39C234.23 293.12 239.23 288.52 247.52 290.14C248.13 290.26 248.69 290.67 249.75 291.16H249.77Z" fill="#010101"/>
<path d="M446.18 291.62C439.11 298.84 433.45 306.15 429.92 314.88C429.19 316.69 427.54 316.42 426.05 316.07C405.6 311.17 385.2 310.66 364.87 316.68C363.59 317.06 362.67 316.99 362.02 315.63C358.15 307.59 354.24 299.58 350.26 291.38C358.97 290.7 361.72 293.09 363.57 301.73C363.83 302.96 361.98 306.36 366.07 305.59C369.05 305.03 369.02 303.68 368.29 301.12C367.28 297.52 368.87 294.76 372.74 294.19C376.47 293.65 378.1 296.07 378.74 299.41C379.03 300.92 378.02 303.73 381.29 302.65C383.21 302.02 386.4 303.43 386.32 299.03C386.23 293.55 390.75 289.8 396.01 289.99C401.88 290.21 404.98 293.41 404.91 299.64C404.88 302.08 404.94 303.65 408.04 303.95C410.91 304.23 411.73 303.39 412 300.62C412.38 296.84 415.09 295.08 418.69 295.56C422.63 296.08 423.06 298.96 422.38 302.34C421.69 305.79 424.29 308.34 427.65 307.79C428.84 307.6 428.8 306.84 428.86 306.05C428.93 305.05 428.89 304.05 428.97 303.06C429.77 293.68 435.7 289.36 446.19 291.62H446.18Z" fill="#010101"/>
<path d="M251.3 396.08C259.63 393.44 266.28 398.01 266.94 406.25C267.13 408.58 265.29 412.33 269.14 412.91C272.91 413.48 273.11 409.73 274 407.12C275 404.16 276.32 401.53 280.1 401.6C283.35 401.66 284.72 403.51 285.35 406.51C285.84 408.86 287.48 410.25 290.05 410.05C292.85 409.83 292.7 407.7 292.98 405.67C293.76 400.08 297.22 396.91 302.13 397.04C307.06 397.17 309.6 400.19 310.03 406.57C310.14 408.23 309.78 410.1 312.31 410.13C314.21 410.15 316.53 411.11 317.57 408.62C318.87 405.51 320.4 402.73 324.36 403.4C328.15 404.04 329.16 406.73 329.28 410.35C329.4 413.92 332.89 413.16 335.06 413.8C337.55 414.53 336.94 412.09 337.32 410.91C340.43 401.24 345.4 398.09 356.47 399.47C350.28 405.91 346.6 413.39 343.69 421.28C342.73 423.87 340.83 422.89 339.13 422.53C325.95 419.71 312.7 417.31 299.17 417.02C288.63 416.79 278.25 417.89 268.16 421.1C266.26 421.7 263.98 422.84 263.2 419.97C260.81 411.23 256.18 403.62 251.29 396.07L251.3 396.08Z" fill="#010101"/>
<path d="M413.5 526.83C426.23 535.74 437.76 543.82 450.18 552.52C448.52 537.53 446.96 523.45 445.41 509.41C446.93 508.65 447.19 510.05 447.72 510.65C458.69 523.18 469.63 535.72 480.49 548.34C481.27 549.25 484.06 550.51 481.48 551.94C479.38 553.1 477.45 557.25 474.12 553.17C468.27 545.99 462.21 538.99 455.26 530.77C456.71 543.83 458 555.44 459.41 568.06C449.07 560.88 439.43 554.19 428.64 546.69C432.42 556.44 435.63 564.71 438.82 572.98C440.15 576.42 437.61 580.47 434.09 580.7C432.57 580.8 432.65 579.5 432.38 578.76C426.22 561.95 420.13 545.11 413.5 526.84V526.83Z" fill="#010101"/>
<path d="M240.99 120.35C246.97 115.96 251.92 115.6 258.87 119.19C286.42 133.45 314.48 133.44 342.01 118.68C347.63 115.67 351.43 119.94 356.28 120.2C339.95 146.5 269.76 146.56 241 120.36L240.99 120.35Z" fill="#010101"/>
<path d="M593.9 241.29C593.62 256.38 580.92 268.28 565.47 267.94C550.7 267.61 538.62 254.48 539.02 239.17C539.41 224.07 551.75 212.3 566.94 212.54C582.15 212.79 594.19 225.62 593.9 241.29Z" fill="#010101"/>
<path d="M570.01 176.14C569.93 191.14 557.53 203.74 542.86 203.73C527.64 203.73 515 190.97 515.01 175.64C515.02 160.42 527.04 148.23 542.09 148.16C557.3 148.09 570.08 160.91 570 176.14H570.01Z" fill="#010101"/>
<path d="M383.21 543.52C398.37 543.44 410.94 555.89 410.94 571C410.94 585.77 398 598.59 383.08 598.61C367.88 598.63 355.4 586.2 355.38 571.04C355.37 556.12 368.02 543.61 383.21 543.53V543.52Z" fill="#010101"/>
<path d="M224.6 579.33C224.68 563.88 236.9 551.73 252.26 551.82C267.61 551.91 280.08 564.4 279.87 579.48C279.66 594.68 267.48 606.78 252.42 606.76C236.96 606.73 224.52 594.47 224.6 579.33Z" fill="#010101"/>
<path d="M31.9 444.25C32.05 429.08 44.32 416.87 59.22 417.08C74.78 417.29 87.17 429.84 86.96 445.15C86.74 460.23 74.44 472.45 59.54 472.39C44.23 472.33 31.76 459.63 31.9 444.25Z" fill="#010101"/>
<path d="M222.43 68.2798C207.04 68.2598 194.99 56.1098 195.04 40.6498C195.09 25.7098 207.76 13.2498 222.95 13.2198C238.01 13.1898 250.44 25.7598 250.41 40.9798C250.38 55.8698 237.65 68.2998 222.44 68.2798H222.43Z" fill="#010101"/>
<path d="M76.34 196.52C76.24 211.75 63.77 224.28 48.8 224.16C33.7 224.04 21.26 211.44 21.36 196.34C21.46 181.1 34.32 168.55 49.62 168.77C64.68 168.99 76.44 181.2 76.34 196.51V196.52Z" fill="#010101"/>
<path d="M289.02 305.31C285.5 308.99 282.04 312.32 278.91 315.94C263.73 333.47 265.52 357.63 283.03 372.74C284.91 374.36 284.72 381.49 282.67 382.86C281.25 383.82 280.18 382.45 279.15 381.85C266.33 374.44 258.99 363.24 257.19 348.65C254.96 330.62 259.55 314.77 273.04 301.9C275.73 299.33 277.77 298.22 281.07 300.7C283.43 302.48 286.21 303.7 289.03 305.3L289.02 305.31Z" fill="black"/>
<path d="M513.67 134.35C513.14 133.71 512.62 133.06 512.08 132.43C508.51 128.26 504.84 124.16 501.4 119.88C499.81 117.9 498.73 117.57 496.71 119.42C492.17 123.58 487.23 127.3 482.77 131.54C480.17 134.01 479.22 132.14 477.86 130.48C476.56 128.89 474.6 127.76 477.39 125.42C489.51 115.27 501.53 104.97 513.42 94.5496C516.07 92.2296 516.72 94.4696 517.87 95.8096C519.16 97.3196 521.46 98.6196 518.48 100.91C514.66 103.86 511.24 107.31 507.41 110.24C505.05 112.04 505.31 113.23 507.15 115.2C510.66 118.98 514.04 122.89 517.21 126.96C519.03 129.3 520.3 129.77 522.63 127.5C525.96 124.25 529.82 121.55 533.15 118.3C535.73 115.78 536.73 117.81 538.13 119.42C539.52 121.02 541.22 122.15 538.46 124.45C526.45 134.48 514.58 144.68 502.84 155.02C500.2 157.35 499.28 155.64 497.95 153.96C496.71 152.39 494.45 151.21 497.46 148.89C502.32 145.12 506.87 140.94 511.52 136.9C512.34 136.18 513.5 135.7 513.66 134.35H513.67Z" fill="#010101"/>
<path d="M171.94 53.8902C171.08 52.3702 170.09 50.6502 169.11 48.9202C167.55 46.1802 166.21 43.2802 164.38 40.7302C162.2 37.7002 162.8 36.3002 166.01 34.3602C169.65 32.1602 170.1 34.6102 171.3 36.7102C178.7 49.6902 186.07 62.6902 193.57 75.6202C194.86 77.8402 195.38 79.2702 192.44 80.4502C190.26 81.3302 188.52 83.6402 186.63 79.7402C184.03 74.3702 180.71 69.3602 177.87 64.1102C176.7 61.9402 175.74 61.2902 173.37 62.7902C168.75 65.7202 163.95 68.3902 159.11 70.9402C156.82 72.1502 156.45 73.1802 157.85 75.4702C161.06 80.7002 163.77 86.2502 167.08 91.4102C169.08 94.5302 166.8 95.0002 165.01 96.0602C163.19 97.1402 161.75 98.5402 160.03 95.4202C152.49 81.7602 144.76 68.2002 136.85 54.7402C135.03 51.6402 136.95 51.1102 138.84 50.0602C140.68 49.0402 142.27 47.4402 143.86 50.6902C146.04 55.1602 148.68 59.4002 151.22 63.6902C151.79 64.6502 152.03 66.4302 154.05 65.2402C159.63 61.9602 165.29 58.8102 170.9 55.5802C171.44 55.2702 172.12 54.9902 171.95 53.8802L171.94 53.8902Z" fill="#010101"/>
<path d="M151.37 104.66C147.32 109.36 143.81 112.64 137.25 111.02C129.71 109.15 121.9 108.41 114.09 107.16C113.85 110.64 116.4 112.12 118 114.1C119.78 116.3 121.75 118.34 123.65 120.44C127.037 124.18 126.633 127.674 122.44 130.92C111.3 118.59 100.21 106.18 88.94 93.9405C86.72 91.5305 88.27 90.5705 89.85 89.3805C91.33 88.2605 92.4 85.4805 94.9 88.5005C98.5 92.8405 102.43 96.9005 107.14 102.08C107.48 94.2105 107.81 87.3805 108.07 80.5405C108.39 71.9905 108.38 71.9505 114.85 66.9805C114.85 75.7505 115.2 84.9505 114.7 94.1005C114.46 98.4605 115.56 99.7405 119.82 100.2C130.17 101.34 140.45 103.07 151.38 104.66H151.37Z" fill="#010101"/>
<path d="M291.65 306.82C297.05 309.04 301.69 312.51 306.54 315.63C308.19 316.69 308.3 318.31 308.29 320.02C308.21 334.99 308.06 349.96 308.13 364.93C308.14 367.96 306.93 368.12 304.56 367.68C302.61 367.32 300.6 367.14 298.61 367.17C291.79 367.28 291.69 367.32 291.67 360.62C291.61 342.83 291.65 325.04 291.65 306.82Z" fill="black"/>
<path d="M174.41 524.68C173.35 526.23 172.45 528.12 171.04 529.45C169.73 530.68 168.72 528.85 167.72 528.23C163.77 525.77 159.74 523.38 156.07 520.54C153.42 518.49 152.4 519.31 150.82 521.75C145.98 529.21 145.87 529.14 153.09 533.92C155.17 535.3 157.14 536.91 159.36 537.99C163.08 539.79 162.78 541.78 160.54 544.69C159.17 546.47 158.37 546.5 156.66 545.29C152.58 542.42 148.3 539.84 144.21 536.99C142.48 535.78 141.29 535.67 140.33 537.72C140.26 537.87 140.17 538.01 140.08 538.15C137.59 542.07 132.87 546.2 133.22 549.85C133.58 553.59 140.09 555.2 143.75 557.95C144.81 558.75 145.9 559.56 147.09 560.13C150.04 561.53 149.08 563.15 147.75 565.18C146.42 567.21 145.54 568.41 142.89 566.51C136.82 562.15 130.5 558.12 124.2 554.08C122.25 552.83 121.27 552.02 122.94 549.54C131.69 536.59 140.24 523.5 148.81 510.43C149.8 508.92 150.44 507.78 152.53 509.22C159.24 513.83 166.08 518.27 172.88 522.76C173.58 523.22 174.27 523.63 174.4 524.7L174.41 524.68Z" fill="#010101"/>
<path d="M572.05 442.4C571.98 453.28 562.21 461.39 551.96 459.05C550.08 458.62 547.59 458.52 548.9 455.45C549.77 453.4 548.89 449.56 553.45 451.01C557.14 452.19 560.39 451.15 562.69 447.91C564.64 445.15 565.23 442.13 563.74 438.95C561.54 434.25 556.09 432.46 551.53 435.21C548.12 437.27 545.05 439.87 541.75 442.1C535.99 446 530.1 446.22 525.48 442.85C520.61 439.3 518.81 432.73 520.93 426.2C522.89 420.15 528.78 415.32 534.38 415.05C535.92 414.98 537.16 415.12 536.92 417.02C536.67 419.01 538.58 421.9 534.75 422.54C530.8 423.2 528.67 425.76 527.92 429.52C527.4 432.13 527.95 434.53 530.25 436.19C532.43 437.76 534.71 437.43 536.77 436.03C540.2 433.69 543.51 431.18 546.91 428.79C551.97 425.23 557.32 424.6 562.89 427.49C568.81 430.56 572.09 435.98 572.05 442.4Z" fill="#010101"/>
<path d="M408.78 67.2C408.24 71.61 410.18 74.56 414.17 76.25C418.03 77.89 421.37 76.96 424.03 73.86C426.89 70.52 426.93 66.87 424.42 63.34C422.11 60.09 419.5 57.06 417.15 53.84C412.89 48.01 412.69 42.37 416.45 37.28C419.9 32.6 426.17 30.83 432.65 32.72C438.79 34.51 443.68 40.27 444.05 45.87C444.16 47.58 443.76 48.55 442.01 48.26C440.23 47.96 437.67 50.48 436.77 46.74C435.82 42.85 433.42 40.28 429.27 39.79C426.63 39.48 424.32 40.13 422.77 42.52C421.28 44.82 421.84 47.08 423.27 49.04C425.62 52.25 428.32 55.21 430.7 58.41C435.63 65.06 435.62 71.92 430.82 78.14C426.31 83.99 418.69 86.01 411.54 83.26C404.17 80.42 400.08 74.26 400.82 66.61C401 64.74 400.06 61.57 403.76 61.76C408.23 61.99 409.08 63.02 408.79 67.2H408.78Z" fill="#010101"/>
<path d="M78.73 117.62C65.6 123.88 60.74 131.7 63.55 142.06C66.07 151.36 75.25 158.16 84.33 157.45C95.54 156.58 101.37 149.63 102.93 135.25C110.68 139.03 111.31 140.57 108.21 148.07C103.92 158.43 93.92 165.22 82.94 165.23C71.81 165.23 61.7 158.49 57.52 148.28C53.21 137.74 55.62 125.67 63.6 117.85C70.19 111.39 71.81 111.36 78.73 117.62Z" fill="#010101"/>
<path d="M205.64 583.37C203.11 592.47 202.07 593.2 192.81 591.04C181.13 588.31 173.98 580.88 171.46 569.21C169.23 558.91 174.2 547.76 183.42 541.52C192.43 535.42 204.44 535.27 213.56 541.14C221.3 546.12 221.62 547.33 217.38 555.72C206.76 543.9 198.84 541.45 189.24 546.98C180.97 551.74 177 562.18 180.06 571.13C183.48 581.16 191.91 585.19 205.64 583.37Z" fill="#010101"/>
<path d="M490.76 85.3199C484.29 71.4399 476.64 66.5899 466.04 69.3199C456.55 71.7699 450.11 80.7199 450.74 90.5799C451.4 101.02 458.26 106.8 472.32 108.75C468.45 116.38 466.83 117.01 459.39 113.81C448.24 109.02 441.66 97.2399 443.04 84.5699C444.23 73.6899 453.33 64.2899 465.13 61.7499C476.68 59.2699 488.34 64.7099 494.41 75.0399C497.5 80.2999 492.23 81.7499 490.76 85.3099V85.3199Z" fill="#010101"/>
<path d="M540.22 476.13C548.02 480.99 548.33 482.02 544.22 489.8C539.03 499.65 528.25 505.67 517.36 504.48C505.56 503.19 497.85 496.45 494 485.48C490.3 474.93 493.74 463.23 502.14 456C509.06 450.04 510.62 450.09 517.65 456.77C510.8 458.75 504.88 461.81 501.82 468.57C499.96 472.68 499.66 476.85 500.76 481.23C503.04 490.29 511.75 497.12 520.87 496.86C531.46 496.56 537.83 489.74 540.23 476.13H540.22Z" fill="#010101"/>
<path d="M120.48 482.17C118.9 483.6 117.54 485 116 486.18C114.23 487.54 113.76 485.5 113.01 484.7C110.18 481.66 107.43 478.54 104.77 475.35C103.48 473.8 102.6 473.53 100.79 474.94C92.81 481.17 92.75 481.09 99.44 488.73C100.43 489.85 101.28 491.14 102.43 492.07C105.18 494.31 104.09 495.72 102.02 497.87C99.36 500.64 98.31 498.78 96.73 496.98C93.78 493.61 90.66 487.67 87.7 487.72C84.1 487.79 80.6 492.93 77.07 495.91C75.42 497.3 73.63 498.59 72.24 500.22C69.67 503.22 67.81 502.91 65.46 499.82C63.9 497.78 63.86 496.79 65.82 495.1C77.5 484.97 89.1 474.76 100.63 464.47C102.5 462.8 103.54 462.47 105.32 464.63C109.65 469.89 114.27 474.9 118.76 480.02C119.29 480.63 119.77 481.28 120.47 482.16L120.48 482.17Z" fill="#010101"/>
<path d="M134.17 281.23C134.09 289.35 127.49 295.82 119.46 295.64C111.5 295.46 105.22 289.03 105.34 281.17C105.47 272.74 111.68 266.41 119.76 266.48C127.78 266.55 134.25 273.17 134.17 281.23Z" fill="black"/>
<path d="M464.67 280.69C464.7 272.69 471.46 266.1 479.44 266.3C487.56 266.5 493.66 272.99 493.59 281.33C493.52 289.16 487.03 295.44 479.07 295.36C470.84 295.28 464.65 288.97 464.68 280.69H464.67Z" fill="black"/>
<path d="M310.44 449.8C300.15 451.03 288.66 449.1 277.14 447.95C275.68 447.8 274.21 447.41 272.83 446.91C271.24 446.34 269.53 445.46 269.57 443.57C269.61 441.6 271.56 441.17 273.09 440.55C279.05 438.16 285.36 437.52 291.66 437.41C303.8 437.2 315.92 437.65 327.86 440.15C330.15 440.63 333.28 440.61 333.29 444.11C333.29 447.69 330.27 448.16 327.68 448.59C322.43 449.45 317.14 450.06 310.44 449.81V449.8Z" fill="#010101"/>
<path d="M398.6 347.77C389.8 348.06 380.56 347.57 371.67 344.3C369.49 343.5 366.92 342.83 367.06 339.88C367.19 337 369.73 336.23 371.98 335.74C388.36 332.11 404.59 332.73 420.65 337.61C422.26 338.1 424.04 338.69 423.9 340.78C423.76 342.93 422.5 344.37 420.32 345.03C413.41 347.13 406.24 347.13 398.6 347.78V347.77Z" fill="#010101"/>
<path d="M197.72 347.6C192.78 347.08 186.99 346.55 181.23 345.81C179.29 345.56 177.36 344.93 175.52 344.23C173.68 343.53 171.5 342.65 171.64 340.28C171.77 338.01 173.86 336.89 175.79 336.49C183.42 334.93 191.1 332.97 198.87 333.18C206.46 333.39 214.05 334.77 221.58 335.96C224.55 336.43 228.68 336.95 228.64 340.84C228.6 344.42 224.66 344.69 221.79 345.39C214.16 347.25 206.39 347.73 197.72 347.61V347.6Z" fill="#010101"/>
<path d="M471.67 349.73C479.71 349.71 485.98 355.91 485.95 363.85C485.92 371.53 479.63 377.8 471.95 377.8C464.23 377.8 457.92 371.47 458.02 363.83C458.13 355.66 463.85 349.75 471.66 349.73H471.67Z" fill="#010101"/>
<path d="M126.98 349.86C134.9 349.79 140.94 356.05 140.93 364.3C140.93 371.6 134.62 377.85 127.16 377.98C119.37 378.11 113.09 372.05 112.98 364.29C112.86 356.25 119 349.92 126.98 349.85V349.86Z" fill="black"/>
<path d="M17.03 231.01C17.03 234.09 14.02 237.79 16.61 240.08C18.67 241.9 22.58 241.62 25.67 242.26C35.77 244.35 45.83 246.64 55.98 248.41C59.63 249.05 59.47 250.7 59.03 253.45C58.55 256.43 57.51 257 54.44 256.32C42.11 253.59 29.65 251.4 17.32 248.66C14.11 247.95 13.08 248.68 12.93 251.72C12.86 253.03 12.32 254.31 12.11 255.62C11.69 258.23 11.41 260.08 7.56 259.29C3.76 258.51 4.16 256.94 4.78 254.17C6.59 246.06 8.24 237.91 9.75 229.73C10.19 227.35 11.1 226.43 13.34 227.39C14.99 228.09 18.34 227.13 17.05 230.99L17.03 231.01Z" fill="#010101"/>
<path d="M471.43 261.67C465.04 259.6 459.78 258.17 454.74 256.19C449.78 254.24 448.42 251.38 450.06 246.34C450.92 243.7 450.06 243.39 447.87 242.88C443.07 241.77 439.05 239.57 438.81 233.83C438.63 229.58 440.88 227 444.81 225.72C449.51 224.18 453.45 225.8 457.1 230.84C463.61 239.81 467.61 249.94 471.44 261.68L471.43 261.67Z" fill="#010101"/>
<path d="M376.5 473.59C386.67 467.49 395.91 461.68 405.42 456.36C409.52 454.07 414.17 452.84 418.31 456.87C420.63 459.13 421.65 461.87 420.78 465.01C419.99 467.88 417.65 469.43 414.92 469.74C410.19 470.28 406.27 470.94 404.44 476.6C403.22 480.35 398.82 480.43 395.31 479.46C389.29 477.79 383.37 475.75 376.51 473.58L376.5 473.59Z" fill="#010101"/>
<path d="M222.03 473.57C215.36 476.33 209.24 478.36 202.93 479.68C197.55 480.81 194.88 479.33 192.94 474.06C192.04 471.62 190.79 470.9 188.33 470.74C184.2 470.46 179.74 470.08 178.18 465.2C177.21 462.15 178.16 459.3 180.56 457.06C184.35 453.53 188.52 454.34 192.61 456.23C202.71 460.9 211.69 467.47 222.03 473.58V473.57Z" fill="#010101"/>
<path d="M120.4 258.87C117.65 251.22 112.97 245.11 112.84 237.3C112.77 233.21 113.7 229.88 118.77 230.07C121.04 230.16 121.11 228.9 120.91 227.21C120.69 225.4 120.45 223.58 120.42 221.75C120.38 218.1 121.07 214.72 124.87 213.05C128.09 211.63 131.11 212.25 133.6 214.65C136.48 217.41 137.61 220.85 136 224.62C133.48 230.57 130.7 236.41 128.01 242.28C125.6 247.54 123.17 252.8 120.38 258.86L120.4 258.87Z" fill="#010101"/>
<path d="M127.2 262.39C131.26 250.26 135.43 239.18 142.78 229.62C146.01 225.42 150.34 224.23 154.68 226.11C158.63 227.82 160.75 230.87 159.97 235.2C159.09 240.11 155.42 242.36 150.86 243.08C148.39 243.47 148.04 244.03 148.81 246.52C150.45 251.86 148.71 254.87 143.23 256.84C138.16 258.66 132.75 259.41 127.21 262.38L127.2 262.39Z" fill="#010101"/>
<path d="M478.62 258.13C473.35 246.96 468.16 236.23 463.24 225.39C460.65 219.7 463.15 214.34 468.74 212.68C473.6 211.24 477.38 213.67 477.99 218.71C478.15 220.02 478.09 221.36 478.09 222.69C478.09 226.31 476.36 230.67 483.06 230.51C485.67 230.44 485.98 233.65 486.01 236.08C486.1 244.24 481.44 250.71 478.63 258.13H478.62Z" fill="#010101"/>
<path d="M117.22 343.11C111.56 338.21 106.88 334.56 102.69 330.41C99.18 326.93 98.17 322.66 101.75 318.45C103.36 316.55 102.28 315.49 100.99 314.35C98.71 312.33 97.88 309.75 97.92 306.79C97.97 302.57 100.99 299 104.98 298.47C108.72 297.98 112.09 300.54 113.06 304.92C115.74 316.96 115.91 329.28 117.23 343.12L117.22 343.11Z" fill="#010101"/>
<path d="M226.02 468.54C215.51 461.75 204.91 457.02 196.4 449C193.7 446.45 192.41 443.39 192.85 439.62C193.27 436.07 195.19 433.81 198.6 432.97C201.8 432.18 204.55 433.07 206.33 435.99C207.36 437.68 208.32 439.44 209.07 441.27C209.92 443.34 211.24 444.43 213.5 444.61C218.74 445.03 221.44 448.38 222.62 453.1C223.81 457.85 224.74 462.67 226.01 468.54H226.02Z" fill="#010101"/>
<path d="M372.78 467.6C374.12 462.14 375.39 456.67 376.83 451.24C377.76 447.71 380.15 445.34 383.76 444.87C387.61 444.37 389.48 442.16 390.72 438.78C391.86 435.68 393.93 433.32 397.4 432.67C402.96 431.63 407.54 437.2 405.74 443C404.8 446.04 403.26 448.9 400.51 450.72C391.65 456.59 382.73 462.36 373.83 468.16C373.48 467.97 373.12 467.78 372.77 467.59L372.78 467.6Z" fill="#010101"/>
<path d="M481.64 342.86C483.03 329.67 483.52 317.87 485.48 306.2C486.15 302.19 487.79 299.16 491.91 298.31C495.42 297.59 498.18 299.45 499.86 302.31C501.99 305.94 501.67 309.85 498.83 312.94C496.72 315.23 496.05 316.76 498.26 319.5C500.54 322.33 499.34 325.45 497.34 328.21C493.3 333.78 487.73 337.63 481.65 342.86H481.64Z" fill="#010101"/>
<path d="M275.45 57.2501C267.67 57.7901 267.76 57.7801 267.06 50.0701C265.84 36.6401 264.56 23.2201 263.16 9.80007C262.84 6.75007 262.95 5.19006 266.84 4.74006C271.09 4.25006 270.91 6.28006 271.16 9.16006C272.28 21.5901 273.65 34.0101 274.75 46.4401C274.98 49.0201 275.65 49.9201 278.34 49.4101C280.94 48.9201 283.67 49.1501 286.29 48.7201C289.14 48.2501 290.78 48.2301 291.09 52.0501C291.4 55.8801 289.64 56.0101 286.87 56.1601C283.05 56.3601 279.25 56.8601 275.44 57.2401L275.45 57.2501Z" fill="#020202"/>
<path d="M186.23 441.34C186.1 447.91 179.86 453.66 173.02 453.51C165.29 453.34 160 447.79 160.21 440.05C160.39 433.26 166.28 427.78 173.35 427.83C180.8 427.88 186.39 433.74 186.24 441.34H186.23Z" fill="#010101"/>
<path d="M425.83 453.27C418.9 453.35 412.76 447.75 412.56 441.16C412.34 433.64 417.97 427.74 425.44 427.67C432.8 427.6 438.66 433.23 438.61 440.33C438.56 447.89 433.32 453.19 425.83 453.27Z" fill="black"/>
<path d="M392.06 318.08C402.79 318.22 412.81 319.63 422.72 322.01C425.75 322.74 427 323.99 425.9 327.2C425 329.82 424.39 331.25 420.79 330.29C403.45 325.67 385.93 325.55 368.38 329.29C366.8 329.63 364.95 330.73 364.88 327.8C364.83 325.69 362.29 323.13 366.5 321.8C375.02 319.11 383.75 318.33 392.05 318.07L392.06 318.08Z" fill="#020202"/>
<path d="M230.64 324.59C230.6 329.43 229.36 330.43 224.58 329.35C207.63 325.52 190.64 325.47 173.72 329.4C170.4 330.17 169.61 329.37 168.71 326.35C167.71 323 169.19 322.27 171.77 321.6C190.49 316.68 209.18 316.65 227.84 321.87C229.15 322.24 231.06 322.08 230.64 324.6V324.59Z" fill="#020202"/>
<path d="M151.9 421.4C144.27 419.23 138.01 417.59 131.85 415.66C124.24 413.28 123.5 411.08 127.69 404.25C124.92 402.79 121.83 401.84 119.86 399.15C117.39 395.77 117.04 392.43 120.03 389.23C122.98 386.08 127.65 385.61 130.84 388.08C132.83 389.63 134.41 391.56 135.46 393.88C139.73 403.27 144.52 412.35 151.89 421.41L151.9 421.4Z" fill="#010101"/>
<path d="M124.33 340.66C123.03 329.9 120.84 320.51 121.96 310.86C122.19 308.89 122.63 306.95 123.04 305.01C123.8 301.44 125.84 298.95 129.52 298.33C133.02 297.74 135.61 299.53 137.53 302.28C139.63 305.3 140.02 308.83 137.69 311.55C135.14 314.52 135.65 316.28 137.75 319.28C140.65 323.43 137.69 326.84 134.51 329.49C130.94 332.46 127.11 335.11 124.33 340.67V340.66Z" fill="#010101"/>
<path d="M474.34 340.94C471.92 334.97 468.05 332.34 464.47 329.37C459.2 325 458.76 322.12 462.94 316.9C464.43 315.04 463.36 314.36 462.41 313.29C460.2 310.76 458.96 307.84 460.08 304.57C461.34 300.89 463.85 298.21 468.02 298.07C472.33 297.93 474.7 300.59 475.82 304.45C478.55 313.85 476.66 323.25 475.64 332.63C475.39 334.88 474.94 337.11 474.33 340.93L474.34 340.94Z" fill="#010101"/>
<path d="M447.52 420.38C453.77 412.69 458.03 405.07 461.74 397.14C463.09 394.26 464.77 391.62 466.89 389.27C470.74 385.01 474.82 384.99 478.79 389.15C482.31 392.84 481.9 396.48 477.48 400.14C476.46 400.98 475.4 401.85 474.22 402.39C471.76 403.51 471.28 404.69 473.06 407.04C474.7 409.22 474.1 411.95 471.8 413.08C464.43 416.7 456.56 418.81 447.52 420.37V420.38Z" fill="#010101"/>
<path d="M574.68 287.85C580.44 287.92 586.2 288.02 591.95 288.06C599.17 288.12 598.99 286.72 598.86 294.8C585.55 295.18 572.23 295.67 558.92 295.84C555.66 295.88 554.47 296.77 554.84 300.04C555.1 302.34 554.79 304.7 554.92 307.03C555.07 309.78 554.98 311.54 551.16 311.52C547.32 311.5 547.35 309.69 547.41 306.95C547.53 301.79 547.57 296.62 547.39 291.46C547.3 288.89 548.02 287.98 550.71 288.01C558.7 288.1 566.69 287.92 574.68 287.84V287.85Z" fill="#010101"/>
<path d="M441.17 417.11C439.99 409.86 438.17 403.62 437.91 397.11C437.79 394.1 438.5 391.52 441.51 390.05C445.29 388.19 442.73 384.69 443.37 382.02C444.33 377.99 446.27 375.71 450.49 375.9C454.6 376.09 457.52 377.97 458.08 382.32C458.29 383.93 458.35 385.75 457.83 387.25C454.15 397.82 449.29 407.76 441.17 417.13V417.11Z" fill="#010101"/>
<path d="M157.76 417.55C149.45 407.9 145.01 397.17 140.68 386.41C139.35 383.1 140.6 380.13 143.28 377.96C145.75 375.96 148.61 375.22 151.67 376.66C155.1 378.27 155.88 381.53 155.49 384.67C155.1 387.83 155.09 389.9 158.55 391.35C161.21 392.46 161.16 395.4 160.79 397.95C159.88 404.19 158.87 410.42 157.75 417.55H157.76Z" fill="#010101"/>
<path d="M447.07 220.18C440.65 220.18 435.42 214.97 435.36 208.51C435.3 201.76 440.64 196.16 447.07 196.23C453.75 196.3 458.9 201.67 458.78 208.44C458.67 214.82 453.33 220.17 447.07 220.18Z" fill="#010101"/>
<path d="M163.44 208.68C163.41 215.29 158.27 220.4 151.71 220.35C145.33 220.3 140.08 214.93 140.06 208.46C140.04 201.47 145.06 196.55 152.1 196.67C158.71 196.78 163.47 201.82 163.44 208.68Z" fill="#010101"/>
<path d="M300.55 424.66C311.91 424.3 323.8 426.95 335.75 429.02C337.22 429.27 339.51 428.9 338.89 431.63C338.42 433.72 337.45 435.39 334.79 434.89C331.2 434.22 327.59 433.59 323.99 432.97C306.25 429.91 288.57 429.84 270.99 434.12C268.98 434.61 267.09 435.37 266.47 432.29C265.92 429.52 267.97 429.38 269.65 428.85C279.41 425.76 289.44 424.51 300.54 424.67L300.55 424.66Z" fill="#030303"/>
<path d="M505.99 530.51C504.37 531.98 502.83 533.46 501.2 534.82C499.45 536.29 498.89 534.3 498.18 533.51C487.76 521.86 477.48 510.09 466.96 498.53C464.68 496.03 466.02 494.97 467.83 493.63C469.34 492.51 470.3 489.94 472.84 492.87C483.18 504.81 493.74 516.55 504.22 528.37C504.77 528.99 505.28 529.65 505.99 530.5V530.51Z" fill="#020202"/>
<path d="M177.73 285.7C185.33 284.62 187.27 277.8 191.69 273.57C197.14 268.35 207.3 271.3 210.98 278.8C212.25 281.39 213.51 283.2 216.57 283.62C218.3 283.86 220.3 284.59 221.02 286.43C221.58 287.87 219.99 288.52 219 288.74C216.78 289.22 215 292.33 212.27 289.94C211.02 288.85 209.8 287.69 208.43 286.78C202.75 283.03 196.15 282.07 191.28 286.59C186.2 291.31 182.67 289.2 177.73 285.7Z" fill="#010101"/>
<path d="M396.92 284.01C391.79 283.96 388.38 285.44 385.41 288.1C383.2 290.07 376.41 289.36 375.21 286.85C374.15 284.64 376.44 283.66 377.73 283.52C381.82 283.07 383.52 280.59 385.07 277.16C386.94 273.02 390.77 271.02 395.24 271.22C400.86 271.47 404.95 274.56 407.28 279.6C408.33 281.86 409.14 283.69 412.1 283.63C414.16 283.59 416.52 284.56 416.85 286.56C417.13 288.27 414.53 288.56 413.17 289.38C411.45 290.41 409.84 292.14 407.65 289.57C404.63 286.03 400.6 284.09 396.93 284.02L396.92 284.01Z" fill="#010101"/>
<path d="M247.63 491.85C241.84 491.97 236.46 486.78 236.23 480.86C236 474.78 241.37 469.12 247.38 469.12C253.14 469.12 258.46 474.46 258.59 480.36C258.72 486.08 253.33 491.73 247.64 491.84L247.63 491.85Z" fill="#010101"/>
<path d="M362.49 480.25C362.52 486.43 357.66 491.46 351.61 491.53C345.77 491.59 340.34 486.3 340.29 480.51C340.24 474.38 345.6 468.9 351.6 468.96C357.55 469.01 362.46 474.11 362.49 480.26V480.25Z" fill="#010101"/>
<path d="M312.43 525.909C303.45 529.679 295.26 529.509 286.45 525.909C291.49 521.719 293.9 517.12 293.37 510.84C293.05 507.06 296.36 504.99 299.75 504.51C302.92 504.06 307.03 508.6 306.83 512.15C306.54 517.46 306.78 522.419 312.44 525.919L312.43 525.909Z" fill="#010101"/>
<path d="M282.6 395.25C287.03 392.71 289.08 388.37 291.37 383.98C294.81 377.39 306.02 377.05 309.93 383.48C312.45 387.62 315.45 390.79 319.5 393.25C320.49 393.85 322.99 394.74 321.51 396.36C320.12 397.87 318.01 399.66 315.41 398.33C314.7 397.97 314.19 397.22 313.59 396.64C305.48 388.74 299.83 388.38 291.06 395.67C288.29 397.97 286 399.41 282.59 395.25H282.6Z" fill="#020202"/>
<path d="M198.91 149.52C195.55 152.18 192.9 154.29 190.24 156.4C181.39 163.42 172.5 170.39 163.71 177.48C160.06 180.42 156.04 181.84 151.22 181.56C151.71 179.26 153.52 178.22 154.97 177C164.66 168.9 174.46 160.94 184.1 152.79C188.21 149.32 192.73 148.52 198.9 149.52H198.91Z" fill="#030303"/>
<path d="M330.71 513.78C328.2 514.39 326.15 513.04 324.17 512.02C303.62 501.41 287.64 486.25 277.9 465.01C277.25 463.58 275.41 461.24 277.59 460.33C279.67 459.46 281.91 460.68 283.07 463.34C292.51 485.12 308.56 500.72 329.04 512.12C329.69 512.48 330.61 512.69 330.71 513.79V513.78Z" fill="#050505"/>
<path d="M448.36 181.33C442.06 182 438.13 180.34 434.5 177.39C423.16 168.17 411.74 159.03 400.01 149.59C404.45 148.44 408.78 148.7 412.11 151.36C424.01 160.87 435.62 170.74 448.36 181.33Z" fill="#030303"/>
<path d="M399.28 143.46C395.55 144.2 392.67 144.56 390.1 143.19C380.34 137.97 370.67 132.6 360.4 126.98C364.96 124.95 368.57 125.27 372.32 127.09C381.57 131.58 390.66 136.29 399.27 143.46H399.28Z" fill="#040404"/>
<path d="M199.49 143.97C207.93 136.17 217.86 130.99 227.98 126.2C230.79 124.87 234 125.36 238.41 127.09C224.37 132.35 214.29 143.28 199.5 143.97H199.49Z" fill="#030303"/>
<path d="M187.04 169.96C203.41 155.83 210.04 150.55 219.96 154.19C209.05 159.85 202 171.22 187.04 169.96Z" fill="#030303"/>
<path d="M410.62 169.94C396.19 171.5 389.39 159.45 378.44 154.63C385.81 150.66 399.63 157.4 410.62 169.94Z" fill="#040404"/>
<path d="M300.44 461.83C302.28 462.52 305.55 460.28 306.72 463.23C307.93 466.3 307.79 469.77 305.14 472.5C304.91 472.73 304.79 473.07 304.56 473.3C302.79 475.09 301.86 479.06 299.44 478.49C296.59 477.82 294.8 474.5 293.53 471.54C293.4 471.24 293.26 470.94 293.16 470.62C291.03 463.82 292.59 461.83 300.45 461.83H300.44Z" fill="#020202"/>
<path d="M379.76 147.52C365.95 150.29 358 139.36 346.95 135.09C353.1 131.34 371.24 138.44 379.76 147.52Z" fill="#050505"/>
<path d="M218.74 146.73C228.95 141.35 237.53 131.75 250.85 134.45C240.36 139.09 232.52 150.62 218.74 146.73Z" fill="#040404"/>
<path d="M326.76 460.17C321.74 469.48 316.19 477.87 308.98 485.08C307.88 486.18 306.87 487.92 304.88 486.29C302.84 484.62 304.48 483.31 305.36 482.07C309.86 475.71 314.51 469.46 318.95 463.06C320.82 460.37 323.18 459.58 326.77 460.17H326.76Z" fill="#050505"/>
<path d="M17.27 363.62C17.56 359.95 21.11 356.85 24.74 357.12C28.48 357.4 31.41 360.8 31.17 364.56C30.92 368.34 27.56 371.29 23.81 371.02C20.09 370.76 16.99 367.25 17.28 363.62H17.27Z" fill="#040404"/>
<path d="M574.12 363.86C574.22 367.67 571.21 370.91 567.45 371.03C563.73 371.15 560.38 368.02 560.25 364.31C560.12 360.66 563.33 357.24 567.01 357.11C570.72 356.98 574.01 360.11 574.12 363.86Z" fill="#040404"/>
<path d="M333.29 141.03C343.94 138.53 350.96 145.22 358.35 150.98C347.81 153.21 340.61 146.96 333.29 141.03Z" fill="#070707"/>
<path d="M359.19 158.32C370.44 155.89 376.6 163.07 383.75 168.75C376.58 171.8 370.71 169.3 359.19 158.32Z" fill="#050505"/>
<path d="M239.48 158.44C231.6 164.44 225.51 172.34 214.56 169.51C219.95 162.04 230.26 157.24 239.48 158.44Z" fill="#050505"/>
<path d="M266.56 140.84C257.82 146.66 250.72 153.25 239.1 151.18C247.47 145 254.66 138.61 266.56 140.84Z" fill="#090909"/>
<path d="M290.01 156.04C289.99 156.84 289.84 157.58 289.07 158.03C288.483 150.203 291.993 146.29 299.6 146.29C309.83 146.29 309.87 146.29 309.72 156.71C309.51 171.15 309.24 185.59 308.99 200.02C308.66 199.69 308.33 199.35 308 199.02C307.6 198.45 307.51 197.81 307.52 197.14C307.7 183.4 306.03 169.71 306.55 155.96C306.77 150.03 306.01 149.5 300 149.45C299.34 149.45 298.67 149.45 298.01 149.45C291.39 149.48 291.12 149.7 290 156.04H290.01Z" fill="black"/>
<path d="M264.03 513.49C273.68 509.19 282.44 503.66 290.41 496.95C292.35 495.31 293.54 495.72 294.93 497.28C296.81 499.39 294.33 499.78 293.47 500.46C285.73 506.62 276.99 510.89 267.53 513.71C266.44 514.03 265.32 514.36 264.03 513.48V513.49Z" fill="#0A0A0A"/>
<path d="M224.53 477.67C228.42 477.97 231.03 479.61 231.05 483.71C231.07 487.38 229.12 489.83 225.37 489.81C221.48 489.79 219.23 487.28 219.18 483.48C219.14 480.12 221.04 477.96 224.52 477.66L224.53 477.67Z" fill="#050505"/>
<path d="M242.2 464.77C241.97 468.39 240.3 470.91 236.47 471C232.75 471.09 230.36 468.86 230.31 465.22C230.26 461.76 232.05 459.02 235.99 458.98C239.7 458.94 241.82 460.98 242.2 464.77Z" fill="#050505"/>
<path d="M367.8 483.58C367.95 479.55 370.3 477.59 374.11 477.52C377.71 477.46 379.65 479.8 379.7 483.13C379.76 486.96 377.4 489.43 373.61 489.54C369.94 489.65 367.94 487.36 367.81 483.58H367.8Z" fill="#060606"/>
<path d="M356.65 465.09C356.88 461.04 358.88 459.01 362.62 458.86C366.65 458.7 368.37 461.22 368.43 464.78C368.49 468.47 366.3 470.81 362.6 470.84C358.86 470.87 357.03 468.43 356.65 465.09Z" fill="#030303"/>
<path d="M340.89 153.84C330.68 155.32 323.87 151.57 317.23 145.08C327.2 142.64 333.08 148.89 340.89 153.84Z" fill="#080808"/>
<path d="M281.1 145.19C274.09 150.99 267.49 155.64 257.32 153.98C264.95 148.9 270.99 142.87 281.1 145.19Z" fill="#050505"/>
<path d="M151.81 425.7C155.31 426.01 157.08 427.86 157.03 431.18C156.98 434.65 155.22 437.04 151.59 436.72C148.4 436.44 145.89 434.5 145.99 430.95C146.09 427.38 148.58 425.89 151.81 425.69V425.7Z" fill="#050505"/>
<path d="M441.74 430.46C441.74 427.48 443.81 425.42 447.21 425.43C450.27 425.43 452.5 427.36 452.97 430.57C453.37 433.26 449.92 436.62 446.95 436.7C444.26 436.77 441.87 434.21 441.74 430.47V430.46Z" fill="#050505"/>
<path d="M470.03 343.1C469.71 346.83 467.64 348.87 464.24 348.85C460.95 348.83 458.97 346.57 459.12 343.33C459.28 339.93 461.47 337.89 464.96 337.74C468.74 337.57 469.51 340.32 470.04 343.1H470.03Z" fill="#070707"/>
<path d="M339.55 159.84C348.68 157.33 354.27 162.28 359.89 167.28C353.92 169.7 347.39 167.4 339.55 159.84Z" fill="#070707"/>
<path d="M128.94 343.46C129.3 340.29 130.29 337.72 134.01 337.96C137.43 338.19 139.7 340.22 139.8 343.61C139.89 346.8 137.87 348.99 134.55 349C131.03 349.02 129.18 346.88 128.94 343.45V343.46Z" fill="#050505"/>
<path d="M237.95 168.21C243.86 160.7 250.82 158.08 258.49 160.33C252.73 165.56 246.72 169.37 237.95 168.21Z" fill="#0B0B0B"/>
<path d="M174.91 417.16C174.4 420.53 172.74 422.88 169.43 422.68C166.07 422.48 164 420.17 164 416.71C164 413.39 166.31 412.02 169.28 412.11C172.49 412.21 174.36 414.16 174.91 417.15V417.16Z" fill="#0B0B0B"/>
<path d="M115.98 260.47C115.55 263.64 113.84 265.81 110.63 265.93C107.11 266.06 105.09 263.87 105.03 260.42C104.98 256.99 107.35 255.35 110.46 255.3C113.69 255.25 115.55 257.22 115.98 260.47Z" fill="#090909"/>
<path d="M488.3 254.94C491.61 255.4 493.93 256.96 493.85 260.28C493.77 263.64 491.67 265.97 488.19 265.78C485.05 265.61 483.04 263.47 483.09 260.21C483.14 256.89 485.25 255.27 488.31 254.94H488.3Z" fill="#090909"/>
<path d="M433.05 200.52C432.64 204.03 431.11 206.16 427.69 206.1C424.19 206.04 422.81 203.71 422.74 200.54C422.67 197.13 424.61 195.18 427.88 195.24C431.22 195.3 432.57 197.77 433.05 200.52Z" fill="#070707"/>
<path d="M429.66 422.31C426.2 422.29 424.26 420.63 424.12 417.57C423.95 413.98 426.22 412.07 429.63 411.91C432.62 411.78 434.93 413.3 434.92 416.5C434.91 419.9 432.79 421.88 429.66 422.31Z" fill="#060606"/>
<path d="M176.13 200.65C175.96 203.76 174.86 206.16 171.28 206.25C167.87 206.34 166.05 204.48 166.03 201.13C166.01 197.93 167.62 195.54 170.89 195.39C174.12 195.25 176 197.26 176.14 200.65H176.13Z" fill="#070707"/>
<path d="M143.33 268.41C142.97 271.93 141 273.82 137.72 273.54C134.62 273.27 132.32 271.37 132.6 267.96C132.86 264.82 134.63 262.58 138.16 262.97C141.35 263.32 143.28 265.13 143.33 268.41Z" fill="#060606"/>
<path d="M490.37 355.13C486.52 355 484.86 353.07 484.83 349.79C484.81 346.67 486.52 344.83 489.66 344.75C492.91 344.66 495.08 346.13 495.1 349.66C495.12 353.02 493.14 354.66 490.37 355.13Z" fill="#050505"/>
<path d="M460.74 273.37C457.17 273.1 455.52 271.1 455.67 267.8C455.82 264.39 458.08 262.72 461.24 262.72C464.7 262.72 466.26 265.09 466.19 268.29C466.11 271.73 463.78 273.1 460.74 273.38V273.37Z" fill="#030303"/>
<path d="M114.08 349.58C113.81 353.05 112.52 355.4 109.01 355.32C105.74 355.25 103.78 353.27 103.7 350.01C103.62 346.56 105.84 345.02 109.06 344.94C112.34 344.86 113.63 346.96 114.08 349.57V349.58Z" fill="#070707"/>
<path d="M289.85 232.35V187.71C291.45 190.78 290.97 192.63 290.97 194.4C291.01 214.2 291.01 234 290.97 253.8C290.97 255.55 291.62 257.5 290.05 259.01C289.71 250.13 289.38 241.25 289.84 232.36L289.85 232.35Z" fill="black"/>
<path d="M258.95 167.89C263.48 163.55 268.58 161.96 274.81 163.11C270.3 168.65 265.17 170.2 258.95 167.89Z" fill="#0B0B0B"/>
<path d="M322.65 163.44C328.78 161.8 333.21 163.25 337.31 166.07C338.02 166.56 339.36 167.09 338.63 168.29C338.3 168.83 337.25 169.1 336.49 169.17C331.26 169.68 327.38 166.88 322.64 163.43L322.65 163.44Z" fill="#090909"/>
<path d="M273.45 158.14C277.33 155.64 280.35 153.69 283.51 151.65C283.96 157.26 281.58 158.93 273.45 158.14Z" fill="#1C1C1C"/>
<path d="M324.48 157.8C317.4 159.17 315.08 157.75 314.07 151.46C317.62 153.62 320.73 155.51 324.48 157.8Z" fill="#171717"/>
<path d="M305.02 281.81C307.01 280.59 307.05 278.68 307.02 276.63C306.95 270.12 306.99 263.61 307.91 257.11V283.25C306.7 283.27 305.84 282.57 305.02 281.81Z" fill="black"/>
<path d="M255.3 199.61C259.92 197.72 264.24 195.27 269.38 198.94C263.57 202.01 260.18 202.14 255.3 199.61Z" fill="#F1F1F1"/>
<path d="M307 182.04C304.9 182.99 304.99 184.85 305 186.72C305.01 201.69 304.21 216.72 305.25 231.63C306.18 244.93 305.44 258.19 306.06 271.45C306.26 275.85 305.11 275.95 301.34 274.33C295.91 272 294.48 268.66 293.73 262.71C290.23 234.91 292.94 207.07 292.05 179.27C291.83 172.31 293.63 165.43 293.06 158.43C292.87 156.09 293.08 153.74 291.02 152.05C290.25 150.25 290.17 148.78 292.7 148.58C293.19 148.54 293.69 148.53 294.19 148.57C298.43 148.85 303.78 146.8 306.62 149.43C309.31 151.91 307.46 157.26 307.43 161.32C307.38 168.23 308.11 175.16 307.01 182.04H307Z" fill="black"/>
<path d="M307 182.04C307 172.45 306.89 162.85 307.06 153.26C307.12 150.02 306.05 148.76 302.8 149.01C300 149.22 297.18 149.13 294.37 149.03C292.17 148.95 290.81 149.57 291.01 152.05C290.87 153.43 291.47 155 290.01 156.05C290.01 155.39 290.1 154.71 290 154.06C289.23 149.35 291.03 147.8 295.9 147.93C308 148.25 308.01 148.02 308.01 160.26V199.03C305.83 193.47 307.57 187.69 307.01 182.04H307Z" fill="#040404"/>
<path d="M344.28 199.06C339.29 201.73 335.58 201.91 331.83 200.9C330.76 200.61 328.77 200.61 329.23 198.72C329.56 197.4 330.99 196.75 332.43 196.97C335.96 197.53 339.47 198.2 344.28 199.05V199.06Z" fill="#F4F4F4"/>
<path d="M566.75 220.51C577.54 220.37 586.21 229.03 586.46 240.18C586.69 251 577.65 259.87 566.3 259.95C555.39 260.03 546.68 251.35 546.63 240.35C546.58 229.37 555.42 220.66 566.76 220.51H566.75Z" fill="#FEFEFE"/>
<path d="M522.73 176.36C522.73 165.24 531.54 156.22 542.52 156.09C553.27 155.97 562.48 164.85 562.65 175.5C562.83 186.25 553.05 195.9 542.1 195.77C531.34 195.65 522.72 187.01 522.72 176.35L522.73 176.36Z" fill="#FEFEFE"/>
<path d="M402.93 571.25C402.97 582.01 394.12 590.91 383.35 590.95C372.4 590.99 363.27 581.6 363.36 570.4C363.45 559.72 372.42 550.97 383.28 550.97C394 550.97 402.9 560.15 402.94 571.26L402.93 571.25Z" fill="#FEFEFE"/>
<path d="M232.66 579.29C232.85 567.88 241.71 558.91 252.48 559.22C263.51 559.54 272.08 568.35 271.9 579.17C271.71 590.55 263 599.29 252 599.14C240.99 598.99 232.47 590.25 232.66 579.29Z" fill="#FEFEFE"/>
<path d="M79.33 444.72C79.18 455.61 70.08 464.55 59.14 464.55C48.34 464.55 39.24 455.53 39.39 444.97C39.55 433.93 48.93 424.76 59.93 424.89C70.74 425.02 79.47 433.95 79.32 444.73L79.33 444.72Z" fill="#FEFEFE"/>
<path d="M202.99 40.1499C203.06 29.2999 211.83 20.7599 222.87 20.7999C233.73 20.8399 242.43 29.8699 242.48 41.1299C242.52 51.8099 233.48 60.8999 222.81 60.8999C211.88 60.8999 202.92 51.5199 202.99 40.1399V40.1499Z" fill="#FEFEFE"/>
<path d="M49.24 176.71C60.39 177.08 69.26 186.26 68.93 197.09C68.59 207.89 59.44 216.48 48.6 216.17C37.63 215.86 28.67 206.53 28.96 195.72C29.26 184.84 38.32 176.35 49.24 176.7V176.71Z" fill="#FEFEFE"/>
</g>
<defs>
<clipPath id="clip0_121_389">
<rect width="600" height="609" fill="white"/>
</clipPath>
</defs>
</svg>
