<svg width="665" height="135" viewBox="0 0 665 135" fill="none" xmlns="http://www.w3.org/2000/svg">
<path d="M0.0703125 56.01C1.87031 54.85 1.54031 52.79 1.93031 51.14C8.88031 21.75 33.5303 1.57996 63.7203 1.12996C83.3703 0.829962 103.02 1.15997 122.67 0.969966C126.38 0.929966 127 2.29996 127 5.58996C126.91 46.87 126.88 88.15 127.03 129.43C127.04 133.35 125.74 134.07 122.16 134.04C103.51 133.87 84.8603 134.02 66.2103 133.95C33.5403 133.81 9.59031 114.78 1.72031 82.9C1.40031 81.59 1.80031 79.79 0.0803125 79V56.01H0.0703125Z" fill="#57AF3D"/>
<path d="M664.9 103.98C659.1 106.76 652.97 106.93 646.85 105.78C637.54 104.03 632.17 96.92 632 86.08C631.81 73.59 631.75 61.1 632.04 48.62C632.13 44.58 630.89 43.5 627.09 43.8C625.15 43.95 621.9 45.13 621.31 42.81C620.47 39.54 620.56 35.75 621.36 32.45C621.85 30.47 624.96 31.41 626.77 31.6C630.76 32.01 632.25 30.96 632.05 26.58C631.67 18.16 631.95 18.14 639.7 15.12C641.53 14.4 643.38 13.73 645.93 12.77C645.93 18.27 646.04 23.33 645.88 28.38C645.81 30.73 646.44 31.75 648.93 31.55C651.25 31.37 653.63 31.79 655.92 31.46C660.61 30.78 661.87 32.67 661.62 37.19C661.24 43.88 661.53 43.9 654.52 43.9C648.8 43.9 645.94 46.73 645.94 52.39C645.94 61.71 645.96 71.04 645.94 80.36C645.92 85.35 646.41 90.24 651.36 92.9C656.19 95.5 660.7 93.76 664.92 90.97V103.96L664.9 103.98Z" fill="#1D1D1B"/>
<path d="M233.08 97.09C233.08 107.49 233.02 117.13 233.12 126.78C233.15 129.19 232.72 130.21 229.92 130.28C219.08 130.56 219.08 130.68 219.08 119.93C219.08 92.15 219.17 64.36 218.98 36.58C218.95 32.52 219.84 30.63 224.1 31.4C224.42 31.46 224.76 31.4 225.1 31.4C230.014 31.4 232.624 33.7734 232.93 38.52C233.35 38.79 233.66 38.89 234.15 38.46C252.68 22.06 276.66 29.16 283.11 53.01C286.57 65.84 285.66 78.47 279.92 90.45C271.34 108.36 249.15 112.12 234.79 98.34C234.47 98.03 234.06 97.8 233.08 97.09Z" fill="#1D1D1B"/>
<path d="M506.56 69.4101C506.56 80.8301 506.41 90.64 506.64 100.45C506.72 103.95 505.69 104.95 502.18 104.91C492.56 104.78 492.55 104.94 492.55 95.23C492.55 66.6 492.62 37.9601 492.46 9.33006C492.44 5.60006 493.36 4.56006 497.12 4.65006C506.55 4.87006 506.55 4.67006 506.55 14.0501C506.55 27.0401 506.55 40.02 506.55 53.01C506.55 54.61 506.55 56.21 506.55 59.26C513.22 52.15 519.44 46.4301 524.53 39.8301C529.86 32.9301 536.11 29.9501 544.63 31.3801C546.18 31.6401 547.82 31.4201 550.74 31.4201C546.71 35.6201 543.54 38.9101 540.39 42.2101C534.3 48.5901 528.32 55.0901 522.07 61.3201C519.92 63.4601 519.94 64.67 521.93 66.93C531.49 77.81 540.84 88.87 550.26 99.87C551.42 101.23 552.55 102.63 554.36 104.83C548.07 104.83 542.68 104.79 537.29 104.85C535.01 104.88 534.23 103.04 533.12 101.7C524.55 91.3701 516.05 80.99 506.55 69.43L506.56 69.4101Z" fill="#1D1D1B"/>
<path d="M193.83 97.14C185.36 106.43 175.37 107.73 164.54 105.32C155.24 103.25 149.84 97.27 148.41 87.91C146.96 78.41 149.65 70.43 157.94 64.96C166.23 59.49 175.591 58.68 185.211 58.9C193.521 59.09 194.361 57.62 191.071 49.78C188.651 44.02 183.79 42.37 178.2 42.12C170.25 41.76 163.33 44.69 155.95 50.37C155.95 46.02 156.13 42.77 155.89 39.55C155.72 37.35 156.62 36.22 158.4 35.25C168.5 29.76 179.161 28.22 190.211 31.35C200.001 34.12 204.671 41.51 205.991 51.12C207.821 64.36 206.45 77.69 206.86 90.98C206.92 92.81 206.91 94.64 206.94 96.47C207.02 102.05 204.34 104.83 198.9 104.81C195.774 104.797 194.084 102.24 193.83 97.14Z" fill="#1D1D1B"/>
<path d="M611.42 87.67C611.42 89.91 611.42 91.23 611.42 92.56C611.44 102.36 611.46 102.42 602.13 104.81C594.61 106.74 586.94 107.08 579.35 105.53C563.63 102.32 553.6 90.71 552.02 74.09C551.26 66.09 551.54 58.17 554.62 50.53C560.51 35.88 572.46 28.69 589.07 30C602.02 31.02 611.28 39.98 614.69 54.78C618.64 71.89 618.32 72.3 601.21 72.3C590.89 72.3 580.55 72.56 570.24 72.18C565.5 72 565.42 74.03 566.21 77.51C568.69 88.38 579.14 95.48 591.14 94.45C598.18 93.85 604.61 91.38 611.41 87.67H611.42Z" fill="#1D1D1B"/>
<path d="M476.21 87.84C476.42 88.81 476.54 89.12 476.55 89.43C476.92 102.49 476.34 103.34 463.49 105.64C457.23 106.76 450.85 106.89 444.6 105.58C430.96 102.73 422.16 94.51 418.57 81.03C415.81 70.65 415.91 60.29 419.91 50.18C425.44 36.19 437.17 29.07 453.11 29.93C466.4 30.65 475.32 38.62 479.35 53.27C480.73 58.29 480.93 63.42 481.35 68.56C481.62 71.9 480.31 72.38 477.42 72.35C463.26 72.23 449.1 72.44 434.95 72.2C430.96 72.13 430.56 73.66 431.21 76.89C433.81 89.96 447.13 97.18 462.1 93.56C466.95 92.39 471.48 90.42 476.23 87.83L476.21 87.84Z" fill="#1D1D1B"/>
<path d="M293.98 67.71C293.92 49.21 303.87 34.95 319.43 31.03C342.45 25.22 362.33 40.28 363.87 64.67C365.07 83.65 355.07 99.94 339.21 104.83C317.53 111.52 295.64 95.97 294 72.69C293.88 71.04 293.98 69.37 293.98 67.7V67.71Z" fill="#1D1D1B"/>
<path d="M411.67 91.52C411.67 93.57 411.67 95.2 411.67 96.84C411.67 102.44 408.92 105.54 403.42 106.14C387.59 107.87 378.91 100.39 378.71 84.58C378.55 72.44 378.6 60.29 378.73 48.14C378.76 45.14 378.33 43.48 374.73 43.8C372.53 43.99 368.89 45.02 368.25 43.13C367.19 39.99 367.45 36.19 367.98 32.8C368.36 30.4 371.14 31.43 372.69 31.62C377.42 32.2 379.67 30.66 378.66 25.72C377.43 19.69 380.579 16.6685 386 14.5C388.5 13.5 390 13 392.63 12.5C392.63 17.85 392.82 22.99 392.63 27.86C392.52 30.61 393.27 31.95 396.2 31.54C397.18 31.4 398.19 31.52 399.19 31.52C408.57 31.52 408.43 31.52 408.17 40.78C408.09 43.63 406.98 44 404.59 43.96C400.8 43.89 395.73 42.71 393.54 44.65C390.94 46.94 392.79 52.13 392.72 56.06C392.57 63.88 392.65 71.7 392.68 79.52C392.74 93.2 398.23 96.88 411.67 91.53V91.52Z" fill="#1D1D1B"/>
<path d="M58.0503 54.2C58.0503 46.34 57.7103 39.68 58.1303 33.07C58.8103 22.38 68.8503 13.99 80.1703 14.14C91.8303 14.3 100.76 22.56 101.09 33.9C101.36 43.21 101.26 52.53 101.16 61.85C101.13 64.61 101.49 66.54 104.86 65.92C108.7 65.22 110.56 66.97 111.53 70.6C112.33 73.61 113.75 76.45 115.16 80.06C111.25 80.06 107.84 80.21 104.45 80.01C101.96 79.87 101.04 80.73 100.63 83.22C100.1 86.47 99.1803 89.71 98.0203 92.81C92.6803 107.09 82.9803 116.25 67.2903 117.51C52.1003 118.74 39.9603 112.86 31.3503 100.31C25.1003 91.2 23.2003 80.85 23.6303 69.93C23.7603 66.71 24.9203 65.84 28.0903 65.86C46.2303 66.01 64.3803 65.81 82.5203 66.03C86.3203 66.07 87.3003 65.01 87.1703 61.31C86.8903 53 87.1403 44.67 87.0503 36.36C86.9903 30.44 84.1603 27.18 79.4103 27.28C74.9503 27.37 71.1703 30.87 72.0303 36.04C73.8603 47.08 64.3703 48.44 58.0503 54.21V54.2Z" fill="#FEFEFE"/>
<path d="M271.01 67.6899C270.93 74.6199 269.58 81.4099 265.51 87.3799C259.11 96.7699 247.08 97.5099 239.41 89.0799C230.24 78.9899 230.15 57.6299 239.24 47.3499C247.47 38.0399 261.34 39.6599 267.25 50.6399C270.08 55.8999 270.94 61.6099 271.01 67.6899Z" fill="#FEFEFE"/>
<path d="M184.91 69.63C194.12 69.54 194.27 69.7 193.24 78.89C191.95 90.36 181.08 97.67 170.57 94.14C165.69 92.5 162.63 89.22 162.19 84.06C161.77 79.1 164.14 75.45 168.47 73.05C173.6 70.21 179.22 69.78 184.91 69.64V69.63Z" fill="#FEFEFE"/>
<path d="M583.57 61.2999C578.42 61.2999 573.26 61.2999 568.11 61.2999C566.53 61.2999 565.37 61.4099 565.58 58.9499C566.34 49.7899 574.29 41.7899 583.56 41.2499C592.65 40.7199 600.35 47.3299 601.91 56.7899C602.45 60.0799 601.91 61.6599 598.04 61.3799C593.24 61.0399 588.4 61.2999 583.58 61.2999H583.57Z" fill="#FEFEFE"/>
<path d="M448.71 61.3C443.56 61.3 438.41 61.28 433.26 61.31C431.6 61.32 430.57 61.28 430.72 58.93C431.3 49.75 439.79 41.46 449.18 41.23C458.35 41 465.83 47.82 467.05 57.27C467.42 60.13 467.13 61.58 463.66 61.37C458.69 61.08 453.7 61.3 448.71 61.3Z" fill="#FEFEFE"/>
<path d="M307.95 67.78C308.12 60.97 309.86 54.31 314.44 48.67C321.91 39.47 334.85 39.21 342.71 48.02C351.81 58.23 351.97 77.81 343.04 88.17C335.05 97.44 320.45 96.63 313.32 86.44C309.49 80.96 308.06 74.71 307.95 67.77V67.78Z" fill="#FEFEFE"/>
<path d="M62.8602 80.06C69.5102 80.06 76.1602 80.2 82.8102 80C85.9602 79.9 86.4002 81.2 85.9402 83.86C84.0402 94.65 73.8502 103.3 63.0902 103.16C52.3802 103.03 40.7802 93.3 39.1502 83.22C38.7602 80.82 39.4302 79.98 41.9202 80.02C48.9002 80.15 55.8802 80.06 62.8602 80.06Z" fill="#57AF3D"/>
</svg>
