<svg width="562" height="72" viewBox="0 0 562 72" fill="none" xmlns="http://www.w3.org/2000/svg">
<path d="M276.22 3.50973C276.92 0.959729 278.75 0.21973 281.1 0.72973C283.41 1.22973 284.22 2.97973 284.21 5.20973C284.2 20.2697 284.46 35.3397 284.11 50.3897C283.85 61.7097 274.54 70.8297 263.18 71.3697C256.08 71.7097 248.96 71.4897 241.84 71.5297C239.79 71.5397 238.05 70.9297 237.38 68.8697C236.69 66.7597 237.17 64.9297 239.37 63.8697C246.64 63.4497 253.93 63.7297 261.2 63.6097C262.11 63.5997 263.18 64.1297 263.94 63.1297C273.15 59.8997 275.7 56.2397 275.7 46.3097C275.7 34.0497 275.7 21.7897 275.73 9.52973C275.73 8.17973 275.91 6.83972 276.01 5.48972C276.8 6.32972 276.47 7.37973 276.48 8.32973C276.5 20.0297 276.5 31.7297 276.49 42.9297C276.6 43.9197 277.34 43.1997 276.9 43.4397C276.85 43.4697 276.53 43.0997 276.53 42.8897C276.49 32.8397 276.55 22.7897 276.48 12.7397C276.46 9.65972 276.88 6.54972 276.2 3.48972L276.22 3.50973Z" fill="#2A3A54"/>
<path d="M351.02 63.4099C353.74 64.0299 354.62 65.8498 354.16 68.3998C353.68 71.0298 351.67 71.5499 349.38 71.5499C337.16 71.5499 324.95 71.5898 312.73 71.5398C308.97 71.5198 307.6 70.0999 307.59 66.2699C307.55 46.1299 307.55 25.9798 307.59 5.83984C307.59 1.48984 309.58 0.0498445 313.62 1.19984C314.78 1.98984 315.03 3.19985 315.07 4.46985C315.72 22.8598 315.4 41.2498 315.45 59.6398C315.45 60.2798 315.36 60.8798 314.66 61.1498C313.23 60.1398 313.26 58.5998 313.25 57.1198C313.21 43.9498 313.24 30.7798 313.22 17.6098C313.21 31.1298 313.2 44.6598 313.22 58.1798C313.22 59.0598 313.27 59.9198 313.98 60.5898C315.33 61.2598 314.73 63.7698 316.91 63.6498C328.29 63.4898 339.66 63.9599 351.03 63.4099H351.02Z" fill="#293A54"/>
<path d="M113.5 14.7204C112.78 16.0204 112.42 17.5504 110.75 18.4804C110.67 17.5304 110.58 16.5504 110.47 15.3204C110.13 15.6904 109.91 15.8204 109.91 15.9504C109.89 31.7504 109.88 47.5604 109.87 63.3604C109.87 63.7304 109.97 64.1404 109.87 64.4704C109.48 65.6904 111.61 67.7704 109.8 67.9004C107.58 68.0604 108.42 65.4504 108.42 64.0204C108.36 47.7204 108.35 31.4104 108.41 15.1104C108.42 12.0604 107.13 9.03037 108.36 5.96037C108.65 5.24037 108.05 3.89038 109.3 3.91038C110.56 3.92038 110.57 5.18037 110.62 6.19037C110.7 7.70037 109.1 9.28037 110.76 10.7204C111.23 11.1304 111.59 14.3404 112.38 10.8404C112.76 11.1204 113.14 11.4004 113.52 11.6804C113.52 12.6904 113.52 13.7004 113.52 14.7104L113.5 14.7204Z" fill="#2B3954"/>
<path d="M221.48 1.25957H218.54C218.39 2.45957 219.98 1.53957 219.84 2.74957C208.69 2.74957 197.54 2.80957 186.38 2.68957C184.22 2.66957 182.42 0.47957 179.99 1.16957C180.67 0.43957 181.57 0.579573 182.42 0.579573C194.67 0.569573 206.92 0.559573 219.17 0.579573C219.96 0.579573 220.94 0.209572 221.46 1.24957L221.48 1.25957Z" fill="#2A3C53"/>
<path d="M315.84 64.0102C314.48 63.4402 314.27 62.3002 314.34 61.0202C315.48 60.0502 315.07 58.7202 315.07 57.5302C315.1 43.8902 315.46 30.2302 314.89 16.6102C314.68 11.5102 315.13 6.2302 313.6 1.2002C316.39 2.0502 315.92 4.4002 315.92 6.4202C315.95 25.2802 315.92 44.1402 315.92 63.0002C316.27 63.3702 316.24 63.7102 315.83 64.0002L315.84 64.0102Z" fill="#293C52"/>
<path d="M106.07 2.62988C106.06 24.9199 106.04 47.2099 106.03 69.4899C104.92 68.3599 105.3 66.9199 105.3 65.6099C105.28 45.9099 105.29 26.2099 105.32 6.50989C105.32 5.18989 104.94 3.74988 106.07 2.63988V2.62988Z" fill="#2C3F55"/>
<path d="M220.7 63.3497C219.91 64.1997 218.87 63.9996 217.89 63.9996C207.91 63.9996 197.94 63.9397 187.96 64.0497C185.55 64.0797 184.66 63.3597 184.71 60.8797C184.85 54.4697 184.76 48.0596 185.5 41.6396C185.5 47.5796 185.47 53.5196 185.53 59.4496C185.54 60.7296 184.94 62.2397 186.4 63.2097C197.83 63.2497 209.26 63.2996 220.69 63.3396L220.7 63.3497Z" fill="#2D394E"/>
<path d="M64.86 63.05C64.19 64.35 62.95 63.9901 61.89 63.9901C47.09 64.0101 32.29 64.0101 17.5 63.9901C16.53 63.9901 15.48 64.19 14.75 63.26C31.46 63.19 48.16 63.11 64.87 63.04L64.86 63.05Z" fill="#2D384D"/>
<path d="M315.84 64.0098C315.87 63.6798 315.9 63.3398 315.93 63.0098C326.14 63.0698 336.35 63.1198 346.56 63.1998C348.05 63.2098 349.53 63.3398 351.02 63.4098C349.83 64.4198 348.41 63.9898 347.09 63.9898C336.67 64.0298 326.26 64.0098 315.84 64.0098Z" fill="#2B384C"/>
<path d="M415.44 63.3698C414.65 64.2198 413.6 64.0098 412.62 64.0098C403.76 64.0198 394.89 64.0098 386.03 64.0098C385.05 64.0098 384 64.2098 383.25 63.2998C393.98 63.0398 404.71 62.9898 415.43 63.3698H415.44Z" fill="#2A364B"/>
<path d="M263.95 63.1402C264.55 64.2502 263.61 63.9802 263.13 64.0002C255.49 64.2902 247.82 63.4002 240.2 64.5602C239.97 64.6002 239.66 64.1202 239.38 63.8802C240.86 62.5602 242.66 63.2502 244.3 63.2202C250.85 63.1102 257.4 63.1502 263.95 63.1402Z" fill="#2C384C"/>
<path d="M222.21 7.83028C221.82 6.00028 223.82 4.99027 223.78 3.28027C224.73 5.30027 224.43 6.90028 222.21 7.83028Z" fill="#2A3C53"/>
<path d="M107.39 70.8102C108.7 70.9802 109.97 69.9202 111.29 70.7102C110.02 72.0702 108.71 71.6802 107.39 70.8102Z" fill="#2C3F55"/>
<path d="M64.86 63.0499C64.86 44.5199 64.86 25.9799 64.86 7.44987C64.86 6.32987 64.81 5.19987 64.93 4.09987C65.17 1.90987 66.57 0.799873 68.66 0.609873C70.81 0.419873 72.29 1.52987 72.93 3.48987C73.27 4.51987 73.21 5.69987 73.21 6.80987C73.22 26.3399 73.23 45.8699 73.21 65.3999C73.21 70.5199 72.2 71.5499 67.11 71.5499C46.78 71.5699 26.45 71.5499 6.13001 71.5499C4.01001 71.5499 1.74 71.7399 0.610005 69.3499C-0.549995 66.8999 0.780006 65.0799 2.31001 63.3199C14.92 48.8899 27.52 34.4499 40.13 20.0099C40.46 19.6399 40.79 19.2699 41.13 18.8999C43 16.9099 45.2 16.1799 47.36 18.1599C49.46 20.0799 49.14 22.3999 47.36 24.4599C40.94 31.8999 34.48 39.3199 28.04 46.7499C24.04 51.3599 20.01 55.9299 16.09 60.5999C15.48 61.3199 14.03 61.8099 14.73 63.2699C14.84 63.3299 14.95 63.4299 15.06 63.4299C31.49 63.8799 47.92 63.5799 64.35 63.5699C64.52 63.5699 64.69 63.2399 64.85 63.0499H64.86Z" fill="#2A3A54"/>
<path d="M415.44 63.3705C418.14 63.9205 419.22 65.6906 418.71 68.2505C418.23 70.7005 416.4 71.5806 413.99 71.5806C401.64 71.5506 389.28 71.5605 376.93 71.5605C373.68 71.5605 372.12 69.9305 372.12 66.7206C372.12 46.3106 372.12 25.8906 372.12 5.48055C372.12 2.30055 373.58 0.580551 376.86 0.580551C389.21 0.580551 401.57 0.600547 413.92 0.560547C416.7 0.560547 418.74 1.67055 418.82 4.50055C418.91 7.51055 416.93 8.89055 413.96 8.89055C403.98 8.89055 393.99 9.03055 384.01 8.82055C380.93 8.76055 380.23 9.76055 380.34 12.6105C380.55 17.8305 380.56 23.0706 380.34 28.2906C380.22 31.1206 380.89 32.1305 383.97 32.0605C393.32 31.8405 402.69 31.9805 412.05 32.0005C413.29 32.0005 414.56 32.0205 415.75 32.3105C417.83 32.8205 418.96 34.3705 418.86 36.4205C418.74 38.6405 417.42 40.2006 415.07 40.2906C411.58 40.4305 408.08 40.3606 404.59 40.3706C397.6 40.3906 390.61 40.4606 383.62 40.3706C381.36 40.3406 380.24 40.7505 380.34 43.4205C380.56 49.0105 380.55 54.6206 380.34 60.2206C380.25 62.5905 381.17 63.3305 383.26 63.2905C389.16 64.0705 395.09 63.5606 401.01 63.6006C405.82 63.6306 410.64 64.0005 415.44 63.3605V63.3705Z" fill="#2A3A53"/>
<path d="M443.96 36.1403C443.96 26.3103 443.96 16.4803 443.96 6.65031C443.96 1.82031 445.12 0.610305 449.8 0.590305C456.54 0.560305 463.28 0.530305 470.01 0.590305C479.62 0.690305 487.58 6.65031 489.76 15.2803C492.11 24.5503 488.34 33.0603 479.49 37.8203C477.31 38.9903 476.99 39.7403 478.43 41.8503C483.36 49.0303 488.03 56.3803 492.87 63.6203C494.55 66.1303 495.56 68.6003 492.71 70.8203C490.57 72.4903 487.99 71.4803 485.94 68.3803C479.64 58.8303 473.35 49.2703 467.08 39.6903C464.19 35.2803 465.48 32.5403 470.78 31.7303C478 30.6203 482.42 25.8903 482.02 19.6903C481.61 13.3303 476.43 8.98031 469.1 8.90031C464.48 8.85031 459.86 9.02031 455.25 8.83031C452.71 8.72031 452.16 9.64031 452.17 12.0303C452.26 29.9503 452.22 47.8703 452.22 65.7903C452.22 67.6503 452.44 69.5903 450.54 70.8203C449.16 71.7003 447.66 71.7703 446.25 71.0803C444.34 70.1403 443.91 68.3703 443.92 66.3703C443.95 56.2903 443.94 46.2103 443.94 36.1303L443.96 36.1403Z" fill="#2A3A54"/>
<path d="M221.48 1.26057C222.25 1.94057 223.01 2.61057 223.78 3.29057C224.51 5.24057 222.79 6.34056 222.21 7.84056C220.92 9.15056 219.27 8.90057 217.68 8.90057C208.21 8.90057 198.74 8.99056 189.28 8.84056C186.64 8.80056 185.87 9.60056 185.94 12.1806C186.11 17.7706 186.11 23.3606 185.94 28.9506C185.86 31.4106 186.64 32.0706 189.07 32.0406C198.54 31.9106 208 31.9906 217.47 32.0006C218.47 32.0006 219.49 31.9106 220.45 32.1106C222.76 32.5806 224.37 33.9006 224.26 36.4206C224.15 38.9106 222.56 40.2406 220.13 40.3606C217.77 40.4806 215.4 40.4006 213.03 40.4006C205.06 40.4006 197.08 40.4806 189.11 40.3706C186.69 40.3306 185.82 41.0406 185.96 43.5306C186.32 50.0906 185.51 56.6706 186.41 63.2206C185.87 63.4306 185.29 63.2806 185.27 62.7406C185.04 55.8806 185.19 49.0306 185.14 42.9106C184.74 43.7806 185.18 45.5406 185.15 47.2306C185.08 51.8206 185.15 56.4106 185.12 61.0006C185.12 62.4606 185.12 63.7106 187.18 63.6706C198.35 63.4606 209.53 64.0106 220.7 63.3606C223.38 63.8506 224.55 65.5906 224.14 68.1306C223.75 70.5706 221.96 71.5606 219.53 71.5606C207.08 71.5406 194.64 71.5606 182.19 71.5506C178.93 71.5506 177.45 69.7806 177.45 66.6306C177.45 46.2706 177.45 25.9106 177.47 5.55057C177.47 3.66057 177.61 1.74056 180 1.18056C182.51 0.190565 184.86 1.58057 187.3 1.66057C197.34 1.96057 207.4 1.17056 217.45 1.92056C218.37 1.99056 219.92 0.620561 221.48 1.27056V1.26057Z" fill="#2A3A54"/>
<path d="M529.03 71.5402C524.29 71.5402 519.54 71.5102 514.8 71.5502C511.87 71.5702 509.77 70.4502 509.86 67.3202C509.94 64.2402 512.1 63.1802 514.98 63.1902C523.47 63.2102 531.95 63.2102 540.44 63.1902C547.91 63.1602 553.29 58.3702 553.15 51.9102C553.02 45.4502 547.58 40.7102 540.29 40.6302C536.3 40.5902 532.3 40.6002 528.33 40.2602C517.45 39.3102 509.63 30.7202 509.77 20.1002C509.91 9.69021 518.3 1.07022 529.13 0.650217C536.61 0.360217 544.11 0.600218 551.59 0.580218C554.35 0.580218 556.36 1.66021 556.39 4.59021C556.43 7.79021 554.2 8.73022 551.35 8.75022C544.36 8.79022 537.37 8.76022 530.38 8.94022C523.09 9.13022 517.86 14.2202 518.06 20.6802C518.26 27.2002 523.65 31.9502 530.9 32.0102C535.39 32.0502 539.88 31.8402 544.35 32.5102C554.58 34.0502 561.98 43.0202 561.43 53.2602C560.91 62.9802 552.58 71.0602 542.49 71.4302C538 71.6002 533.51 71.4602 529.01 71.4602C529.01 71.4902 529.01 71.5202 529.01 71.5502L529.03 71.5402Z" fill="#2A3A54"/>
<path d="M113.5 14.7199C113.56 32.1699 113.6 49.6099 113.7 67.0599C113.71 68.9199 112.95 70.0499 111.3 70.7099C110 70.8999 108.71 71.3699 107.4 70.8099C106.43 70.8999 105.96 70.4699 106.04 69.4899C105.98 68.9999 105.93 69.6299 105.92 69.1399C105.67 47.0799 105.63 25.0299 105.94 2.96988C105.94 2.46988 106.01 3.11988 106.07 2.62988C106.9 0.629881 108.66 0.569883 110.44 0.569883C117.55 0.569883 124.67 0.49988 131.78 0.58988C141.35 0.70988 148.94 6.81988 151.26 16.1099C153.36 24.5099 149.36 33.3699 141.05 37.6499C138.26 39.0799 138.57 40.1099 140 42.2299C144.82 49.3299 149.46 56.5499 154.23 63.6899C155.91 66.2099 157.01 68.8199 153.93 70.7999C150.98 72.6999 148.93 70.9999 147.21 68.3499C141 58.7399 134.64 49.2199 128.37 39.6399C125.48 35.2199 126.77 32.5199 132.07 31.7299C139.17 30.6699 143.87 25.6999 143.44 19.7299C142.98 13.3999 137.7 8.95989 130.48 8.90989C125.86 8.86989 121.24 9.04988 116.63 8.83988C114.32 8.73988 113.45 9.54988 113.51 11.6999C112.65 11.9599 112.42 13.8399 111.21 12.9199C109.51 11.6199 108.97 9.70988 109.19 7.58988C109.24 16.8299 109.08 26.0799 109.11 35.3299C109.14 44.7899 109.11 54.2499 109.11 63.7099C109.11 48.7499 109.11 33.7899 109.11 18.8299C109.11 17.8399 109.02 16.8299 109.26 15.8499C109.41 15.2499 110.28 14.4699 110.43 14.8499C111.69 18.1799 112.49 14.4499 113.49 14.7199H113.5Z" fill="#2A3A54"/>
<path d="M276.22 3.50977C276.98 4.16977 276.89 5.05976 276.89 5.92976C276.89 18.3598 276.89 30.7798 276.88 43.2098C276.88 43.6598 276.74 44.1198 276.02 44.5498C276.02 31.5398 276.02 18.5298 276.02 5.50977C275.69 4.80977 275.84 4.14977 276.22 3.50977Z" fill="#293B4E"/>
<path d="M314.34 37.9301C314.34 45.0101 314.37 52.0801 314.29 59.1601C314.29 59.7101 315.2 60.9601 313.6 60.9701C312.5 60.9701 312.12 60.2401 312.11 59.2401C312.11 58.8701 312.1 58.5001 312.1 58.1201C312.1 44.3401 312.08 30.5601 312.13 16.7801C312.13 15.6801 311.56 13.8201 313.36 13.8701C314.71 13.9101 314.33 15.6401 314.34 16.7001C314.37 23.7801 314.36 30.8501 314.36 37.9301H314.34Z" fill="#293C52"/>
</svg>
