<?xml version="1.0" encoding="UTF-8"?><svg id="Layer_2" xmlns="http://www.w3.org/2000/svg" viewBox="0 0 834 241.6"><defs><style>.cls-1{fill:#fe6601;}</style></defs><g id="Layer_1-2"><path class="cls-1" d="M338.5.6c29.8,2.6,51.8,22,49.4,53.4-1.4,18.7-9.9,26.7-25.4,34.5s-1.9-.5-1.4,2.1c21.3,2,40.1,21,42,42.5,3.5,40.6-29.6,55.8-64.4,57.5-21.5,1.1-43.9-.9-65.5,0V.6c21.2,1.4,44.6-1.8,65.5,0ZM300,81.6h27.5c5.9,0,16.7-3.9,21.4-7.6,12.6-9.9,13.6-36.5-1.5-44.3-2.9-1.5-11.9-4.1-14.9-4.1h-32.5v56ZM300,164.6h47.5c4.6,0,16.7-5.4,19.9-9.1,8.4-9.4,7.9-30.7-1.4-39.5-3.7-3.5-15.7-8.5-20.5-8.5h-45.5v57Z"/><path class="cls-1" d="M26,.6v70c7.1-3.4,13.6-6.6,21.6-7.9,38.6-6.3,68.7,18.8,71.4,57.4,5.2,73.1-63.5,83.6-119,64.5V.6h26ZM26.1,164.4c34.2,12.5,67.9.7,65.8-40.4-1.8-36.5-37.2-48.8-65.5-29.5l-.4,69.9Z"/><path class="cls-1" d="M150.5,64.6l39,72,36-72h26.5l-87.5,177h-25c-.1,0-1.9-1.4-1.1-2l36.5-74.5c-16.9-33.7-35.6-66.5-51.9-100.5h27.5Z"/><path class="cls-1" d="M454,190.6h-25v-126h25v26c13.5-18.9,26.3-35.6,52-24.5,2.6,1.1,13.1,7.1,12.9,9.8s-11.3,17.4-13.3,21.7c-10.3-8.9-23.4-14.1-35.8-5.8s-15.7,17.8-15.7,25.3v73.5Z"/><path class="cls-1" d="M687,69.6v25.5c0,.4-1.4,1.6-2.4,1.4s-6.8-4.1-9.1-4.9c-11.7-4.5-22.2-6.3-34.7-3.7-43.3,9.1-42.4,71.5,1.8,79.6,16.8,3.1,30.7-1.7,46.4-6.9v24.5c-37.5,17.7-92.2,5-104.3-38.7-17.2-62.5,48.7-102.3,102.3-76.8Z"/><rect class="cls-1" x="713" y=".6" width="25" height="190"/><path class="cls-1" d="M823,64.6l-52,57.5,63,68.5h-33.5c-21-21.4-41.3-44.2-61.3-66.6l1.9-3.9,51.5-55.5h30.5Z"/><path class="cls-1" d="M558,190.6h-25v-126h24.5c2.2,0,.5,2.3.5,2.5v123.5Z"/><rect class="cls-1" x="533" y="19.6" width="25" height="25"/></g></svg>