<?xml version="1.0" encoding="UTF-8"?> <svg xmlns="http://www.w3.org/2000/svg" width="300" height="75" fill="#000000" style="&#10;"><g clip-path="url(#clip0)"><path d="M35.297 0h10.281v48.725H30.375L10.406 8.28v40.444H0V0h15.969l19.328 38.35V0zm19.969 48.725V14.61h10.562v34.115H55.266zm-.344-39.972V.063h11.266v8.69H54.922zM75.64 20.75c0-.141 0-3.84-.204-6.202h10.126l.28 5.132c1-1.559 3.86-5.935 11.704-5.935 7.062 0 10.062 4.046 10.984 6.407.781 2.078 1 3.841 1 10.186v18.388H98.75V27.55c0-1.416 0-2.629-.578-3.7-.781-1.48-2.422-2.896-5.125-2.896-2.281 0-4.344 1.008-5.484 2.63-.641.88-1.282 2.565-1.282 5.179v19.962H75.656V20.749h-.015l-.001.001zm50.406 13.476c0 2.22 0 9.1 7.344 9.1 2.64 0 5.28-.945 6.28-4.723h9.626c-.14 1.622-.5 4.518-3.422 7.415-2.64 2.63-7.344 3.983-12.625 3.983-3.063 0-8.906-.551-12.688-4.25-3.28-3.228-4.64-7.81-4.64-13.272 0-5.526 1.422-12.122 7.484-16.105 2.781-1.763 6.203-2.834 10.125-2.834 5.14 0 11.266 1.873 14.547 8.218 2.438 4.644 2.281 9.65 2.14 12.468h-24.171zm13.406-6.265c0-1.559-.14-7.62-6.281-7.62-4.64 0-6.563 3.637-6.781 7.62h13.062zm40.469 20.293c-3.422.881-6.484 1.086-8.203 1.086-10.625 0-10.625-6.345-10.625-9.163V21.49h-6.922v-6.596h6.922V8.218l10.484-3.637v10.312h8.547v6.596h-8.547v15.366c.063 3.1.063 5.069 4.781 5.069 1.563 0 2.282-.079 3.563-.205v6.535zm15.734-14.028c0 2.22 0 9.1 7.344 9.1 2.64 0 5.281-.945 6.281-4.723h9.625c-.14 1.622-.5 4.518-3.422 7.415-2.64 2.63-7.343 3.983-12.625 3.983-3.062 0-8.906-.551-12.687-4.25-3.281-3.228-4.64-7.81-4.64-13.272 0-5.526 1.421-12.122 7.484-16.105 2.78-1.763 6.203-2.834 10.14-2.834 5.125 0 11.266 1.873 14.547 8.218 2.422 4.644 2.281 9.65 2.14 12.468h-24.187zm13.406-6.265c0-1.559-.14-7.62-6.28-7.62-4.641 0-6.563 3.637-6.782 7.62h13.063-.001zm38.97-1.213c-.141-1.212-.563-6.265-4.641-6.265-4.985 0-5.563 7.147-5.563 10.847 0 1.889.203 7.95 2.64 10.453 1 1.008 2.079 1.15 2.86 1.15 1.14 0 4.422-.473 4.844-6.534h10.406c-.14 2.63-.5 6.738-4.64 10.044-2.563 2.094-5.782 3.164-10.266 3.164-4.781 0-8.984-1.007-12.266-4.518-3.14-3.448-4.562-7.95-4.562-13.413 0-15.507 12.047-17.648 16.828-17.648 6.703 0 14.625 3.51 14.687 12.736l-10.328-.016h.001zM266.265.063h10.484v19.27c1.203-1.622 3.844-5.117 10.406-5.117 5.344 0 8.766 2.503 10.485 4.581 1.28 1.685 2.359 4.786 2.359 9.241v20.687h-10.5V28.369c0-1.968 0-7.415-5.906-7.415-3 0-6.781 1.606-6.781 6.943l.062 20.828H266.25V.063h.016-.001z" fill="#000000"></path></g><g clip-path="url(#clip1)" fill="#000000"><path d="M2.887 74.795L0 62.705h2.5l1.82 8.303 2.21-8.303h2.904l2.12 8.444 1.854-8.444h2.457L12.93 74.79h-2.589l-2.41-9.033-2.4 9.037H2.886zM21.256 72.006l2.307.388c-.299.849-.768 1.493-1.408 1.932-.64.444-1.441.666-2.405.666-1.522 0-2.648-.5-3.382-1.493-.576-.798-.866-1.804-.866-3.02 0-1.45.38-2.588 1.14-3.407.758-.823 1.718-1.233 2.878-1.233 1.3 0 2.328.431 3.083 1.293.755.861 1.113 2.179 1.08 3.953h-5.8c.016.687.204 1.22.558 1.604.358.383.802.571 1.335.571.362 0 .67-.098.917-.299.247-.196.435-.516.563-.955zm.132-2.341c-.017-.67-.188-1.181-.52-1.531a1.587 1.587 0 00-1.203-.525c-.508 0-.926.184-1.254.555-.328.366-.49.87-.486 1.5h3.463zM30.766 68.71l-2.103-.38c.235-.844.644-1.471 1.22-1.88.576-.406 1.433-.61 2.572-.61 1.032 0 1.804.123 2.307.366.508.243.861.554 1.066.93.205.375.311 1.066.311 2.073l-.025 2.703c0 .768.038 1.34.11 1.702.073.367.214.76.419 1.177h-2.29a8.187 8.187 0 01-.222-.682 4.93 4.93 0 00-.081-.273 4.184 4.184 0 01-1.271.865c-.452.192-.93.29-1.442.29-.9 0-1.612-.243-2.132-.733s-.78-1.109-.78-1.855c0-.495.119-.934.354-1.322a2.32 2.32 0 01.993-.892c.427-.204 1.04-.388 1.843-.541 1.083-.205 1.834-.393 2.251-.567v-.23c0-.444-.11-.764-.328-.952-.222-.188-.635-.286-1.245-.286-.414 0-.734.082-.964.243-.235.163-.418.444-.563.854zm3.1 1.88a14.62 14.62 0 01-1.411.354c-.644.137-1.062.273-1.263.405-.302.214-.452.486-.452.815 0 .324.12.605.363.84s.55.354.925.354c.418 0 .815-.136 1.194-.414.282-.209.465-.465.555-.767.06-.196.09-.576.09-1.13v-.457zM40.332 74.795h-2.316v-8.76h2.154v1.246c.366-.589.7-.977.993-1.165a1.821 1.821 0 011.003-.281c.529 0 1.036.145 1.526.435l-.716 2.022c-.397-.248-.76-.376-1.096-.376-.324 0-.601.09-.823.269-.226.179-.401.503-.533.968-.128.47-.192 1.446-.192 2.934v2.708zM49.458 72.006l2.308.388c-.299.849-.768 1.493-1.408 1.932-.64.444-1.441.666-2.405.666-1.523 0-2.649-.5-3.382-1.493-.576-.798-.866-1.804-.866-3.02 0-1.45.38-2.588 1.139-3.407.759-.823 1.719-1.233 2.879-1.233 1.3 0 2.328.431 3.083 1.293.755.861 1.113 2.179 1.079 3.953h-5.804c.017.687.204 1.22.558 1.604.359.383.802.571 1.335.571.363 0 .67-.098.917-.299.256-.196.444-.516.567-.955zm.133-2.341c-.017-.67-.188-1.181-.52-1.531a1.587 1.587 0 00-1.203-.525c-.508 0-.926.184-1.254.555-.329.366-.49.87-.486 1.5h3.463zM64.82 70.351l2.367.751c-.362 1.318-.968 2.299-1.808 2.938-.845.64-1.915.96-3.212.96-1.603 0-2.925-.55-3.957-1.646-1.032-1.096-1.548-2.597-1.548-4.5 0-2.013.52-3.573 1.556-4.686 1.04-1.114 2.405-1.672 4.099-1.672 1.48 0 2.678.435 3.603 1.309.55.516.964 1.258 1.237 2.226l-2.414.576c-.145-.627-.439-1.122-.895-1.484-.452-.363-1.007-.546-1.655-.546-.896 0-1.625.32-2.18.964-.558.644-.835 1.684-.835 3.126 0 1.527.273 2.618.823 3.267.55.648 1.262.972 2.145.972.648 0 1.207-.205 1.672-.618.465-.406.797-1.054 1.002-1.937zM68.262 70.292c0-.768.187-1.514.567-2.235a3.91 3.91 0 011.612-1.65c.695-.38 1.471-.568 2.328-.568 1.327 0 2.41.431 3.259 1.293.844.861 1.27 1.948 1.27 3.262 0 1.326-.426 2.422-1.283 3.292-.853.87-1.932 1.305-3.228 1.305-.802 0-1.57-.183-2.295-.545a3.74 3.74 0 01-1.663-1.595c-.38-.7-.567-1.553-.567-2.56zm2.375.123c0 .87.205 1.536.619 1.996.413.46.92.691 1.526.691s1.113-.23 1.523-.69c.41-.461.614-1.13.614-2.014 0-.857-.205-1.518-.614-1.978-.41-.461-.917-.691-1.523-.691-.605 0-1.113.23-1.526.69-.414.461-.619 1.126-.619 1.996zM78.625 66.035h2.137v1.195c.763-.93 1.671-1.395 2.73-1.395.558 0 1.048.115 1.458.346.413.23.75.58 1.015 1.049.383-.47.801-.815 1.245-1.05.444-.23.921-.345 1.424-.345.644 0 1.186.132 1.634.392.443.26.776.644.998 1.152.158.375.239.977.239 1.812v5.6h-2.316v-5.002c0-.87-.081-1.43-.239-1.68-.213-.33-.546-.496-.99-.496-.323 0-.63.099-.916.299-.286.196-.49.486-.619.87-.128.384-.187.985-.187 1.808v4.205h-2.316v-4.802c0-.853-.043-1.403-.124-1.65a1.053 1.053 0 00-.384-.555c-.174-.12-.409-.183-.703-.183-.359 0-.678.098-.964.29a1.58 1.58 0 00-.614.832c-.124.362-.188.963-.188 1.803v4.257H78.63v-8.752h-.004zM93.377 74.795v-12.09h2.316v4.354c.716-.814 1.56-1.22 2.537-1.22 1.066 0 1.949.388 2.649 1.16.699.772 1.049 1.881 1.049 3.327 0 1.497-.354 2.648-1.067 3.454-.712.806-1.578 1.212-2.593 1.212a3.19 3.19 0 01-1.48-.376 3.565 3.565 0 01-1.257-1.109v1.288h-2.154zm2.299-4.567c0 .908.144 1.578.43 2.013.401.614.934.925 1.6.925.511 0 .946-.217 1.305-.657.358-.435.541-1.126.541-2.064 0-1.002-.183-1.723-.546-2.166a1.72 1.72 0 00-1.394-.666c-.555 0-1.015.218-1.386.649-.363.43-.55 1.083-.55 1.966zM103.8 64.85v-2.145h2.316v2.145H103.8zm0 9.945v-8.76h2.316v8.756H103.8v.004zM115.972 74.795h-2.316v-4.47c0-.946-.051-1.556-.15-1.833a1.291 1.291 0 00-.481-.648 1.383 1.383 0 00-.806-.23c-.401 0-.764.11-1.079.328-.32.222-.538.512-.657.874-.12.363-.179 1.032-.179 2.013v3.966h-2.316v-8.76h2.154v1.288c.763-.989 1.727-1.484 2.887-1.484.512 0 .976.094 1.403.278.422.183.742.417.96.703.217.286.366.61.452.973.085.362.128.882.128 1.556v5.446zM123.042 72.006l2.308.388c-.299.849-.768 1.493-1.408 1.932-.639.444-1.441.666-2.405.666-1.522 0-2.648-.5-3.382-1.493-.576-.798-.866-1.804-.866-3.02 0-1.45.38-2.588 1.139-3.407.759-.823 1.719-1.233 2.879-1.233 1.3 0 2.328.431 3.083 1.293.755.861 1.113 2.179 1.079 3.953h-5.804c.017.687.205 1.22.558 1.604.359.383.802.571 1.335.571.363 0 .67-.098.917-.299.256-.196.444-.516.567-.955zm.133-2.341c-.017-.67-.188-1.181-.521-1.531a1.586 1.586 0 00-1.202-.525c-.508 0-.926.184-1.254.555-.328.366-.491.87-.486 1.5h3.463zM135.146 74.795h-2.154v-1.288c-.358.5-.78.875-1.266 1.118a3.268 3.268 0 01-1.472.367c-1.006 0-1.868-.406-2.584-1.216-.717-.81-1.075-1.94-1.075-3.395 0-1.484.35-2.614 1.049-3.386.7-.772 1.582-1.16 2.649-1.16.976 0 1.825.405 2.537 1.22v-4.35h2.316v12.09zm-6.184-4.567c0 .934.128 1.612.388 2.03.375.605.896.908 1.565.908.533 0 .985-.226 1.361-.682.375-.452.558-1.13.558-2.034 0-1.007-.183-1.732-.546-2.171a1.72 1.72 0 00-1.394-.666c-.55 0-1.011.218-1.382.657-.371.44-.55 1.088-.55 1.958zM136.306 74.795l4.132-6.307-3.744-5.779h2.853l2.422 3.885 2.376-3.885h2.827l-3.761 5.873 4.133 6.218h-2.943l-2.678-4.18-2.687 4.18h-2.93v-.005z"></path></g><defs><clipPath id="clip0"><path fill="#000000" d="M0 0h300v50H0z"></path></clipPath><clipPath id="clip1"><path fill="#000000" transform="translate(0 62.5)" d="M0 0h147.548v12.5H0z"></path></clipPath></defs></svg> 