<svg width="1242" height="354" viewBox="0 0 1242 354" fill="none" xmlns="http://www.w3.org/2000/svg">
<g clip-path="url(#clip0_121_353)">
<path d="M1241.04 90.1799C1239.97 91.1299 1239.36 92.4099 1238.56 93.5499C1215.83 125.91 1193.12 158.29 1170.38 190.65C1169.42 192.01 1168.94 193.33 1168.94 195.04C1169 217.1 1168.98 239.16 1168.97 261.22C1168.97 264.2 1169.38 263.85 1166.26 263.86C1160.74 263.88 1155.22 263.86 1149.71 263.86C1147.26 263.86 1147.5 263.97 1147.5 261.68C1147.5 245.13 1147.5 228.59 1147.5 212.04C1147.5 206.28 1147.46 200.53 1147.53 194.77C1147.55 193.33 1147.18 192.18 1146.36 191.02C1123.39 158.34 1100.44 125.64 1077.49 92.9399C1076.82 91.9799 1076.16 91.0099 1075.25 89.6899H1077.71C1084.35 89.6899 1090.99 89.7399 1097.62 89.6599C1099.21 89.6399 1100.18 90.0899 1101.12 91.4599C1118.62 116.76 1136.18 142.01 1153.72 167.27C1153.81 167.4 1153.9 167.53 1153.99 167.66C1155.87 170.37 1155.87 170.29 1159.16 170.35C1160.49 170.38 1161.15 169.82 1161.84 168.82C1168.36 159.34 1174.92 149.89 1181.46 140.43C1192.69 124.2 1203.95 108 1215.11 91.7199C1216.2 90.1299 1217.34 89.6099 1219.2 89.6399C1226.47 89.7399 1233.75 89.6799 1241.03 89.6799V90.1599L1241.04 90.1799Z" fill="#000100"/>
<path d="M0 172.68C0.83 171.74 0.29 170.6 0.46 169.56C0.63 168.52 0.1 167.38 0.93 166.44C1.73 167.17 1.7 168.16 1.71 169.11C1.75 174.05 1.75 178.99 1.71 183.93C1.71 184.88 1.73 185.87 0.93 186.6C0.13 185.74 0.61 184.68 0.46 183.72C0.32 182.76 0.81 181.7 0 180.84V172.69L0 172.68Z" fill="#EAEAEA"/>
<path d="M171.8 0.45C171.8 0.3 171.8 0.15 171.8 0H181.88C181.87 0.15 181.88 0.31 181.88 0.46C178.52 1.7 175.15 1.72 171.79 0.45H171.8Z" fill="#E0E0E0"/>
<path d="M861.43 353.04H857.11C856.96 352.76 857.01 352.52 857.26 352.33C858.6 351.75 859.94 351.75 861.28 352.33C861.53 352.52 861.58 352.76 861.43 353.04Z" fill="#323332"/>
<path d="M854.71 353.04C854.74 352.89 854.74 352.73 854.71 352.58C855.12 352.15 855.58 352.15 856.08 352.39C856.3 352.58 856.33 352.8 856.16 353.04H854.72H854.71Z" fill="#BEBEBE"/>
<path d="M856.15 353.04C856.12 352.91 856.1 352.78 856.09 352.65C856.41 352.32 856.73 352.32 857.06 352.63C857.09 352.76 857.1 352.9 857.11 353.04H856.15Z" fill="#5F605F"/>
<path d="M861.43 353.04C861.4 352.89 861.41 352.74 861.46 352.59C861.73 352.31 862.05 352.29 862.39 352.45C862.51 352.58 862.54 352.71 862.51 352.84C862.47 352.97 862.43 353.04 862.4 353.04H861.44H861.43Z" fill="#717171"/>
<path d="M862.39 353.04C862.36 352.89 862.37 352.75 862.43 352.61C862.73 352.32 863.05 352.32 863.36 352.59C863.35 352.74 863.34 352.89 863.36 353.04H862.4H862.39Z" fill="#CDCDCD"/>
<path d="M171.8 0.45043C175.16 0.45043 178.52 0.45043 181.89 0.46043C188.58 0.94043 195.28 1.34043 201.94 2.30043C219.94 4.90043 237.15 10.0704 253.5 18.0204C300.11 40.6804 333.91 81.8104 347.18 131.91C351.9 149.75 353.7 167.91 352.61 186.29C347.97 265.02 293.95 326.04 225.35 345.67C205.18 351.44 184.58 353.67 163.67 351.94C120.26 348.35 82.8499 331.41 52.0499 300.56C27.1899 275.66 11.2899 245.8 4.22994 211.27C2.55994 203.11 1.70994 194.86 0.939941 186.59C0.939941 179.87 0.939941 173.15 0.939941 166.44C1.61994 159.93 2.15994 153.41 3.26994 146.95C7.99994 119.41 18.4599 94.2604 35.2199 71.9004C61.0999 37.3604 95.1399 15.0304 137.17 4.97043C148.15 2.34043 159.33 1.04043 170.61 0.55043C171.01 0.53043 171.4 0.48043 171.8 0.44043V0.45043Z" fill="#000100"/>
<path d="M989.68 189.65C1006.94 214.42 1024.01 238.92 1041.06 263.39C1040.63 264.16 1040.01 263.85 1039.52 263.85C1032.88 263.87 1026.24 263.8 1019.61 263.91C1017.82 263.94 1016.78 263.42 1015.74 261.9C1000.13 238.99 984.43 216.14 968.83 193.23C967.7 191.58 966.55 190.99 964.57 191C950.42 191.09 936.26 191.05 922.11 191.05C921.63 191.05 921.14 191 920.67 191.05C919.37 191.2 919.07 190.61 919.09 189.39C919.15 184.2 919.14 179 919.09 173.8C919.09 172.71 919.33 172.11 920.55 172.25C921.1 172.31 921.67 172.26 922.23 172.26C941.66 172.26 961.1 172.29 980.53 172.24C989.97 172.22 998.25 169.06 1005.01 162.39C1019.25 148.34 1016.92 125.69 1000.16 114.76C994.9 111.33 989.06 109.57 982.86 108.87C979.44 108.48 976.01 108.41 972.56 108.41C950.73 108.43 928.9 108.44 907.06 108.38C905.22 108.38 903.98 108.98 902.68 110.21C901.05 111.75 900.4 113.33 900.4 115.62C900.47 164.06 900.46 212.5 900.46 260.94C900.46 262.874 899.49 263.84 897.55 263.84C891.95 263.84 886.35 263.81 880.76 263.86C879.6 263.86 878.9 263.66 879.11 262.32C879.17 261.93 879.11 261.52 879.11 261.12C879.11 204.93 879.11 148.73 879.11 92.5405C879.11 90.6338 880.09 89.6771 882.05 89.6705C913 89.6705 943.95 89.6605 974.9 89.6705C984.23 89.6705 993.42 90.7305 1002.22 94.0005C1018.59 100.09 1029.8 111.25 1034.03 128.39C1039.21 149.4 1031.16 169.51 1012.14 181.16C1006.09 184.87 999.52 187.29 992.65 188.94C991.8 189.14 990.94 189.33 989.69 189.61L989.68 189.65Z" fill="#000100"/>
<path d="M519.36 211.62C520.16 209.81 520.81 208.36 521.45 206.92C523.3 202.77 525.2 198.63 526.97 194.44C527.49 193.21 528.15 192.75 529.48 192.84C531.39 192.96 533.32 192.87 535.24 192.87C549.16 192.87 563.07 192.87 576.99 192.87C577.85 192.87 578.73 193.03 579.59 192.72C579.7 191.93 579.2 191.35 578.92 190.72C568.33 167.31 557.71 143.91 547.17 120.48C546.5 119 545.71 118.68 544.16 118.49C541.14 118.12 539.96 119.44 538.8 122.06C518.12 168.67 497.31 215.21 476.58 261.8C475.91 263.3 475.2 263.96 473.45 263.93C466.98 263.8 460.5 263.88 453.94 263.88C453.72 262.85 454.35 262.15 454.69 261.41C466.66 235.38 478.65 209.36 490.63 183.35C504.65 152.91 518.7 122.48 532.65 92.01C533.49 90.18 534.46 89.63 536.38 89.67C541.73 89.8 547.1 89.79 552.45 89.67C554.08 89.63 554.78 90.2 555.44 91.63C565.56 113.76 575.76 135.86 585.93 157.97C601.77 192.41 617.61 226.84 633.44 261.28C633.79 262.05 634.36 262.77 634.32 263.68C633.76 263.99 633.19 263.86 632.65 263.86C626.17 263.86 619.69 263.82 613.22 263.9C611.72 263.92 611 263.45 610.4 262.07C603.43 246.13 596.35 230.24 589.43 214.28C588.53 212.21 587.49 211.55 585.25 211.56C564.22 211.65 543.19 211.62 522.15 211.62C521.36 211.62 520.56 211.62 519.36 211.62Z" fill="#000100"/>
<path d="M686.02 176.76C686.02 148.7 686.02 120.64 686.02 92.5797C686.02 89.1497 685.7 89.7097 688.98 89.7097C732.33 89.6997 775.68 89.6997 819.03 89.7097C822.33 89.7097 821.9 89.2697 821.92 92.6697C821.94 97.7097 821.92 102.74 821.92 107.78C821.92 110.04 822.11 109.94 819.67 109.94C815.91 109.94 812.15 109.94 808.39 109.94C776.96 109.94 745.52 109.95 714.09 109.91C712.29 109.91 710.8 110.17 709.72 111.71C709.49 112.03 709.19 112.32 708.88 112.56C707.7 113.45 707.36 114.58 707.36 116.08C707.42 129.35 707.4 142.62 707.4 155.89C707.4 159.41 707.44 162.93 707.38 166.44C707.36 167.64 707.67 168.53 708.54 169.39C711.4 172.22 711.36 172.25 715.33 172.25C742.92 172.25 770.52 172.25 798.11 172.25C801.06 172.25 800.79 171.87 800.79 174.94C800.79 179.42 800.81 183.89 800.79 188.37C800.78 191.29 801.19 190.99 798.06 190.99C786.14 190.99 774.23 190.99 762.31 190.99C746.15 190.99 730 191.01 713.84 190.95C712.19 190.95 710.89 191.24 709.88 192.59C709.55 193.03 709.13 193.43 708.7 193.78C707.68 194.59 707.36 195.59 707.37 196.9C707.43 205.61 707.4 214.33 707.4 223.04C707.4 235.67 707.4 248.3 707.4 260.93C707.4 261.49 707.36 262.05 707.4 262.61C707.47 263.52 707.15 263.88 706.19 263.87C699.87 263.84 693.55 263.84 687.23 263.87C686.31 263.87 685.91 263.55 685.98 262.61C686.03 261.97 685.98 261.33 685.98 260.69C685.98 232.71 685.98 204.73 685.98 176.75L686.02 176.76Z" fill="#000100"/>
<path d="M955.75 340.7C958.86 344.51 961.83 348.15 964.83 351.82C963.77 352.22 958.93 352.51 958.25 352.25C957.62 352 957.3 351.41 956.9 350.92C954.66 348.21 952.39 345.52 950.23 342.76C949.46 341.77 948.63 341.33 947.39 341.46C946.44 341.56 945.47 341.46 944.51 341.48C942.64 341.5 942.63 341.51 942.62 343.5C942.61 345.9 942.56 348.3 942.64 350.69C942.69 351.93 942.33 352.33 941.04 352.35C936.77 352.41 936.77 352.47 936.77 348.1C936.77 339.23 936.77 330.36 936.77 321.5C936.77 319.23 936.37 319.18 939.13 319.22C943.52 319.28 947.92 319.06 952.31 319.37C953.93 319.48 955.48 319.85 956.91 320.57C960.77 322.51 963.07 325.53 963.16 330.01C963.24 334.52 961.29 337.82 957.31 339.93C956.89 340.15 956.46 340.35 955.73 340.71L955.75 340.7Z" fill="#000100"/>
<path d="M718.36 352.31C716.6 352.31 714.87 352.29 713.15 352.31C712.29 352.32 712.13 351.66 711.88 351.1C711.15 349.42 710.43 347.73 709.75 346.03C709.45 345.27 709 344.94 708.14 344.95C703.66 344.99 699.19 344.99 694.71 344.95C693.82 344.95 693.43 345.35 693.14 346.07C692.45 347.77 691.7 349.45 691.05 351.16C690.71 352.05 690.19 352.37 689.25 352.34C687.68 352.28 686.11 352.32 684.42 352.32C684.55 351.1 685.08 350.29 685.44 349.44C689.56 339.93 693.7 330.42 697.87 320.93C698.36 319.81 698.46 319.12 697.42 318.12C695.36 316.14 695.57 312.62 697.59 310.81C699.71 308.91 703.47 308.99 705.5 310.97C707.46 312.88 707.54 316.31 705.38 318.25C704.29 319.23 704.61 319.92 705.03 320.9C709.23 330.55 713.43 340.21 717.61 349.86C717.92 350.56 718.43 351.21 718.35 352.31H718.36Z" fill="#000100"/>
<path d="M863.36 352.59C863.05 352.59 862.74 352.6 862.43 352.61C862.11 352.61 861.78 352.59 861.46 352.58C859.99 352.59 858.53 352.61 857.06 352.62C856.74 352.62 856.41 352.63 856.09 352.64C855.63 352.62 855.17 352.59 854.71 352.57C852.16 351.79 849.82 350.66 847.79 348.89C841.52 343.43 839.93 334.17 844.09 327.13C848.44 319.77 857.39 316.61 865.27 319.64C873.1 322.66 877.62 330.86 875.95 339.16C874.68 345.46 870.84 349.64 864.95 352.03C864.43 352.24 863.9 352.4 863.37 352.58L863.36 352.59Z" fill="#000100"/>
<path d="M801.05 335.78C801.05 330.83 801.08 325.88 801.03 320.94C801.02 319.81 801.16 319.16 802.55 319.2C806.86 319.34 811.17 319.08 815.48 319.37C816.69 319.45 817.87 319.66 818.99 320.08C823.39 321.74 826.17 324.72 826.56 329.58C826.95 334.39 825.22 338.16 821.02 340.68C819.21 341.76 817.24 342.4 815.14 342.51C813.07 342.62 810.99 342.6 808.92 342.64C807.01 342.68 807 342.68 806.98 344.66C806.96 346.58 806.98 348.49 806.98 350.41C806.96 352.29 806.95 352.35 805.21 352.31C803.88 352.28 802.19 352.91 801.31 351.95C800.54 351.11 801.09 349.5 801.08 348.24C801.05 344.09 801.07 339.94 801.07 335.79L801.05 335.78Z" fill="#000100"/>
<path d="M735.45 335.77C735.45 330.89 735.45 326.02 735.45 321.14C735.45 319.26 735.48 319.23 737.23 319.23C743.95 319.22 750.67 319.21 757.38 319.23C759.13 319.23 759.13 319.27 759.16 321.14C759.193 323.52 758.037 324.71 755.69 324.71C751.45 324.71 747.21 324.76 742.97 324.68C741.69 324.66 741.32 325.08 741.38 326.31C741.47 328.22 741.4 330.15 741.41 332.06C741.42 334.16 741.43 334.18 743.45 334.18C747.29 334.19 751.13 334.18 754.97 334.18C756.93 334.18 756.93 334.2 756.95 336.08C756.983 338.427 755.817 339.6 753.45 339.6C749.93 339.6 746.41 339.64 742.89 339.58C741.75 339.56 741.36 339.89 741.38 341.06C741.45 344.34 741.38 347.61 741.42 350.89C741.43 351.88 741.16 352.27 740.09 352.34C735.43 352.62 735.44 352.66 735.44 347.99C735.44 343.91 735.44 339.84 735.44 335.76L735.45 335.77Z" fill="#010201"/>
<path d="M978.55 319.22C980.31 319.22 982.04 319.26 983.77 319.21C984.81 319.18 985.1 319.94 985.5 320.61C988.05 324.85 990.59 329.09 993.14 333.32C993.47 333.86 993.81 334.39 994.13 334.9C994.94 334.9 995.03 334.23 995.3 333.8C997.91 329.51 1000.55 325.23 1003.07 320.89C1003.81 319.62 1004.66 319.08 1006.11 319.2C1007.44 319.32 1008.79 319.22 1010.22 319.22C1010.35 320.2 1009.76 320.71 1009.42 321.27C1005.77 327.36 1002.12 333.44 998.41 339.49C997.67 340.7 997.32 341.9 997.37 343.32C997.45 345.79 997.33 348.27 997.42 350.74C997.47 352.05 996.98 352.46 995.76 352.33C994.42 352.19 992.74 352.87 991.81 352.04C990.86 351.18 991.34 349.46 991.49 348.17C992.07 343.33 990.65 339.21 987.88 335.23C984.84 330.85 982.27 326.14 979.53 321.55C979.14 320.9 978.5 320.34 978.55 319.22Z" fill="#000100"/>
<path d="M887.94 319.23C890.16 319.23 891.89 319.27 893.62 319.22C894.66 319.19 894.94 319.98 895.34 320.64C897.81 324.74 900.26 328.84 902.74 332.94C903.15 333.61 903.42 334.38 904.15 334.96C904.77 334.72 904.96 334.08 905.26 333.58C907.83 329.36 910.42 325.15 912.9 320.87C913.64 319.6 914.5 319.08 915.95 319.21C917.28 319.33 918.62 319.23 919.98 319.23C920.17 320.24 919.56 320.75 919.22 321.31C915.58 327.4 911.92 333.48 908.21 339.53C907.48 340.73 907.08 341.91 907.13 343.34C907.22 345.81 907.12 348.29 907.17 350.76C907.19 351.81 906.98 352.31 905.75 352.36C901.25 352.53 901.01 352.57 901.31 348.12C901.63 343.38 900.49 339.33 897.8 335.39C894.35 330.33 891.38 324.94 887.92 319.23H887.94Z" fill="#000100"/>
<path d="M864.15 315.67C862.1 315.7 860.56 314.34 860.48 312.43C860.39 310.44 862 308.86 864.1 308.88C866.12 308.9 867.62 310.33 867.63 312.27C867.65 314.22 866.19 315.65 864.15 315.68V315.67Z" fill="#030403"/>
<path d="M857.55 312.32C857.52 314.24 856.01 315.66 853.98 315.67C851.84 315.67 850.3 314.15 850.39 312.12C850.48 310.22 852.05 308.82 854.06 308.87C856.06 308.92 857.57 310.42 857.55 312.32Z" fill="#030403"/>
<path d="M169.37 334.79C77.24 331.3 7.89003 247.91 19.24 158.5C19.99 158.41 20.54 158.9 21.14 159.2C48.3 173.07 75.46 186.94 102.62 200.81C104.06 201.543 105.417 201.37 106.69 200.29C110.22 197.29 113.76 194.28 117.28 191.27C117.69 190.92 118.21 190.67 118.39 190.08C117.85 189.44 117.07 189.21 116.36 188.85C88.79 174.74 61.21 160.63 33.63 146.54C32.62 146.02 31.72 145.68 31.98 144.12C32.19 142.85 32.84 142.65 33.83 142.37C51.06 137.62 68.29 132.84 85.52 128.07C133.74 114.72 181.97 101.38 230.19 88.0402C245.65 83.7602 261.12 79.5202 276.57 75.2202C279.47 74.4102 279.08 74.5202 280.66 76.6202C280.48 77.3902 279.76 77.6902 279.23 78.1402C228.06 121.63 176.89 165.1 125.71 208.58C123.757 210.24 123.217 212.23 124.09 214.55C138.97 254.04 153.86 293.53 168.74 333.02C168.93 333.53 169.1 334.06 169.36 334.8L169.37 334.79Z" fill="#F8F9FC"/>
<path d="M26.35 126.52C37.82 88.3503 71.84 43.6203 127.54 25.5203C183.78 7.25027 242.28 22.6503 280.11 56.0203C278.07 57.1603 46.55 121.48 26.36 126.51L26.35 126.52Z" fill="#F8F9FC"/>
<path d="M312.11 93.7803C335.64 129.94 345.39 186.52 322.65 239.34C298.32 295.87 246.59 326.87 201.8 333C238.61 253.18 275.33 173.53 312.1 93.7803H312.11Z" fill="#F8F9FC"/>
<path d="M291.93 90.0195C293.31 91.2862 293.643 92.6929 292.93 94.2395C257.85 170.32 222.77 246.4 187.66 322.47C187.27 323.31 187.3 324.67 185.77 324.54C183.78 324.37 183.99 324.61 183.26 322.67C175.14 301.09 167 279.53 158.86 257.96C153.91 244.82 148.95 231.69 144.01 218.55C143.12 216.19 142.85 216.62 145 214.8C193.37 173.71 241.74 132.62 290.12 91.5295C290.72 91.0195 291.34 90.5195 291.94 90.0295L291.93 90.0195Z" fill="#F8F9FC"/>
<path d="M942.62 329.95C942.82 328.5 942.29 326.66 942.89 324.87C944.7 324.49 946.54 324.74 948.36 324.7C950.03 324.67 951.71 324.59 953.34 325.18C955.87 326.09 957.37 327.91 957.41 330.24C957.45 332.66 955.93 334.58 953.29 335.51C952.37 335.84 951.41 335.92 950.46 335.95C948.3 336.02 946.14 335.95 943.98 336C942.95 336.02 942.55 335.65 942.59 334.61C942.65 333.17 942.61 331.73 942.61 329.94L942.62 329.95Z" fill="#FEFEFE"/>
<path d="M707.02 339.53H696.03C697.67 335.11 699.54 330.96 701.46 326.38C703.37 330.89 705.13 335.05 707.03 339.53H707.02Z" fill="#FDFDFD"/>
<path d="M701.55 316.81C700.25 316.84 699.27 315.88 699.26 314.59C699.26 313.29 700.26 312.31 701.53 312.34C702.74 312.37 703.61 313.24 703.66 314.47C703.73 315.84 702.87 316.79 701.54 316.81H701.55Z" fill="#F5F5F5"/>
<path d="M847.86 335.82C847.59 328.61 854.52 321.74 863.1 324.81C868.7 326.82 871.65 333.44 869.84 339.43C868.08 345.26 862.29 348.58 856.32 347.2C851.43 346.07 847.88 341.29 847.86 335.82Z" fill="white"/>
<path d="M811.51 324.7C812.92 324.77 814.59 324.57 816.23 325.1C819.03 326 820.6 327.76 820.72 330.3C820.87 333.3 819.42 335.57 816.69 336.68C815.17 337.3 813.57 337.29 811.98 337.24C810.4 337.19 808.36 337.92 807.37 336.96C806.26 335.9 807.03 333.81 806.98 332.18C806.91 330.11 806.98 328.04 806.96 325.97C806.95 325.12 807.15 324.62 808.15 324.69C809.18 324.76 810.22 324.71 811.51 324.71V324.7Z" fill="white"/>
</g>
<defs>
<clipPath id="clip0_121_353">
<rect width="1241.04" height="353.04" fill="white"/>
</clipPath>
</defs>
</svg>
