<svg width="300" height="179" viewBox="0 0 300 179" fill="none" xmlns="http://www.w3.org/2000/svg">
<g clip-path="url(#clip0_120_313)">
<path d="M0.100006 41.0402C7.73001 38.7502 15.72 38.6202 23.48 37.1402C27.83 36.3102 32.25 35.7702 36.65 35.2202C38.45 34.9902 41.43 34.3702 41.92 35.1502C44.28 38.9402 42.54 43.3802 42.95 47.5502C43.21 50.1502 41.17 49.8002 39.57 49.9802C32.6433 50.7668 29.18 54.6602 29.18 61.6602C29.18 76.9402 29.07 92.2302 29.26 107.51C29.3 111.06 28.23 111.96 24.78 111.9C14.99 111.76 14.99 111.91 14.99 102.02C14.99 87.0702 14.88 72.1102 15.08 57.1602C15.13 53.5102 14.02 52.4602 10.52 53.0202C7.08001 53.5702 3.58001 53.7002 0.110006 54.0202V41.0302L0.100006 41.0402Z" fill="#010101"/>
<path d="M299.92 157.91L299.5 158.03L299.06 157.99C297.45 156.27 297.44 154.55 299.07 152.83C299.36 152.76 299.64 152.79 299.91 152.91V157.9L299.92 157.91Z" fill="#EBAABA"/>
<path d="M261.43 111.83C250.45 111.83 239.46 111.74 228.48 111.9C225.64 111.94 224.49 111.1 224.95 108.28C225 107.96 224.99 107.61 224.95 107.28C223.32 97.1998 226.66 89.7798 234.53 82.6998C246.47 71.9598 257.49 60.1098 267.33 47.2898C269.4 44.5998 270.62 41.5498 271.52 38.3698C273.23 32.3298 270.98 26.5298 266.19 24.2698C260.53 21.5998 253.36 23.6898 249.92 29.0098C247.67 32.4898 246.65 36.3898 247.01 40.4198C247.33 43.8798 245.8 44.6298 242.86 44.7798C237.88 45.0498 232.91 45.5698 227.94 45.9998C226.31 46.1398 225.09 46.1298 225.12 43.7998C225.31 26.8198 231.08 8.03977 253.04 2.69977C260.96 0.769773 269.09 0.229773 277.17 2.43977C291.27 6.28977 299.02 19.5498 296.55 35.6398C295.26 44.0798 291.6 51.4298 286.53 58.1898C278.62 68.7298 269.22 77.9298 260.27 87.5298C259.41 88.4498 257.71 89.1898 258.3 90.6398C258.95 92.2198 260.55 91.2998 261.84 91.2298C273.13 90.5698 284.47 91.5298 295.73 90.1098C297.5 89.8898 298.12 90.7598 298.12 92.3698C298.12 98.0298 298.07 103.68 298.15 109.34C298.19 112.29 296.17 111.84 294.39 111.84C283.41 111.85 272.42 111.84 261.44 111.84L261.43 111.83Z" fill="#010101"/>
<path d="M158.92 64.8899C158.92 50.5899 159.01 36.2799 158.84 21.9799C158.81 19.0999 159.48 18.0299 162.47 17.6499C175.58 15.9499 188.65 13.9499 201.74 12.0799C205.02 11.6099 208.43 11.6299 211.55 10.6699C215.01 9.59985 216.15 10.2999 215.78 13.8899C215.56 16.0299 215.74 18.2099 215.74 20.3699C215.74 29.1099 215.74 29.0699 206.77 30.0099C198.66 30.8599 190.58 31.9199 182.47 32.6599C179.81 32.8999 178.69 33.6799 178.85 36.5299C179.09 40.8399 179.03 45.1799 178.87 49.4999C178.76 52.4599 179.48 53.6099 182.83 53.2299C190.9 52.3199 199.03 51.9398 207.12 51.1698C209.48 50.9498 210.46 51.4099 210.36 53.9599C210.19 57.9399 210.16 61.9499 210.36 65.9299C210.5 68.6499 209.32 69.2499 206.88 69.3599C198.74 69.7099 190.61 70.3499 182.47 70.6799C179.77 70.7899 178.71 71.5899 178.84 74.4399C179.06 79.5899 179.09 84.7599 178.84 89.8999C178.67 93.3299 180.05 94.1699 183.21 94.0199C192.66 93.5599 202.12 93.4299 211.56 92.8999C214.74 92.7199 216.13 93.3699 215.79 96.8499C215.32 101.61 217.74 107.78 214.89 110.82C212 113.91 205.77 111.71 201.01 111.76C188.37 111.91 175.72 111.7 163.07 111.89C159.82 111.94 158.88 111.08 158.92 107.78C159.1 93.4799 159 79.1799 159 64.8699C158.97 64.8699 158.94 64.8699 158.92 64.8699V64.8899Z" fill="#010101"/>
<path d="M50.36 72.5098C50.36 60.6898 50.45 48.8698 50.3 37.0498C50.26 34.0598 51.14 33.2698 54.17 32.8998C65 31.5898 75.79 29.8798 86.56 28.1398C92.77 27.1398 93.2 27.3798 93.21 33.7598C93.21 42.4798 93.21 42.4998 84.52 43.6298C79.57 44.2698 74.61 44.9098 69.64 45.3598C66.9 45.6098 65.74 46.4198 65.71 49.5698C65.56 64.5798 66.25 65.2798 81.17 62.6898C89.24 61.2898 89.31 61.2898 89.21 69.3198C89.11 77.0798 90.82 76.3398 82.17 76.8698C77.85 77.1398 73.53 77.5298 69.21 77.6198C66.75 77.6698 65.63 78.3498 65.76 81.0598C65.97 85.2098 65.96 89.3898 65.76 93.5398C65.61 96.7598 67 97.4198 69.96 97.2798C76.61 96.9698 83.28 97.1698 89.92 96.8498C92.65 96.7198 93.21 97.5498 93.27 100.13C93.56 111.82 93.65 111.82 82.17 111.82C72.84 111.82 63.51 111.7 54.19 111.89C51.12 111.95 50.2 111.04 50.24 107.97C50.4 96.1498 50.31 84.3298 50.31 72.5098H50.36Z" fill="#010101"/>
<path d="M101.57 69.5298C101.57 56.3998 101.65 43.2698 101.51 30.1498C101.48 27.3898 101.83 25.9098 105.08 25.7498C108.52 25.5798 111.94 24.7698 115.34 24.0898C118.5 23.4498 119.19 24.6598 119.18 27.7298C119.05 48.4998 119.29 69.2798 119 90.0498C118.94 94.6898 120.36 95.6298 124.6 95.3998C132.23 94.9798 139.89 95.1998 147.53 94.9598C150.14 94.8798 150.84 95.6998 150.93 98.3198C151.36 111.83 151.44 111.84 138.19 111.84C127.38 111.84 116.57 111.76 105.77 111.89C102.8 111.93 101.46 111.64 101.55 107.93C101.88 95.1398 101.68 82.3398 101.68 69.5398C101.65 69.5398 101.62 69.5398 101.59 69.5398L101.57 69.5298Z" fill="#010101"/>
<path d="M236.04 145.69C241.34 145.68 245.63 149.88 245.65 155.1C245.67 160.51 241.3 164.97 235.89 165.08C230.34 165.19 225.85 160.83 225.97 155.45C226.09 150.3 230.83 145.7 236.05 145.69H236.04Z" fill="#C030FA"/>
<path d="M299.07 152.84C299.07 154.56 299.07 156.28 299.06 158C298.49 159.78 297.48 161.3 296.12 162.56C292.17 166.24 285.74 165.93 282.26 161.94C278.62 157.76 279.27 151.56 283.74 147.8C287.98 144.24 294.07 144.85 297.36 149.29C298.13 150.33 298.52 151.65 299.08 152.84H299.07Z" fill="#CD234D"/>
<path d="M191.76 155.24C191.73 160.71 187.46 165.04 181.98 165.13C176.33 165.22 172.42 161.18 172.45 155.27C172.48 149.88 176.87 145.68 182.41 145.73C187.79 145.77 191.78 149.83 191.75 155.24H191.76Z" fill="#0466FA"/>
<path d="M30.26 155.1C30.28 160.88 25.92 165.2 20.17 165.1C15.03 165.01 11.13 161.05 11.05 155.87C10.97 150.03 15.19 145.67 20.91 145.69C26.46 145.71 30.24 149.51 30.26 155.1Z" fill="#D7AF22"/>
<path d="M74.53 145.71C80.04 145.65 84 149.47 84.08 154.95C84.17 160.75 79.88 165.17 74.16 165.14C68.78 165.12 64.82 161.04 64.88 155.58C64.94 150 69.07 145.77 74.53 145.71Z" fill="#02C750"/>
<path d="M118.85 155.55C118.94 149.54 123.01 145.61 128.96 145.78C134.09 145.93 137.89 149.86 137.92 155.05C137.96 160.81 133.64 165.15 127.91 165.11C122.35 165.06 118.77 161.27 118.85 155.55Z" fill="#02B8EB"/>
</g>
<defs>
<clipPath id="clip0_120_313">
<rect width="300" height="179" fill="white"/>
</clipPath>
</defs>
</svg>
