<svg width="98" height="28" viewBox="0 0 98 28" fill="none" xmlns="http://www.w3.org/2000/svg">
<mask id="mask0_37_89" style="mask-type:luminance" maskUnits="userSpaceOnUse" x="0" y="0" width="98" height="28">
<path d="M98 0H0V28H98V0Z" fill="white"/>
</mask>
<g mask="url(#mask0_37_89)">
<path d="M98 1.22807V18.9123C97.9999 19.2379 97.8708 19.5502 97.6411 19.7805C97.4114 20.0108 97.0999 20.1402 96.775 20.1404H74.725C74.4002 20.1405 74.0886 20.2699 73.8589 20.5002C73.6292 20.7305 73.5001 21.0428 73.5 21.3684V26.7719C73.4999 27.0976 73.3708 27.4099 73.1411 27.6402C72.9114 27.8704 72.5999 27.9999 72.275 28H25.725C25.4002 27.9999 25.0886 27.8704 24.8589 27.6402C24.6292 27.4099 24.5001 27.0976 24.5 26.7719V21.3684C24.4999 21.0428 24.3708 20.7305 24.1411 20.5002C23.9114 20.2699 23.5999 20.1405 23.275 20.1404H1.225C0.90015 20.1402 0.58864 20.0108 0.358938 19.7805C0.129234 19.5502 0.00013 19.2379 0 18.9123V1.22807C0.00013 0.902406 0.129234 0.590117 0.358938 0.359837C0.58864 0.129558 0.90015 0.000130188 1.225 0H96.775C97.0999 0.000130188 97.4114 0.129558 97.6411 0.359837C97.8708 0.590117 97.9999 0.902406 98 1.22807Z" fill="#F0313B"/>
<path d="M68.474 24.7028C68.2133 24.6999 67.9559 24.637 67.7183 24.5181C67.4806 24.3992 67.2678 24.2269 67.0933 24.012C66.9152 23.7968 66.9235 23.7287 67.1288 23.5466C67.1815 23.5001 67.2379 23.4589 67.293 23.4156C67.7133 23.0835 67.7138 23.083 68.1303 23.4224C68.275 23.5606 68.4618 23.6324 68.6525 23.6233C68.7345 23.6259 68.8145 23.5951 68.8774 23.5369C68.9404 23.4787 68.982 23.397 68.9945 23.3071C69.0099 23.2254 68.9983 23.1403 68.9618 23.0673C68.9252 22.9943 68.8662 22.9384 68.7955 22.9097C68.6751 22.8445 68.5455 22.8002 68.4192 22.748C68.1369 22.6462 67.868 22.5036 67.6195 22.3238C67.4523 22.2015 67.3154 22.0347 67.2212 21.8386C67.127 21.6425 67.0786 21.4234 67.0804 21.2013C67.0821 20.9792 67.1339 20.7611 67.2311 20.5668C67.3283 20.3726 67.4678 20.2084 67.6369 20.0893C68.0069 19.8378 68.4412 19.7281 68.8729 19.777C69.3047 19.8259 69.71 20.0306 70.0266 20.3599C70.2282 20.5928 70.2252 20.6455 69.9946 20.8537C69.9424 20.9007 69.8862 20.9424 69.8324 20.9873C69.4254 21.3259 69.424 21.3277 68.9997 20.9935C68.9335 20.9296 68.8548 20.8837 68.7698 20.8595C68.6849 20.8353 68.5959 20.8335 68.5102 20.8542C68.4637 20.8649 68.4208 20.89 68.3867 20.9266C68.3525 20.9632 68.3285 21.0099 68.3173 21.0611C68.2987 21.1181 68.2982 21.1804 68.3161 21.2377C68.334 21.295 68.369 21.3437 68.4154 21.3757C68.5085 21.4353 68.6056 21.4868 68.7059 21.5297C69.0201 21.6647 69.3255 21.8236 69.6199 22.0053C70.5352 22.6136 70.3171 23.8341 69.6788 24.3344C69.3252 24.6022 68.9013 24.7318 68.474 24.7028Z" fill="white"/>
<path d="M62.1411 19.7668C61.6561 19.752 61.1778 19.8827 60.7667 20.1424C60.3555 20.4021 60.0301 20.7791 59.8316 21.2255C59.6331 21.6719 59.5705 22.1677 59.6518 22.65C59.733 23.1323 59.9545 23.5794 60.288 23.9347C60.6215 24.29 61.0521 24.5374 61.5252 24.6456C61.9984 24.7538 62.4927 24.7179 62.9456 24.5425C63.3985 24.3671 63.7895 24.0601 64.0691 23.6603C64.3488 23.2605 64.5044 22.786 64.5164 22.2969C64.5332 21.644 64.2926 21.0111 63.8473 20.5368C63.4021 20.0625 62.7885 19.7856 62.1411 19.7668ZM62.0799 23.3228H62.0607C61.9192 23.3226 61.7792 23.2942 61.6485 23.2393C61.5179 23.1845 61.3993 23.1042 61.2994 23.0031C61.1996 22.902 61.1204 22.7821 61.0665 22.6502C61.0126 22.5182 60.985 22.3769 60.9853 22.2342C60.9856 22.0915 61.0137 21.9503 61.0681 21.8186C61.1225 21.6868 61.2021 21.5672 61.3024 21.4665C61.4026 21.3658 61.5215 21.286 61.6524 21.2317C61.7832 21.1773 61.9234 21.1495 62.0648 21.1498C62.0769 21.1498 62.089 21.15 62.1011 21.1505C62.3831 21.1589 62.6506 21.2785 62.8461 21.4836C63.0416 21.6886 63.1496 21.9629 63.1468 22.2473C63.144 22.5318 63.0307 22.8038 62.8312 23.005C62.6317 23.2061 62.362 23.3201 62.0799 23.3228Z" fill="white"/>
<path d="M55.5343 22.6783C55.5343 22.1399 55.5313 21.6014 55.5352 21.0629C55.5388 20.5901 55.5421 20.5901 56.1838 20.5887C56.3386 20.5885 56.4935 20.5869 56.6486 20.5889C57.1372 20.5954 57.1628 20.6109 57.1643 20.9994C57.1677 22.1026 57.1672 23.2059 57.1628 24.3091C57.1613 24.6868 57.1388 24.6976 56.627 24.7028C56.403 24.7051 56.179 24.7083 55.9553 24.701C55.5905 24.6888 55.5442 24.6593 55.5394 24.3724C55.5295 23.8078 55.5364 23.2429 55.5364 22.6783H55.5343Z" fill="white"/>
<path d="M50.9042 20.7649C50.6007 20.6559 50.2792 20.5966 49.954 20.5899C49.5023 20.5906 49.0508 20.5851 48.5991 20.5899C48.2127 20.5938 48.192 20.6105 48.1873 20.9717C48.1801 21.523 48.1856 22.0747 48.1856 22.626H48.187C48.187 23.217 48.1809 23.8077 48.19 24.3987C48.1939 24.6585 48.2361 24.6961 48.5146 24.6991C49.0368 24.7048 49.5599 24.7145 50.0807 24.6872C50.6356 24.6657 51.1673 24.4733 51.592 24.1402C52.5657 23.3775 52.6076 21.3286 50.9042 20.7649ZM50.814 23.1698C50.6598 23.4997 49.9776 23.7447 49.6016 23.6334C49.4623 23.5922 49.4508 23.4903 49.4498 23.3835C49.4471 23.1344 49.4488 22.8854 49.4488 22.6364H49.451C49.451 22.3873 49.4518 22.1383 49.4508 21.8892C49.4503 21.7276 49.5341 21.6448 49.7088 21.6498C50.1102 21.6613 50.5215 21.6881 50.7618 22.0378C50.8735 22.2067 50.937 22.3993 50.9461 22.5975C50.9553 22.7956 50.9098 22.9926 50.814 23.1698Z" fill="white"/>
<path d="M44.9126 21.9857C44.9126 22.3314 44.9248 22.6775 44.91 23.0228C44.8642 24.0976 44.1575 24.6955 42.9343 24.7053C42.847 24.706 42.7592 24.7051 42.6722 24.7006C41.5782 24.645 40.9727 24.1572 40.8761 23.2013C40.7977 22.423 40.8542 21.6401 40.8471 20.8593C40.8453 20.6605 40.961 20.5863 41.1737 20.5898C41.3925 20.5934 41.6113 20.5836 41.8299 20.5903C42.1369 20.5999 42.172 20.6272 42.1764 20.9132C42.1843 21.451 42.1779 21.9889 42.1799 22.5265C42.1758 22.6929 42.1813 22.8595 42.1962 23.0254C42.2458 23.4428 42.4577 23.6189 42.8887 23.6187C43.311 23.6185 43.5265 23.4377 43.5769 23.0194C43.5919 22.8407 43.5967 22.6614 43.5912 22.4822C43.594 21.9571 43.5889 21.432 43.5983 20.9071C43.6031 20.6263 43.6372 20.6015 43.9517 20.5916C44.1702 20.5849 44.3892 20.5934 44.6078 20.5887C44.8332 20.5838 44.9192 20.6817 44.9164 20.8716C44.9113 21.243 44.9149 21.6144 44.9149 21.9857H44.9126Z" fill="white"/>
<path d="M35.6623 23.1606C35.6623 22.7535 35.6587 22.3467 35.6641 21.9399C35.6667 21.7584 35.5797 21.6755 35.3762 21.6775C35.1126 21.6803 34.8484 21.6752 34.5848 21.6725C34.5481 21.6771 34.5108 21.6743 34.4756 21.6641C34.4404 21.6539 34.4082 21.6367 34.3815 21.6137C34.3548 21.5907 34.3343 21.5626 34.3216 21.5315C34.3088 21.5004 34.3041 21.4671 34.3079 21.4341C34.3076 21.408 34.3053 21.3819 34.3048 21.3555C34.2928 20.4626 34.2567 20.5974 35.0974 20.5926C36.0355 20.5871 36.9738 20.5896 37.9121 20.5926C38.3625 20.5939 38.3817 20.6116 38.383 21.0163C38.3853 21.7566 38.4281 21.6711 37.6505 21.6741C37.0275 21.6768 37.0158 21.6156 37.0173 22.2255C37.0188 22.8686 37.0165 23.5117 37.0152 24.1548C37.014 24.7048 37.0132 24.7048 36.3777 24.7048C36.2605 24.7048 36.143 24.7076 36.026 24.7023C35.702 24.6872 35.6731 24.667 35.6677 24.381C35.6605 23.9742 35.6659 23.5674 35.6659 23.1603L35.6623 23.1606Z" fill="white"/>
<path d="M29.1475 24.6982C28.6654 24.6584 28.2164 24.4112 27.8967 24.0094C27.7162 23.794 27.7232 23.7291 27.9287 23.544C27.9604 23.516 27.9934 23.4899 28.0275 23.4658C28.1719 23.3322 28.3323 23.2214 28.5041 23.1365C28.7183 23.0661 28.8053 23.3443 28.9611 23.4483C29.1148 23.5727 29.3032 23.6327 29.493 23.6178C29.5681 23.6127 29.6393 23.579 29.6945 23.5224C29.7497 23.4658 29.7856 23.3898 29.7959 23.3073C29.8116 23.2334 29.8037 23.1557 29.7736 23.0875C29.7435 23.0193 29.693 22.9648 29.6307 22.9331C29.5097 22.8678 29.3854 22.8103 29.2584 22.7611C28.9629 22.6552 28.6809 22.5075 28.4196 22.3215C28.2529 22.1989 28.1164 22.0321 28.0228 21.8361C27.9291 21.6402 27.8811 21.4215 27.8832 21.1998C27.8854 20.9781 27.9375 20.7605 28.0349 20.5668C28.1324 20.3731 28.272 20.2095 28.441 20.0909C28.8051 19.8421 29.2323 19.7312 29.6582 19.775C30.0841 19.8187 30.4857 20.0147 30.8022 20.3333C31.0305 20.5828 31.0296 20.6446 30.7921 20.8582C30.7293 20.9147 30.6634 20.9669 30.5984 21.0206C30.2172 21.3363 30.2162 21.3376 29.8281 21.0156C29.7173 20.9044 29.5747 20.8401 29.4252 20.8339C29.3573 20.8272 29.2893 20.8463 29.2324 20.888C29.1755 20.9297 29.1332 20.9917 29.1122 21.0636C29.0605 21.2409 29.1532 21.3496 29.28 21.4242C29.3772 21.4762 29.4768 21.5223 29.5784 21.5623C29.8553 21.6808 30.1246 21.8197 30.3847 21.9779C31.3598 22.5864 31.1247 23.8902 30.4179 24.3824C30.034 24.6302 29.5902 24.7406 29.1475 24.6982Z" fill="white"/>
<path d="M90.8051 3.30182H93.9451C94.0742 3.30182 94.2042 3.29627 94.3321 3.30939C94.6109 3.33765 94.7184 3.43456 94.7224 3.72401C94.7345 4.60708 94.7362 5.49024 94.7274 6.37348C94.7239 6.67707 94.6047 6.77826 94.3001 6.80249C94.1577 6.81359 94.0135 6.80804 93.8701 6.80804C91.834 6.80955 89.7978 6.81039 87.7617 6.81056C86.9944 6.80061 86.2481 7.06321 85.6531 7.55249C85.2433 7.88971 84.9145 8.31638 84.6915 8.80042C84.4684 9.28446 84.357 9.81327 84.3654 10.3471C84.3738 10.8809 84.502 11.4059 84.7402 11.8825C84.9785 12.3591 85.3206 12.7749 85.7408 13.0987C86.0294 13.3177 86.3773 13.4427 86.738 13.4571C86.8743 13.4756 87.013 13.4637 87.1443 13.4222C87.2756 13.3807 87.3963 13.3107 87.4979 13.217C87.5995 13.1234 87.6795 13.0084 87.7324 12.8801C87.7853 12.7519 87.8097 12.6135 87.8039 12.4747C87.8221 11.9684 87.8096 11.4612 87.8129 10.9545C87.8117 10.8388 87.8176 10.7232 87.8304 10.6083C87.8343 10.5273 87.8689 10.451 87.9269 10.395C87.9849 10.339 88.0619 10.3075 88.1422 10.3072C88.2564 10.2984 88.3713 10.2971 88.486 10.2971C90.3356 10.2964 92.1853 10.2963 94.0353 10.2968C94.1352 10.2968 94.2364 10.2931 94.3361 10.3019C94.6044 10.3251 94.6909 10.4074 94.7216 10.6708C94.7304 10.7718 94.7333 10.8731 94.7304 10.9744C94.7309 12.8568 94.731 14.7391 94.7309 16.6214C94.7334 16.7082 94.7314 16.7951 94.7251 16.8818C94.6959 17.1682 94.6094 17.2661 94.3184 17.2808C93.9608 17.2989 93.6018 17.2929 93.2432 17.2934C92.7558 17.2939 92.268 17.2992 91.7808 17.2866C91.3703 17.2757 91.2794 17.1786 91.2736 16.7609C91.2646 16.0659 91.2711 15.3709 91.2619 14.676C91.2539 14.0511 91.0175 13.8137 90.3971 13.8048C89.8666 13.7974 89.3361 13.797 88.8055 13.8036C88.1357 13.8114 87.8271 14.114 87.8169 14.7817C87.8069 15.4186 87.8169 16.0561 87.8119 16.6928C87.8081 17.1988 87.7237 17.2947 87.23 17.2442C84.8888 17.0039 83.0706 15.8701 81.8756 13.8356C80.5388 11.5601 80.5046 9.18648 81.7948 6.88955C83.0973 4.57066 85.1404 3.37626 87.7939 3.30762C88.7968 3.28163 89.8012 3.30358 90.8049 3.30358L90.8051 3.30182Z" fill="white"/>
<path d="M66.1518 10.269V4.1426C66.1518 4.01212 66.1481 3.88139 66.1568 3.75141C66.1794 3.41399 66.2683 3.31884 66.6075 3.30521C66.9521 3.29133 67.2974 3.29588 67.6424 3.29588C70.3875 3.29571 73.1325 3.29604 75.8776 3.29689C75.964 3.29689 76.0504 3.29159 76.1362 3.2984C76.4359 3.32263 76.5534 3.42661 76.5652 3.72845C76.5812 4.13351 76.5717 4.53933 76.5752 4.9449C76.5842 6.05611 77.2595 6.75619 78.3704 6.79657C78.7435 6.8102 79.1176 6.79708 79.4912 6.80389C79.9386 6.81197 80.0232 6.89222 80.027 7.33994C80.0342 8.25227 80.0328 9.16461 80.033 10.0772C80.0333 12.2207 80.0329 14.3642 80.0317 16.5077C80.036 16.6381 80.0334 16.7686 80.0242 16.8987C79.9974 17.1563 79.9008 17.2752 79.6436 17.2787C78.7528 17.2913 77.8614 17.2934 76.9708 17.278C76.6656 17.2729 76.5842 17.1576 76.5646 16.8328C76.5551 16.674 76.5596 16.5143 76.5596 16.355C76.5591 13.5741 76.5461 10.7932 76.5679 8.01277C76.5739 7.25009 76.3388 6.77815 75.3568 6.7996C73.719 6.83544 72.08 6.8097 70.4417 6.81046C70.3265 6.81046 70.2113 6.80919 70.0967 6.8155C69.7541 6.83494 69.6663 6.91393 69.6492 7.26094C69.6335 7.57894 69.638 7.89794 69.6375 8.21669C69.6336 10.9831 69.63 13.7493 69.6267 16.5155C69.6257 17.2616 69.5961 17.2903 68.8425 17.2929C68.1381 17.2954 67.4338 17.2969 66.7297 17.2893C66.2365 17.2843 66.1538 17.2002 66.1533 16.6998C66.15 14.5563 66.1495 12.4125 66.1518 10.269Z" fill="white"/>
<path d="M64.5156 12.0295V16.4585C64.5156 16.574 64.5183 16.69 64.5116 16.8055C64.4906 17.175 64.4039 17.2827 64.0489 17.2873C63.2014 17.298 62.3537 17.2974 61.506 17.2855C61.1452 17.2805 61.0498 17.1745 61.0416 16.8088C61.0305 16.317 61.0365 15.8251 61.0353 15.3328C61.035 15.1737 61.0368 15.0145 61.034 14.8554C61.0215 14.1002 60.7637 13.8288 60.0251 13.8192C59.1343 13.8079 58.2433 13.8094 57.3525 13.8049C57.0508 13.8033 56.7486 13.8099 56.4474 13.7948C56.1109 13.7771 56.0125 13.6828 56.0083 13.3398C55.9982 12.4859 55.9978 11.6321 56.007 10.7782C56.0115 10.3906 56.1064 10.3073 56.5107 10.3048C57.5886 10.298 58.6664 10.3008 59.7439 10.2977C59.9307 10.3034 60.1176 10.297 60.3035 10.2788C60.5006 10.267 60.6857 10.179 60.82 10.0332C60.9543 9.88731 61.0276 9.69486 61.0245 9.49592C61.0443 8.8742 61.0431 8.25122 61.0298 7.62924C61.0326 7.52697 61.0153 7.42514 60.9789 7.32962C60.9425 7.23411 60.8877 7.14679 60.8177 7.07271C60.7476 6.99862 60.6637 6.93923 60.5708 6.89796C60.4779 6.85669 60.3777 6.83435 60.2762 6.83222C59.243 6.77148 58.207 6.77999 57.175 6.8577C56.3384 6.96268 55.5675 7.36805 55.0037 7.99943C54.4399 8.63081 54.121 9.44583 54.1055 10.295C54.0747 12.2628 54.0935 14.2314 54.0902 16.1994C54.0897 16.4166 54.0942 16.6343 54.081 16.8507C54.0609 17.1811 53.9813 17.2807 53.6696 17.285C52.8077 17.2969 51.9456 17.2971 51.0834 17.2855C50.7404 17.2805 50.6535 17.1839 50.6437 16.8333C50.6295 16.3271 50.6342 15.8204 50.635 15.3136C50.637 13.6061 50.6225 11.8978 50.6492 10.1905C50.6648 8.61013 51.2325 7.08575 52.2528 5.88513C52.8721 5.10844 53.6517 4.47671 54.5374 4.03374C55.4232 3.59077 56.394 3.34716 57.3825 3.3198C58.4295 3.27516 59.48 3.30315 60.5288 3.30845C60.9702 3.31097 61.0426 3.39446 61.0511 3.85577C61.0578 4.23208 61.0461 4.60865 61.0561 4.98471C61.0861 6.07884 61.7601 6.76337 62.8454 6.80271C63.1754 6.81482 63.5064 6.80751 63.8369 6.81003C64.459 6.81482 64.5103 6.85896 64.5121 7.47085C64.5158 8.99022 64.5133 10.5101 64.5133 12.0297L64.5156 12.0295Z" fill="white"/>
<path d="M48.9998 8.56975V13.0015C48.9998 13.1171 49.0033 13.2334 48.9953 13.3488C48.9722 13.6814 48.8777 13.7854 48.5429 13.797C48.1271 13.8116 47.7103 13.8071 47.2941 13.8073C46.9762 13.8 46.6626 13.8816 46.3879 14.043C46.1408 14.1799 45.9334 14.3795 45.7863 14.6221C45.6392 14.8646 45.5575 15.1418 45.5493 15.4261C45.5293 15.8743 45.5456 16.324 45.5351 16.7728C45.5251 17.1887 45.437 17.2828 45.0194 17.2843C43.9282 17.2879 42.8354 17.3139 41.7461 17.2684C40.1182 17.1792 38.5712 16.5232 37.369 15.4122C36.1668 14.3013 35.3836 12.8042 35.153 11.176C35.1298 11.0037 35.1178 10.8301 35.1172 10.6562C35.1177 10.299 35.1922 10.2135 35.5415 10.2052C36.0438 10.193 36.5464 10.1988 37.0491 10.1978C37.3793 10.1973 37.7095 10.1928 38.0398 10.1999C38.4435 10.2084 38.5106 10.2624 38.5706 10.668C38.6448 11.2153 38.8416 11.7383 39.146 12.1974C39.452 12.6746 39.87 13.0683 40.3629 13.3435C40.8558 13.6188 41.4085 13.7671 41.9718 13.7753C42.8316 13.8124 43.6945 13.7904 44.5561 13.7836C45.1926 13.7786 45.5168 13.4585 45.5185 12.8198C45.5236 10.9951 45.522 9.17041 45.514 7.34572C45.5128 6.88715 45.4435 6.81775 44.9834 6.81624C43.1023 6.81068 41.2215 6.81169 39.3404 6.80892C38.6339 6.80791 38.5906 6.76324 38.5899 6.04043C38.5886 5.331 38.5869 4.62131 38.5924 3.91163C38.5961 3.38492 38.6715 3.30441 39.1926 3.3034C41.3464 3.29802 43.5002 3.29591 45.6539 3.29709C46.5728 3.29659 47.4919 3.2928 48.4108 3.29659C48.9017 3.29861 48.9953 3.38921 48.9965 3.87781C49.0008 5.44179 48.998 7.00577 48.998 8.56975H48.9998Z" fill="white"/>
<path d="M27.3615 3.29544C23.6704 3.28607 20.3949 6.21876 20.4161 10.3305C20.4374 14.4145 23.6875 17.3189 27.3902 17.2947C28.2961 17.3021 29.1945 17.126 30.0334 16.7766C30.8722 16.4273 31.6349 15.9115 32.2774 15.2593C32.9199 14.607 33.4294 13.8311 33.7764 12.9765C34.1235 12.1219 34.3012 11.2056 34.2993 10.2804C34.2975 9.35519 34.116 8.43956 33.7655 7.58644C33.4149 6.73332 32.9023 5.95962 32.2572 5.31009C31.612 4.66056 30.8472 4.14807 30.0069 3.80227C29.1667 3.45646 28.2674 3.2842 27.3615 3.29544ZM27.3634 13.6913C25.7808 13.6923 23.9814 12.3155 24.029 10.2801C24.0335 9.6118 24.2315 8.95974 24.598 8.40602C24.9645 7.8523 25.4831 7.42165 26.0887 7.16827C26.6943 6.91489 27.3598 6.85009 28.0014 6.98203C28.6429 7.11397 29.232 7.43675 29.6943 7.90977C30.1567 8.38278 30.4717 8.98488 30.5998 9.64032C30.7279 10.2958 30.6633 10.9752 30.4141 11.5933C30.165 12.2113 29.7424 12.7402 29.1995 13.1136C28.6567 13.4869 28.0179 13.6879 27.3634 13.6913Z" fill="white"/>
<path d="M3.27255 10.2826C3.27255 8.2106 3.27297 6.13861 3.2738 4.06663C3.27479 3.34032 3.31461 3.29942 4.02284 3.29866C7.5942 3.2953 11.1656 3.2942 14.7369 3.29538C15.2498 3.29538 15.3252 3.37642 15.3334 3.90657C15.3394 4.28324 15.3297 4.66041 15.3434 5.03656C15.3387 5.26254 15.3782 5.48722 15.4596 5.69763C15.541 5.90803 15.6626 6.09999 15.8176 6.26243C15.9725 6.42486 16.1576 6.55454 16.3622 6.64399C16.5668 6.73343 16.7869 6.78087 17.0097 6.78355C17.4223 6.81233 17.8379 6.79365 18.2522 6.80249C18.6994 6.81233 18.7621 6.87949 18.7803 7.34274C18.783 7.41494 18.7832 7.4874 18.7832 7.55985C18.7839 10.5302 18.7842 13.5005 18.7842 16.4708C18.784 17.2817 18.7718 17.2912 17.9655 17.2938C17.3371 17.296 16.7086 17.295 16.08 17.291C15.3434 17.2857 15.3259 17.2683 15.3254 16.5384C15.3245 13.6985 15.3242 10.8585 15.3247 8.01856C15.3247 7.91733 15.3272 7.81584 15.324 7.71436C15.3327 7.59423 15.3159 7.4736 15.2747 7.36064C15.2335 7.24767 15.1689 7.14501 15.0851 7.05962C15.0014 6.97422 14.9006 6.90808 14.7894 6.86567C14.6783 6.82327 14.5595 6.8056 14.441 6.81385C14.1697 6.80534 13.8981 6.80619 13.6268 6.81637C13.5118 6.81161 13.3972 6.83105 13.29 6.87346C13.1828 6.91587 13.0855 6.98034 13.0041 7.0628C12.9227 7.14526 12.859 7.24393 12.817 7.35259C12.7751 7.46125 12.7558 7.57755 12.7603 7.69416C12.7516 7.85321 12.7551 8.01276 12.7548 8.17206L12.7523 12.823C12.7523 12.9972 12.7568 13.1714 12.7466 13.3446C12.7279 13.6614 12.6364 13.7771 12.3355 13.7809C11.4643 13.7921 10.593 13.7915 9.7216 13.7791C9.41895 13.7743 9.32787 13.6561 9.30647 13.3431C9.29776 13.2133 9.30199 13.0823 9.30174 12.9518L9.29626 7.9966C9.30148 7.85182 9.29732 7.70686 9.28382 7.56263C9.26506 7.36535 9.17656 7.18162 9.03467 7.04538C8.89278 6.90914 8.70708 6.82959 8.51188 6.82142C8.18384 6.80192 7.85494 6.80217 7.52693 6.82218C7.42264 6.82216 7.31939 6.84321 7.2232 6.8841C7.12701 6.92499 7.03982 6.98489 6.96669 7.06033C6.89356 7.13576 6.83597 7.2252 6.79727 7.32345C6.75858 7.4217 6.73955 7.52678 6.7413 7.63256C6.72687 7.95065 6.73309 8.27001 6.73284 8.58886C6.73052 11.2258 6.72861 13.8628 6.72711 16.4998C6.72711 16.6159 6.73159 16.7321 6.72338 16.8474C6.70099 17.1617 6.60966 17.2799 6.30705 17.2842C5.4359 17.2955 4.56459 17.2938 3.69311 17.2791C3.38478 17.2741 3.29918 17.164 3.27504 16.8459C3.26384 16.702 3.26857 16.5563 3.26857 16.4114C3.26824 14.3684 3.26824 12.3254 3.26857 10.2823L3.27255 10.2826Z" fill="white"/>
</g>
</svg>
