<svg width="128" height="37" viewBox="0 0 128 37" fill="none" xmlns="http://www.w3.org/2000/svg">
<path d="M91.1341 25.1136C91.1408 25.0874 91.1475 25.0613 91.1541 25.0352L91.1341 25.1136Z" fill="#1C1B1F"/>
<path d="M91.0251 25.1136C91.0017 25.0273 90.9782 24.9415 90.9546 24.8561C90.9711 24.916 90.9876 24.9761 91.0041 25.0364L91.0251 25.1136Z" fill="#1C1B1F"/>
<path d="M82.0586 10.2681H86.0328L89.7428 21.362C90.1294 22.5097 90.5102 23.773 90.8851 25.1517L90.9142 25.2587H91.2469L91.2748 25.1494C91.6254 23.7712 91.9879 22.5085 92.3622 21.3613L96.0179 10.2681H99.9927L92.0157 31.7863C91.4669 33.2773 90.6419 34.383 89.5455 35.1139L89.5446 35.1145C88.4499 35.8561 86.9673 36.2343 85.0834 36.2343H83.684V33.1265H85.0834C86.0308 33.1265 86.7941 32.9548 87.3589 32.5957C87.926 32.2473 88.3664 31.6606 88.6887 30.8549L89.2544 29.4028L82.0586 10.2681Z" fill="#1C1B1F"/>
<path d="M55.5352 28.3709H59.0521V15.1736C59.0521 11.6915 59.0173 8.87094 58.9825 6.81648H59.0173C59.47 8.4879 59.9226 10.3334 60.7235 12.7361L65.9816 28.3709H69.8467L74.269 15.2432C75.3833 11.7959 76.6021 8.07005 76.9503 6.81648H76.9851C76.9851 7.8263 76.9503 9.32361 76.9155 10.9602L76.8806 13.3629V28.3709H80.4324V3.47363H74.7217L70.3342 16.845L69.8119 18.3772L68.036 23.9137H68.0012L67.4789 22.2423L66.9217 20.3968L65.8771 17.0888L61.4548 3.47363H55.5352V28.3709Z" fill="#1C1B1F"/>
<path d="M104.849 10.0897H101.366C101.401 10.5424 101.401 11.0299 101.401 11.4825V28.3709H104.918V17.82C104.918 14.9298 106.52 12.562 109.445 12.562C112.335 12.562 113.519 14.8254 113.519 18.4468V28.3709H117.071V17.1236C117.071 12.3879 114.877 9.56736 110.664 9.56736C107.599 9.56736 105.789 10.995 104.849 12.562V10.0897Z" fill="#1C1B1F"/>
<path d="M124.587 5.14506H121.035V10.0897H118.284V12.8057H121.035V23.9834C121.035 27.6396 123.09 28.7191 126.328 28.7191C126.781 28.7191 127.164 28.6843 127.686 28.5798V25.9682C127.442 26.003 127.059 26.0378 126.815 26.0378C125.457 26.0378 124.587 25.5504 124.587 23.7745V12.8057H127.999V10.0897H124.587V5.14506Z" fill="#1C1B1F"/>
<path d="M16.6696 15.308C16.6696 8.0459 11.2243 2.04246 4.16294 1.09514C3.2996 0.979318 2.86793 0.921407 2.48726 1.20851C2.10659 1.49561 2.03809 1.96439 1.9011 2.90196C1.30906 6.95395 1 11.096 1 15.308C1 19.52 1.30906 23.6621 1.9011 27.714C2.03809 28.6516 2.10659 29.1204 2.48726 29.4075C2.86793 29.6946 3.2996 29.6367 4.16294 29.5209C11.2243 28.5735 16.6696 22.5701 16.6696 15.308Z" fill="#1C1B1F"/>
<path d="M22.2311 28.4424C21.3894 29.031 20.9685 29.3253 20.5221 29.1318C20.0757 28.9382 19.9986 28.4001 19.8444 27.3238C19.2816 23.3962 18.9883 19.3849 18.9883 15.308C18.9883 11.2308 19.2817 7.21917 19.8445 3.29133C19.9987 2.21539 20.0758 1.67742 20.5221 1.48382C20.9684 1.29023 21.3892 1.58429 22.2309 2.17242C26.4168 5.09745 29.1445 9.8892 29.1445 15.308C29.1445 20.7261 26.4141 25.5173 22.2311 28.4424Z" fill="#1C1B1F"/>
<path d="M33.4096 26.7329C33.58 27.9733 33.6652 28.5935 34.0866 28.6638C34.5079 28.7341 34.7838 28.187 35.3355 27.0929C37.1297 23.535 38.1423 19.5367 38.1423 15.308C38.1423 11.0793 37.1297 7.08096 35.3355 3.5231C34.7838 2.42899 34.5079 1.88193 34.0866 1.95221C33.6652 2.02249 33.58 2.64268 33.4096 3.88305C32.8961 7.62181 32.6289 11.4353 32.6289 15.308C32.6289 19.1807 32.8961 22.9942 33.4096 26.7329Z" fill="#1C1B1F"/>
</svg>
